<svg width="80" height="80" aria-hidden="true" fill="#A6A6A6" viewBox="0 0 80 81" id="intercom" xmlns="http://www.w3.org/2000/svg">
    <g clip-path="url(#bjclip0_1308_66067)">
        <path d="M59.495.145H20.506A5.692 5.692 0 0014.82 5.83V74.46a5.692 5.692 0 005.686 5.685h38.989a5.692 5.692 0 005.685-5.685V5.83A5.692 5.692 0 0059.494.145zm2.807 74.314a2.811 2.811 0 01-2.807 2.808H20.506a2.811 2.811 0 01-2.808-2.808V5.83a2.811 2.811 0 012.808-2.808h38.989a2.811 2.811 0 012.807 2.808V74.46z" />
        <path d="M55.252 33.953H24.748c-.794 0-1.438.644-1.438 1.439v8.345c0 .795.644 1.44 1.439 1.44h30.503c.795 0 1.439-.645 1.439-1.44v-8.345c0-.795-.644-1.439-1.439-1.439zM39.98 36.831h8.245l-1.508 5.467H38.47l1.509-5.467zm-4.494 5.467h-2.821l1.508-5.467h2.821l-1.508 5.467zm-9.298-5.467h5l-1.509 5.467h-3.49v-5.467zm27.626 5.467h-4.112l1.508-5.467h2.604v5.467zM40 30.494c6.665 0 12.087-5.422 12.087-12.086C52.087 11.743 46.665 6.32 40 6.32c-6.664 0-12.086 5.422-12.086 12.087 0 6.664 5.422 12.086 12.086 12.086zM40 9.2c5.078 0 9.209 4.131 9.209 9.209 0 5.077-4.131 9.208-9.209 9.208-5.077 0-9.208-4.13-9.208-9.208S34.922 9.199 40 9.199z" />
        <path d="M40 25.46a7.058 7.058 0 007.051-7.051 7.058 7.058 0 00-7.05-7.05 7.058 7.058 0 00-7.05 7.05 7.058 7.058 0 007.05 7.05zm0-11.224c2.301 0 4.173 1.872 4.173 4.173s-1.872 4.173-4.172 4.173a4.177 4.177 0 01-4.173-4.173c0-2.3 1.872-4.173 4.173-4.173zM39.864 50.027a1.452 1.452 0 00-1.816.178 1.45 1.45 0 00-.332 1.513c.21.57.774.96 1.385.944a1.452 1.452 0 001.334-1c.192-.596-.04-1.293-.571-1.635-.077-.052.08.052 0 0zM40.394 55.854a1.453 1.453 0 00-1.364-.888 1.451 1.451 0 00-1.33.987c-.19.563.005 1.216.475 1.581.49.382 1.17.406 1.688.066.571-.375.782-1.118.531-1.746-.036-.086.035.087 0 0zM40.395 61.034a1.45 1.45 0 00-1.294-.888 1.451 1.451 0 00-1.39.953 1.45 1.45 0 00.47 1.618c.504.391 1.212.401 1.73.03.538-.385.727-1.105.484-1.713-.037-.088.034.086 0 0zM39.862 65.567a1.453 1.453 0 00-1.775.14c-.406.375-.562.97-.392 1.495a1.45 1.45 0 001.404.998 1.448 1.448 0 001.334-.998c.192-.596-.039-1.293-.571-1.635-.077-.052.08.052 0 0zM34.494 50.674c-.5-1.184-2.242-1.153-2.683.065-.445 1.233.933 2.377 2.065 1.736.619-.351.897-1.142.618-1.801zM34.495 55.853a1.494 1.494 0 00-.311-.468c-.561-.547-1.476-.558-2.036 0a1.455 1.455 0 00-.112 1.908 1.453 1.453 0 001.762.403c.67-.327.989-1.153.697-1.843-.037-.088.037.086 0 0zM34.495 61.034a1.493 1.493 0 00-.311-.468c-.562-.547-1.476-.558-2.036 0a1.453 1.453 0 00-.146 1.863 1.453 1.453 0 001.848.42 1.451 1.451 0 00.645-1.815zM34.495 66.212c-.488-1.152-2.174-1.163-2.658 0a1.45 1.45 0 00.39 1.64c.458.393 1.123.46 1.649.161a1.453 1.453 0 00.619-1.802zM28.595 50.673c-.395-.934-1.621-1.171-2.346-.468-.766.79-.403 2.14.668 2.414 1.116.285 2.13-.877 1.678-1.946zM28.595 55.854c-.396-.936-1.62-1.173-2.346-.468-.767.79-.402 2.138.668 2.413 1.116.286 2.13-.876 1.678-1.945zM28.595 61.033c-.389-.94-1.625-1.169-2.346-.468-.788.812-.377 2.199.737 2.429 1.099.227 2.049-.923 1.61-1.96-.037-.09.036.085 0 0zM28.595 66.214c-.487-1.176-2.21-1.152-2.67.033a1.445 1.445 0 00.402 1.606 1.45 1.45 0 001.65.161 1.45 1.45 0 00.618-1.8zM51.798 58.418a4.898 4.898 0 00-4.892 4.892 4.898 4.898 0 004.892 4.892 4.898 4.898 0 004.892-4.892 4.898 4.898 0 00-4.892-4.892zm0 6.906a2.017 2.017 0 01-2.014-2.014c0-1.11.904-2.014 2.014-2.014 1.111 0 2.015.903 2.015 2.014 0 1.11-.904 2.014-2.015 2.014z" />
    </g>
    <defs>
        <clipPath id="bjclip0_1308_66067">
            <path fill="#fff" transform="translate(0 .145)" d="M0 0h80v80H0z" />
        </clipPath>
    </defs>
</svg>