<svg width="80" height="80" aria-hidden="true" fill="#A6A6A6" viewBox="0 0 80 81" id="laptop" xmlns="http://www.w3.org/2000/svg">
    <path d="M71.802 65.325H8.198a6.043 6.043 0 01-6.036-6.037v-4.324a1.081 1.081 0 011.081-1.081h73.514a1.08 1.08 0 011.08 1.08v4.325a6.043 6.043 0 01-6.035 6.037zm-67.478-9.28v3.243a3.878 3.878 0 003.874 3.875h63.604a3.877 3.877 0 003.874-3.875v-3.243H4.324z" />
    <path d="M45.755 60.37h-11.51a2.671 2.671 0 01-2.669-2.669v-2.737a1.081 1.081 0 011.081-1.081h14.686a1.08 1.08 0 011.08 1.08v2.738a2.671 2.671 0 01-2.668 2.668zm-12.017-4.325v1.656a.507.507 0 00.507.506h11.51a.507.507 0 00.507-.506v-1.656H33.738z" />
    <path d="M70.772 56.045H9.23a1.081 1.081 0 01-1.082-1.081v-35.56a4.445 4.445 0 014.44-4.44h54.826a4.445 4.445 0 014.44 4.44v35.56a1.081 1.081 0 01-1.08 1.08zM10.31 53.883H69.69v-34.48a2.28 2.28 0 00-2.278-2.277H12.588a2.281 2.281 0 00-2.278 2.278v34.479z" />
</svg>