<svg width="80" height="80" aria-hidden="true" fill="#A6A6A6" viewBox="0 0 80 81" id="smartphone" xmlns="http://www.w3.org/2000/svg">
    <g clip-path="url(#cdclip0_1308_66096)">
        <path d="M57.452.145H22.281C18.814.149 16.004 3.13 16 6.81v66.667c.004 3.68 2.814 6.662 6.28 6.666h35.172c3.467-.004 6.277-2.986 6.28-6.666V6.81C63.73 3.131 60.92.15 57.453.145zm3.769 73.333c0 2.209-1.688 4-3.769 4H22.281c-2.082 0-3.769-1.791-3.769-4V66.81h42.709v6.667zm0-9.334H18.512V10.811h42.709v53.333zm0-56H18.512V6.812c0-2.209 1.687-4 3.769-4h35.171c2.081 0 3.769 1.791 3.769 4v1.334z" />
        <path d="M40.8 68.144a4 4 0 100 8 4 4 0 000-8zm0 5.334a1.333 1.333 0 110-2.667 1.333 1.333 0 010 2.667zM40.8 4.145h-2.667a1.333 1.333 0 000 2.666H40.8a1.333 1.333 0 000-2.666z" />
    </g>
    <defs>
        <clipPath id="cdclip0_1308_66096">
            <path fill="#fff" transform="translate(0 .145)" d="M0 0h80v80H0z" />
        </clipPath>
    </defs>
</svg>