<svg width="80" height="80" aria-hidden="true" fill="#A6A6A6" viewBox="0 0 80 81" id="tablet" xmlns="http://www.w3.org/2000/svg">
    <g clip-path="url(#ckclip0_1308_66088)">
        <path d="M67.16.145H12.84a4.737 4.737 0 00-4.732 4.731v70.537a4.737 4.737 0 004.732 4.731h54.32a4.737 4.737 0 004.732-4.731V4.876A4.737 4.737 0 0067.16.145zm2.03 75.268c0 1.118-.911 2.029-2.03 2.029H12.84c-1.118 0-2.029-.91-2.029-2.03V4.877c0-1.118.91-2.029 2.03-2.029h54.32c1.118 0 2.028.91 2.028 2.03v70.536z" />
        <path d="M66.487 8.776H13.514c-.497 0-.9.404-.9.901v60.934c0 .497.403.9.9.9h52.973c.498 0 .9-.403.9-.9V9.677a.9.9 0 00-.9-.9zm-.901 60.934h-51.17V10.578h51.17V69.71z" />
        <path d="M41.06 75.604h0c-.278.28-.666.44-1.06.44a1.51 1.51 0 01-1.062-.44 1.513 1.513 0 01-.438-1.06c0-.394.16-.782.438-1.06.28-.28.666-.44 1.062-.44.394 0 .78.16 1.06.44h0c.28.278.44.666.44 1.06s-.16.782-.44 1.06z" stroke="#A6A6A6" stroke-width=".2" />
        <path d="M39.159 6.46h3.16a.759.759 0 000-1.516h-3.16a.759.759 0 000 1.517z" />
    </g>
    <defs>
        <clipPath id="ckclip0_1308_66088">
            <path fill="#fff" transform="translate(0 .145)" d="M0 0h80v80H0z" />
        </clipPath>
    </defs>
</svg>