<?xml version="1.0" encoding="UTF-8"?>
<svg id="_Слой_1" data-name="Слой 1" xmlns="http://www.w3.org/2000/svg" viewBox="0 0 400 400">
  <defs>
    <style>
      .cls-1 {
        fill: #fe5008;
        stroke-width: 0px;
      }
    </style>
  </defs>
  <rect class="cls-1" x="191.41" y="318.17" width="17.17" height="17.17"/>
  <rect class="cls-1" x="375.81" y="87.71" width="17.17" height="17.17"/>
  <rect class="cls-1" x="306.66" y="64.65" width="17.17" height="17.17"/>
  <rect class="cls-1" x="329.71" y="110.76" width="17.17" height="17.17"/>
  <rect class="cls-1" x="53.1" y="41.6" width="17.17" height="17.17"/>
  <rect class="cls-1" x="76.15" y="41.6" width="17.17" height="17.17"/>
  <rect class="cls-1" x="99.2" y="41.6" width="17.17" height="17.17"/>
  <rect class="cls-1" x="122.25" y="41.6" width="17.17" height="17.17"/>
  <rect class="cls-1" x="260.56" y="41.6" width="17.17" height="17.17"/>
  <rect class="cls-1" x="283.61" y="41.6" width="17.17" height="17.17"/>
  <rect class="cls-1" x="306.66" y="41.6" width="17.17" height="17.17"/>
  <rect class="cls-1" x="329.71" y="41.6" width="17.17" height="17.17"/>
  <rect class="cls-1" x="30.05" y="64.65" width="17.17" height="17.17"/>
  <rect class="cls-1" x="53.1" y="64.65" width="17.17" height="17.17"/>
  <rect class="cls-1" x="76.15" y="64.65" width="17.17" height="17.17"/>
  <rect class="cls-1" x="99.2" y="64.65" width="17.17" height="17.17"/>
  <rect class="cls-1" x="122.25" y="64.65" width="17.17" height="17.17"/>
  <rect class="cls-1" x="145.3" y="64.65" width="17.17" height="17.17"/>
  <rect class="cls-1" x="237.51" y="64.65" width="17.17" height="17.17"/>
  <rect class="cls-1" x="260.56" y="64.65" width="17.17" height="17.17"/>
  <rect class="cls-1" x="283.61" y="64.65" width="17.17" height="17.17"/>
  <rect class="cls-1" x="329.71" y="64.65" width="17.17" height="17.17"/>
  <rect class="cls-1" x="352.76" y="64.65" width="17.17" height="17.17"/>
  <rect class="cls-1" x="7" y="87.71" width="17.17" height="17.17"/>
  <rect class="cls-1" x="30.05" y="87.71" width="17.17" height="17.17"/>
  <rect class="cls-1" x="53.1" y="87.71" width="17.17" height="17.17"/>
  <rect class="cls-1" x="76.15" y="87.71" width="17.17" height="17.17"/>
  <rect class="cls-1" x="99.2" y="87.71" width="17.17" height="17.17"/>
  <rect class="cls-1" x="122.25" y="87.71" width="17.17" height="17.17"/>
  <rect class="cls-1" x="145.3" y="87.71" width="17.17" height="17.17"/>
  <rect class="cls-1" x="168.36" y="87.71" width="17.17" height="17.17"/>
  <rect class="cls-1" x="214.46" y="87.71" width="17.17" height="17.17"/>
  <rect class="cls-1" x="237.51" y="87.71" width="17.17" height="17.17"/>
  <rect class="cls-1" x="260.56" y="87.71" width="17.17" height="17.17"/>
  <rect class="cls-1" x="283.61" y="87.71" width="17.17" height="17.17"/>
  <rect class="cls-1" x="329.71" y="87.71" width="17.17" height="17.17"/>
  <rect class="cls-1" x="352.76" y="87.71" width="17.17" height="17.17"/>
  <rect class="cls-1" x="7" y="110.76" width="17.17" height="17.17"/>
  <rect class="cls-1" x="30.05" y="110.76" width="17.17" height="17.17"/>
  <rect class="cls-1" x="53.1" y="110.76" width="17.17" height="17.17"/>
  <rect class="cls-1" x="76.15" y="110.76" width="17.17" height="17.17"/>
  <rect class="cls-1" x="99.2" y="110.76" width="17.17" height="17.17"/>
  <rect class="cls-1" x="122.25" y="110.76" width="17.17" height="17.17"/>
  <rect class="cls-1" x="145.3" y="110.76" width="17.17" height="17.17"/>
  <rect class="cls-1" x="168.36" y="110.76" width="17.17" height="17.17"/>
  <rect class="cls-1" x="214.46" y="110.76" width="17.17" height="17.17"/>
  <rect class="cls-1" x="237.51" y="110.76" width="17.17" height="17.17"/>
  <rect class="cls-1" x="260.56" y="110.76" width="17.17" height="17.17"/>
  <rect class="cls-1" x="283.61" y="110.76" width="17.17" height="17.17"/>
  <rect class="cls-1" x="306.66" y="110.76" width="17.17" height="17.17"/>
  <rect class="cls-1" x="352.76" y="110.76" width="17.17" height="17.17"/>
  <rect class="cls-1" x="375.81" y="110.76" width="17.17" height="17.17"/>
  <rect class="cls-1" x="7.02" y="133.78" width="17.17" height="17.17"/>
  <rect class="cls-1" x="30.07" y="133.78" width="17.17" height="17.17"/>
  <rect class="cls-1" x="53.12" y="133.78" width="17.17" height="17.17"/>
  <rect class="cls-1" x="76.17" y="133.78" width="17.17" height="17.17"/>
  <rect class="cls-1" x="99.22" y="133.78" width="17.17" height="17.17"/>
  <rect class="cls-1" x="122.27" y="133.78" width="17.17" height="17.17"/>
  <rect class="cls-1" x="145.32" y="133.78" width="17.17" height="17.17"/>
  <rect class="cls-1" x="168.37" y="133.78" width="17.17" height="17.17"/>
  <rect class="cls-1" x="191.42" y="133.78" width="17.17" height="17.17"/>
  <rect class="cls-1" x="214.47" y="133.78" width="17.17" height="17.17"/>
  <rect class="cls-1" x="237.52" y="133.78" width="17.17" height="17.17"/>
  <rect class="cls-1" x="260.57" y="133.78" width="17.17" height="17.17"/>
  <rect class="cls-1" x="283.63" y="133.78" width="17.17" height="17.17"/>
  <rect class="cls-1" x="306.68" y="133.78" width="17.17" height="17.17"/>
  <rect class="cls-1" x="329.73" y="133.78" width="17.17" height="17.17"/>
  <rect class="cls-1" x="352.78" y="133.78" width="17.17" height="17.17"/>
  <rect class="cls-1" x="53.12" y="156.83" width="17.17" height="17.17"/>
  <rect class="cls-1" x="76.17" y="156.83" width="17.17" height="17.17"/>
  <rect class="cls-1" x="99.22" y="156.83" width="17.17" height="17.17"/>
  <rect class="cls-1" x="122.27" y="156.83" width="17.17" height="17.17"/>
  <rect class="cls-1" x="145.32" y="156.83" width="17.17" height="17.17"/>
  <rect class="cls-1" x="168.37" y="156.83" width="17.17" height="17.17"/>
  <rect class="cls-1" x="191.42" y="156.83" width="17.17" height="17.17"/>
  <rect class="cls-1" x="214.47" y="156.83" width="17.17" height="17.17"/>
  <rect class="cls-1" x="237.52" y="156.83" width="17.17" height="17.17"/>
  <rect class="cls-1" x="260.57" y="156.83" width="17.17" height="17.17"/>
  <rect class="cls-1" x="283.63" y="156.83" width="17.17" height="17.17"/>
  <rect class="cls-1" x="306.68" y="156.83" width="17.17" height="17.17"/>
  <rect class="cls-1" x="329.73" y="156.83" width="17.17" height="17.17"/>
  <rect class="cls-1" x="352.78" y="156.83" width="17.17" height="17.17"/>
  <rect class="cls-1" x="375.83" y="133.78" width="17.17" height="17.17"/>
  <rect class="cls-1" x="30.07" y="156.83" width="17.17" height="17.17"/>
  <rect class="cls-1" x="53.12" y="179.88" width="17.17" height="17.17"/>
  <rect class="cls-1" x="76.17" y="179.88" width="17.17" height="17.17"/>
  <rect class="cls-1" x="99.22" y="179.88" width="17.17" height="17.17"/>
  <rect class="cls-1" x="122.27" y="179.88" width="17.17" height="17.17"/>
  <rect class="cls-1" x="145.32" y="179.88" width="17.17" height="17.17"/>
  <rect class="cls-1" x="168.37" y="179.88" width="17.17" height="17.17"/>
  <rect class="cls-1" x="191.42" y="179.88" width="17.17" height="17.17"/>
  <rect class="cls-1" x="214.47" y="179.88" width="17.17" height="17.17"/>
  <rect class="cls-1" x="237.52" y="179.88" width="17.17" height="17.17"/>
  <rect class="cls-1" x="260.57" y="179.88" width="17.17" height="17.17"/>
  <rect class="cls-1" x="283.63" y="179.88" width="17.17" height="17.17"/>
  <rect class="cls-1" x="306.68" y="179.88" width="17.17" height="17.17"/>
  <rect class="cls-1" x="329.73" y="179.88" width="17.17" height="17.17"/>
  <rect class="cls-1" x="76.17" y="202.93" width="17.17" height="17.17"/>
  <rect class="cls-1" x="99.22" y="202.93" width="17.17" height="17.17"/>
  <rect class="cls-1" x="122.27" y="202.93" width="17.17" height="17.17"/>
  <rect class="cls-1" x="145.32" y="202.93" width="17.17" height="17.17"/>
  <rect class="cls-1" x="168.37" y="202.93" width="17.17" height="17.17"/>
  <rect class="cls-1" x="191.42" y="202.93" width="17.17" height="17.17"/>
  <rect class="cls-1" x="214.47" y="202.93" width="17.17" height="17.17"/>
  <rect class="cls-1" x="237.52" y="202.93" width="17.17" height="17.17"/>
  <rect class="cls-1" x="260.57" y="202.93" width="17.17" height="17.17"/>
  <rect class="cls-1" x="283.63" y="202.93" width="17.17" height="17.17"/>
  <rect class="cls-1" x="306.68" y="202.93" width="17.17" height="17.17"/>
  <rect class="cls-1" x="99.22" y="226" width="17.17" height="17.17"/>
  <rect class="cls-1" x="122.27" y="226" width="17.17" height="17.17"/>
  <rect class="cls-1" x="145.32" y="226" width="17.17" height="17.17"/>
  <rect class="cls-1" x="168.37" y="226" width="17.17" height="17.17"/>
  <rect class="cls-1" x="191.42" y="226" width="17.17" height="17.17"/>
  <rect class="cls-1" x="214.47" y="226" width="17.17" height="17.17"/>
  <rect class="cls-1" x="237.52" y="226" width="17.17" height="17.17"/>
  <rect class="cls-1" x="260.57" y="226" width="17.17" height="17.17"/>
  <rect class="cls-1" x="283.63" y="226" width="17.17" height="17.17"/>
  <rect class="cls-1" x="122.27" y="249.05" width="17.17" height="17.17"/>
  <rect class="cls-1" x="145.32" y="249.05" width="17.17" height="17.17"/>
  <rect class="cls-1" x="168.37" y="249.05" width="17.17" height="17.17"/>
  <rect class="cls-1" x="191.42" y="249.05" width="17.17" height="17.17"/>
  <rect class="cls-1" x="214.47" y="249.05" width="17.17" height="17.17"/>
  <rect class="cls-1" x="237.52" y="249.05" width="17.17" height="17.17"/>
  <rect class="cls-1" x="260.57" y="249.05" width="17.17" height="17.17"/>
  <rect class="cls-1" x="145.32" y="272.1" width="17.17" height="17.17"/>
  <rect class="cls-1" x="168.37" y="272.1" width="17.17" height="17.17"/>
  <rect class="cls-1" x="191.42" y="272.1" width="17.17" height="17.17"/>
  <rect class="cls-1" x="214.47" y="272.1" width="17.17" height="17.17"/>
  <rect class="cls-1" x="237.52" y="272.1" width="17.17" height="17.17"/>
  <rect class="cls-1" x="168.37" y="295.15" width="17.17" height="17.17"/>
  <rect class="cls-1" x="191.42" y="295.15" width="17.17" height="17.17"/>
  <rect class="cls-1" x="214.47" y="295.15" width="17.17" height="17.17"/>
  <rect class="cls-1" x="237.52" y="295.15" width="17.17" height="17.17"/>
  <rect class="cls-1" x="260.57" y="272.1" width="17.17" height="17.17"/>
  <rect class="cls-1" x="283.63" y="249.05" width="17.17" height="17.17"/>
  <rect class="cls-1" x="306.68" y="226" width="17.17" height="17.17"/>
  <rect class="cls-1" x="329.73" y="202.93" width="17.17" height="17.17"/>
  <rect class="cls-1" x="352.78" y="179.88" width="17.17" height="17.17"/>
  <rect class="cls-1" x="30.07" y="179.88" width="17.17" height="17.17"/>
  <rect class="cls-1" x="53.12" y="202.93" width="17.17" height="17.17"/>
  <rect class="cls-1" x="76.14" y="226" width="17.17" height="17.17"/>
  <rect class="cls-1" x="99.19" y="249.05" width="17.17" height="17.17"/>
  <rect class="cls-1" x="122.24" y="272.1" width="17.17" height="17.17"/>
  <rect class="cls-1" x="145.29" y="295.15" width="17.17" height="17.17"/>
  <rect class="cls-1" x="168.36" y="318.17" width="17.17" height="17.17"/>
  <rect class="cls-1" x="214.46" y="318.17" width="17.17" height="17.17"/>
  <rect class="cls-1" x="191.41" y="341.22" width="17.17" height="17.17"/>
  <rect class="cls-1" x="306.66" y="87.71" width="17.17" height="17.17"/>
  <rect class="cls-1" x="191.41" y="110.76" width="17.17" height="17.17"/>
</svg>