<?xml version="1.0" encoding="UTF-8"?>
<svg id="_Слой_1" data-name="Слой 1" xmlns="http://www.w3.org/2000/svg" viewBox="0 0 761.23 400">
  <defs>
    <style>
      .cls-1, .cls-2 {
        stroke-width: 0px;
      }

      .cls-2 {
        fill: #fe5008;
      }
    </style>
  </defs>
  <g>
    <g>
      <rect class="cls-2" x="116.67" y="197.61" width="6.54" height="33.94"/>
      <rect class="cls-2" x="123.24" y="190.36" width="6.57" height="13.84"/>
      <rect class="cls-2" x="123.19" y="218.14" width="6.54" height="6.57"/>
      <rect class="cls-2" x="129.73" y="176.38" width="6.57" height="13.84"/>
      <rect class="cls-2" x="136.28" y="169.86" width="6.57" height="6.57"/>
      <rect class="cls-2" x="142.79" y="163.34" width="6.57" height="6.57"/>
      <rect class="cls-2" x="129.73" y="231.16" width="6.57" height="6.57"/>
      <rect class="cls-2" x="136.23" y="237.58" width="6.57" height="6.57"/>
      <rect class="cls-2" x="142.75" y="244.08" width="6.57" height="6.57"/>
      <rect class="cls-2" x="129.73" y="204.28" width="6.57" height="13.82"/>
      <rect class="cls-2" x="136.18" y="218.14" width="19.63" height="6.57"/>
      <rect class="cls-2" x="168.8" y="197.61" width="6.57" height="33.94"/>
      <rect class="cls-2" x="162.26" y="190.36" width="6.54" height="13.84"/>
      <rect class="cls-2" x="162.31" y="218.14" width="6.57" height="6.57"/>
      <rect class="cls-2" x="155.74" y="176.38" width="6.54" height="13.84"/>
      <rect class="cls-2" x="149.2" y="169.86" width="6.54" height="6.57"/>
      <rect class="cls-2" x="155.74" y="231.16" width="6.54" height="6.57"/>
      <rect class="cls-2" x="149.24" y="237.58" width="6.54" height="6.57"/>
      <rect class="cls-2" x="155.74" y="204.28" width="6.54" height="13.82"/>
      <rect class="cls-2" x="142.82" y="190.22" width="6.57" height="6.57"/>
    </g>
    <g>
      <rect class="cls-2" x="344.82" y="347.42" width="7.35" height="7.35"/>
      <rect class="cls-2" x="337.48" y="340" width="7.35" height="7.35"/>
      <rect class="cls-2" x="330.08" y="332.68" width="7.35" height="7.35"/>
      <rect class="cls-2" x="322.71" y="325.33" width="7.35" height="7.35"/>
      <rect class="cls-2" x="315.39" y="318.08" width="7.35" height="7.35"/>
      <rect class="cls-2" x="308.14" y="310.73" width="7.35" height="7.32"/>
      <rect class="cls-2" x="300.75" y="288.6" width="7.35" height="22.18"/>
      <rect class="cls-2" x="308.14" y="281.14" width="7.35" height="7.35"/>
      <rect class="cls-2" x="315.35" y="273.77" width="22.18" height="7.35"/>
      <rect class="cls-2" x="337.41" y="281.14" width="7.35" height="7.35"/>
      <rect class="cls-2" x="344.71" y="288.41" width="7.35" height="7.35"/>
      <rect class="cls-2" x="352.03" y="340" width="7.35" height="7.35"/>
      <rect class="cls-2" x="359.42" y="332.68" width="7.35" height="7.35"/>
      <rect class="cls-2" x="366.81" y="325.33" width="7.35" height="7.35"/>
      <rect class="cls-2" x="374.11" y="318.08" width="7.35" height="7.35"/>
      <rect class="cls-2" x="381.39" y="310.73" width="7.35" height="7.32"/>
      <rect class="cls-2" x="388.74" y="288.6" width="7.35" height="22.18"/>
      <rect class="cls-2" x="381.39" y="281.14" width="7.35" height="7.35"/>
      <rect class="cls-2" x="359.33" y="273.77" width="22.16" height="7.35"/>
      <rect class="cls-2" x="352.12" y="281.14" width="7.35" height="7.35"/>
    </g>
    <rect class="cls-2" x="565.06" y="265.5" width="6.73" height="6.73"/>
    <rect class="cls-2" x="578.41" y="265.5" width="6.71" height="6.73"/>
    <rect class="cls-2" x="565.14" y="258.82" width="6.71" height="6.73"/>
    <rect class="cls-2" x="571.75" y="258.82" width="6.71" height="6.73"/>
    <rect class="cls-2" x="578.34" y="258.82" width="6.73" height="6.73"/>
    <rect class="cls-2" x="585.05" y="265.52" width="6.71" height="6.73"/>
    <rect class="cls-2" x="591.64" y="265.52" width="6.71" height="6.73"/>
    <rect class="cls-2" x="598.46" y="272.11" width="6.73" height="6.73"/>
    <rect class="cls-2" x="604.89" y="285.46" width="6.73" height="6.73"/>
    <rect class="cls-2" x="604.89" y="278.85" width="6.73" height="6.73"/>
    <rect class="cls-2" x="611.6" y="298.78" width="6.71" height="6.73"/>
    <rect class="cls-2" x="611.6" y="292.17" width="6.71" height="6.73"/>
    <rect class="cls-2" x="611.6" y="305.47" width="6.71" height="6.73"/>
    <rect class="cls-2" x="604.89" y="318.72" width="6.73" height="6.73"/>
    <rect class="cls-2" x="604.89" y="312.1" width="6.73" height="6.73"/>
    <rect class="cls-2" x="598.23" y="325.43" width="6.71" height="6.73"/>
    <rect class="cls-2" x="584.88" y="332.04" width="6.73" height="6.73"/>
    <rect class="cls-2" x="591.5" y="332.04" width="6.73" height="6.73"/>
    <rect class="cls-2" x="565.14" y="338.8" width="6.71" height="6.73"/>
    <rect class="cls-2" x="571.75" y="338.8" width="6.71" height="6.73"/>
    <rect class="cls-2" x="578.34" y="338.8" width="6.73" height="6.73"/>
    <rect class="cls-2" x="558.4" y="265.52" width="6.71" height="6.73"/>
    <rect class="cls-2" x="551.79" y="265.52" width="6.73" height="6.73"/>
    <rect class="cls-2" x="544.99" y="272.11" width="6.71" height="6.73"/>
    <rect class="cls-2" x="538.56" y="285.46" width="6.73" height="6.73"/>
    <rect class="cls-2" x="538.56" y="278.85" width="6.73" height="6.73"/>
    <rect class="cls-2" x="531.83" y="298.78" width="6.73" height="6.73"/>
    <rect class="cls-2" x="531.83" y="292.17" width="6.73" height="6.73"/>
    <rect class="cls-2" x="531.83" y="305.47" width="6.73" height="6.73"/>
    <rect class="cls-2" x="538.44" y="318.72" width="6.73" height="6.73"/>
    <rect class="cls-2" x="538.44" y="312.1" width="6.73" height="6.73"/>
    <rect class="cls-2" x="545.15" y="325.43" width="6.71" height="6.73"/>
    <rect class="cls-2" x="558.4" y="332.04" width="6.71" height="6.73"/>
    <rect class="cls-2" x="551.79" y="332.04" width="6.73" height="6.73"/>
    <rect class="cls-2" x="561.76" y="272.11" width="6.73" height="6.73"/>
    <rect class="cls-2" x="561.76" y="278.78" width="6.73" height="6.73"/>
    <rect class="cls-2" x="558.78" y="285.44" width="6.73" height="6.73"/>
    <rect class="cls-2" x="558.78" y="292.14" width="6.73" height="6.73"/>
    <rect class="cls-2" x="555.55" y="298.85" width="6.71" height="6.73"/>
    <rect class="cls-2" x="561.85" y="318.65" width="6.73" height="6.73"/>
    <rect class="cls-2" x="561.85" y="325.33" width="6.73" height="6.73"/>
    <rect class="cls-2" x="558.78" y="305.42" width="6.73" height="6.73"/>
    <rect class="cls-2" x="558.78" y="312.15" width="6.73" height="6.73"/>
    <rect class="cls-2" x="581.76" y="272.11" width="6.71" height="6.73"/>
    <rect class="cls-2" x="581.76" y="278.78" width="6.71" height="6.73"/>
    <rect class="cls-2" x="584.72" y="285.44" width="6.71" height="6.73"/>
    <rect class="cls-2" x="584.72" y="292.14" width="6.71" height="6.73"/>
    <rect class="cls-2" x="587.95" y="298.85" width="6.73" height="6.73"/>
    <rect class="cls-2" x="581.67" y="318.65" width="6.71" height="6.73"/>
    <rect class="cls-2" x="581.67" y="325.33" width="6.71" height="6.73"/>
    <rect class="cls-2" x="584.72" y="305.42" width="6.71" height="6.73"/>
    <rect class="cls-2" x="584.72" y="312.15" width="6.71" height="6.73"/>
    <rect class="cls-2" x="565.06" y="332.06" width="6.73" height="6.73"/>
    <rect class="cls-2" x="578.41" y="332.06" width="6.71" height="6.73"/>
    <rect class="cls-2" x="565.44" y="288.72" width="6.73" height="6.73"/>
    <rect class="cls-2" x="572.15" y="288.72" width="6.73" height="6.73"/>
    <rect class="cls-2" x="578.81" y="288.72" width="6.73" height="6.73"/>
    <rect class="cls-2" x="552.05" y="285.39" width="6.71" height="6.73"/>
    <rect class="cls-2" x="591.45" y="285.39" width="6.73" height="6.73"/>
    <rect class="cls-2" x="552.05" y="312.06" width="6.71" height="6.73"/>
    <rect class="cls-2" x="591.45" y="312.06" width="6.73" height="6.73"/>
    <rect class="cls-2" x="598.18" y="278.82" width="6.71" height="6.73"/>
    <rect class="cls-2" x="545.32" y="278.82" width="6.71" height="6.73"/>
    <rect class="cls-2" x="598.18" y="318.67" width="6.71" height="6.73"/>
    <rect class="cls-2" x="545.15" y="318.67" width="6.71" height="6.73"/>
    <rect class="cls-2" x="565.44" y="309.34" width="6.73" height="6.73"/>
    <rect class="cls-2" x="572.15" y="309.34" width="6.73" height="6.73"/>
    <rect class="cls-2" x="578.81" y="309.34" width="6.73" height="6.73"/>
    <g>
      <rect class="cls-2" x="28.16" y="280.33" width="45.64" height="5.6"/>
      <rect class="cls-2" x="22.59" y="205.39" width="5.6" height="74.97"/>
      <rect class="cls-2" x="73.92" y="205.39" width="5.6" height="74.97"/>
      <rect class="cls-2" x="28.19" y="199.79" width="45.82" height="5.62"/>
      <rect class="cls-2" x="47.93" y="269.21" width="5.62" height="5.62"/>
      <rect class="cls-2" x="33.48" y="210.7" width="5.62" height="52.65"/>
      <rect class="cls-2" x="33.6" y="210.75" width="34.04" height="5.6"/>
      <rect class="cls-2" x="33.6" y="257.8" width="34.11" height="5.6"/>
      <rect class="cls-2" x="62.08" y="210.7" width="5.65" height="52.65"/>
    </g>
    <g>
      <rect class="cls-2" x="213.14" y="285.74" width="49.86" height="5.65"/>
      <rect class="cls-2" x="207.49" y="210.35" width="5.65" height="75.44"/>
      <rect class="cls-2" x="263.02" y="210.35" width="5.65" height="75.44"/>
      <rect class="cls-2" x="213.11" y="204.72" width="49.7" height="5.65"/>
      <rect class="cls-2" x="218.33" y="272.7" width="5.67" height="5.65"/>
      <rect class="cls-2" x="229.63" y="272.7" width="5.67" height="5.65"/>
      <rect class="cls-2" x="218.33" y="261.08" width="5.67" height="5.65"/>
      <rect class="cls-2" x="229.63" y="261.08" width="5.67" height="5.65"/>
      <rect class="cls-2" x="218.33" y="249.93" width="5.67" height="5.65"/>
      <rect class="cls-2" x="229.63" y="249.93" width="5.67" height="5.65"/>
      <rect class="cls-2" x="241.13" y="249.93" width="5.67" height="5.65"/>
      <rect class="cls-2" x="252.42" y="249.93" width="5.67" height="5.65"/>
      <rect class="cls-2" x="240.7" y="261.08" width="17.41" height="17.34"/>
      <rect class="cls-2" x="218.31" y="240.41" width="39.47" height="5.65"/>
      <rect class="cls-2" x="239.38" y="233.54" width="2.08" height="2.1"/>
      <rect class="cls-2" x="237.28" y="233.54" width="2.1" height="2.1"/>
      <rect class="cls-2" x="235.18" y="233.54" width="2.1" height="2.1"/>
      <rect class="cls-2" x="233.1" y="233.54" width="2.1" height="2.1"/>
      <rect class="cls-2" x="243.56" y="231.44" width="2.1" height="2.1"/>
      <rect class="cls-2" x="241.46" y="231.44" width="2.1" height="2.1"/>
      <rect class="cls-2" x="239.38" y="231.44" width="2.08" height="2.1"/>
      <rect class="cls-2" x="237.28" y="231.44" width="2.1" height="2.1"/>
      <rect class="cls-2" x="235.18" y="231.44" width="2.1" height="2.1"/>
      <rect class="cls-2" x="233.1" y="231.44" width="2.1" height="2.1"/>
      <rect class="cls-2" x="231" y="231.44" width="2.1" height="2.1"/>
      <rect class="cls-2" x="243.56" y="229.34" width="2.1" height="2.1"/>
      <rect class="cls-2" x="241.46" y="229.34" width="2.1" height="2.1"/>
      <rect class="cls-2" x="231" y="229.34" width="2.1" height="2.1"/>
      <rect class="cls-2" x="228.89" y="229.34" width="2.1" height="2.1"/>
      <rect class="cls-2" x="245.66" y="227.28" width="2.1" height="2.08"/>
      <rect class="cls-2" x="243.56" y="227.28" width="2.1" height="2.08"/>
      <rect class="cls-2" x="228.89" y="227.28" width="2.1" height="2.08"/>
      <rect class="cls-2" x="226.79" y="227.28" width="2.1" height="2.08"/>
      <rect class="cls-2" x="245.66" y="225.16" width="2.1" height="2.1"/>
      <rect class="cls-2" x="243.56" y="225.16" width="2.1" height="2.1"/>
      <rect class="cls-2" x="228.89" y="225.16" width="2.1" height="2.1"/>
      <rect class="cls-2" x="226.79" y="225.16" width="2.1" height="2.1"/>
      <rect class="cls-2" x="245.66" y="223.05" width="2.1" height="2.1"/>
      <rect class="cls-2" x="243.56" y="223.05" width="2.1" height="2.1"/>
      <rect class="cls-2" x="228.89" y="223.05" width="2.1" height="2.1"/>
      <rect class="cls-2" x="226.79" y="223.05" width="2.1" height="2.1"/>
      <rect class="cls-2" x="245.66" y="220.97" width="2.1" height="2.08"/>
      <rect class="cls-2" x="243.56" y="220.97" width="2.1" height="2.08"/>
      <rect class="cls-2" x="228.89" y="220.97" width="2.1" height="2.08"/>
      <rect class="cls-2" x="226.79" y="220.97" width="2.1" height="2.08"/>
      <rect class="cls-2" x="243.56" y="218.87" width="2.1" height="2.1"/>
      <rect class="cls-2" x="241.46" y="218.87" width="2.1" height="2.1"/>
      <rect class="cls-2" x="231" y="218.87" width="2.1" height="2.1"/>
      <rect class="cls-2" x="228.89" y="218.87" width="2.1" height="2.1"/>
      <rect class="cls-2" x="243.56" y="216.77" width="2.1" height="2.1"/>
      <rect class="cls-2" x="241.46" y="216.77" width="2.1" height="2.1"/>
      <rect class="cls-2" x="239.38" y="216.77" width="2.08" height="2.1"/>
      <rect class="cls-2" x="237.28" y="216.77" width="2.1" height="2.1"/>
      <rect class="cls-2" x="235.18" y="216.77" width="2.1" height="2.1"/>
      <rect class="cls-2" x="233.1" y="216.77" width="2.1" height="2.1"/>
      <rect class="cls-2" x="231" y="216.77" width="2.1" height="2.1"/>
      <rect class="cls-2" x="239.38" y="214.67" width="2.08" height="2.1"/>
      <rect class="cls-2" x="237.28" y="214.67" width="2.1" height="2.1"/>
      <rect class="cls-2" x="235.18" y="214.67" width="2.1" height="2.1"/>
      <rect class="cls-2" x="233.1" y="214.67" width="2.1" height="2.1"/>
    </g>
    <rect class="cls-2" x="656.95" y="266.61" width="4.16" height="4.16"/>
    <rect class="cls-2" x="652.82" y="262.43" width="4.16" height="4.16"/>
    <rect class="cls-2" x="723.35" y="266.61" width="4.16" height="4.16"/>
    <rect class="cls-2" x="727.48" y="262.43" width="4.16" height="4.16"/>
    <rect class="cls-2" x="661.08" y="270.72" width="62.34" height="4.16"/>
    <rect class="cls-2" x="656.95" y="214.01" width="4.16" height="4.16"/>
    <rect class="cls-2" x="652.82" y="218.19" width="4.16" height="48.26"/>
    <rect class="cls-2" x="723.35" y="214.01" width="4.16" height="4.16"/>
    <rect class="cls-2" x="727.48" y="218.19" width="4.16" height="48.26"/>
    <rect class="cls-2" x="661.08" y="209.9" width="62.34" height="4.16"/>
    <rect class="cls-2" x="648.66" y="202.76" width="4.16" height="4.16"/>
    <rect class="cls-2" x="652.74" y="198.56" width="78.87" height="4.16"/>
    <rect class="cls-2" x="644.52" y="206.87" width="4.16" height="4.16"/>
    <rect class="cls-2" x="731.66" y="202.76" width="4.16" height="4.16"/>
    <rect class="cls-2" x="735.82" y="206.87" width="4.18" height="4.16"/>
    <rect class="cls-2" x="648.66" y="277.78" width="4.16" height="4.16"/>
    <rect class="cls-2" x="652.74" y="281.99" width="78.87" height="4.16"/>
    <rect class="cls-2" x="644.52" y="206.76" width="4.16" height="71.08"/>
    <rect class="cls-2" x="731.66" y="277.78" width="4.16" height="4.16"/>
    <rect class="cls-2" x="735.82" y="206.76" width="4.18" height="71.08"/>
    <polygon class="cls-2" points="665.53 228.78 688.13 228.78 688.13 233.3 679.09 233.3 679.09 255.9 674.57 255.9 674.57 233.3 665.53 233.3 665.53 228.78"/>
    <path class="cls-2" d="m692.66,228.79h4.51v18.09h-4.51v-18.09Zm4.51,18.07h4.51v4.51h-4.51v-4.51Zm4.51,4.54h4.51v4.51h-4.51v-4.51Zm4.54-4.54h4.51v4.51h-4.51v-4.51Zm4.51-18.07h4.51v18.09h-4.51v-18.09Z"/>
    <g>
      <rect class="cls-2" x="431.04" y="333.43" width="7.89" height="48.94"/>
      <rect class="cls-2" x="485.82" y="333.43" width="7.87" height="48.94"/>
      <rect class="cls-2" x="431.04" y="325.71" width="7.89" height="7.72"/>
      <rect class="cls-2" x="423.15" y="333.41" width="7.87" height="7.72"/>
      <rect class="cls-2" x="438.88" y="318.08" width="7.87" height="7.72"/>
      <rect class="cls-2" x="446.72" y="310.38" width="7.87" height="7.72"/>
      <rect class="cls-2" x="454.61" y="302.75" width="7.87" height="7.72"/>
      <rect class="cls-2" x="462.48" y="302.75" width="7.89" height="7.72"/>
      <rect class="cls-2" x="485.84" y="325.71" width="7.89" height="7.72"/>
      <rect class="cls-2" x="493.75" y="333.41" width="7.87" height="7.72"/>
      <rect class="cls-2" x="478.05" y="294.81" width="7.87" height="30.99"/>
      <rect class="cls-2" x="470.2" y="310.38" width="7.87" height="7.72"/>
      <rect class="cls-2" x="431.02" y="374.49" width="60.75" height="7.72"/>
      <rect class="cls-2" x="450.03" y="347.18" width="7.89" height="27.38"/>
      <rect class="cls-2" x="465.55" y="347.18" width="7.89" height="27.38"/>
      <rect class="cls-2" x="450.03" y="347.18" width="20.62" height="7.63"/>
      <rect class="cls-2" x="457.57" y="326.02" width="7.89" height="7.72"/>
    </g>
  </g>
  <g>
    <rect class="cls-1" x="577.71" y="146.17" width="6.57" height="33.94"/>
    <rect class="cls-1" x="584.3" y="138.92" width="6.54" height="13.82"/>
    <rect class="cls-1" x="584.23" y="166.67" width="6.57" height="6.57"/>
    <rect class="cls-1" x="590.8" y="124.93" width="6.54" height="13.82"/>
    <rect class="cls-1" x="597.34" y="118.41" width="6.54" height="6.57"/>
    <rect class="cls-1" x="603.86" y="111.89" width="6.54" height="6.57"/>
    <rect class="cls-1" x="590.8" y="179.69" width="6.54" height="6.57"/>
    <rect class="cls-1" x="597.32" y="186.11" width="6.54" height="6.57"/>
    <rect class="cls-1" x="603.81" y="192.61" width="6.54" height="6.57"/>
    <rect class="cls-1" x="590.8" y="152.81" width="6.54" height="13.82"/>
    <rect class="cls-1" x="597.22" y="166.67" width="19.63" height="6.57"/>
    <rect class="cls-1" x="629.87" y="146.17" width="6.54" height="33.94"/>
    <rect class="cls-1" x="623.3" y="138.92" width="6.57" height="13.82"/>
    <rect class="cls-1" x="623.37" y="166.67" width="6.54" height="6.57"/>
    <rect class="cls-1" x="616.78" y="124.93" width="6.57" height="13.82"/>
    <rect class="cls-1" x="610.24" y="118.41" width="6.57" height="6.57"/>
    <rect class="cls-1" x="616.78" y="179.69" width="6.57" height="6.57"/>
    <rect class="cls-1" x="610.29" y="186.11" width="6.57" height="6.57"/>
    <rect class="cls-1" x="616.78" y="152.81" width="6.57" height="13.82"/>
    <rect class="cls-1" x="603.88" y="138.75" width="6.54" height="6.57"/>
    <rect class="cls-1" x="275.7" y="138.56" width="7.35" height="7.35"/>
    <rect class="cls-1" x="268.38" y="131.17" width="7.35" height="7.35"/>
    <rect class="cls-1" x="260.96" y="123.85" width="7.35" height="7.35"/>
    <rect class="cls-1" x="253.61" y="116.5" width="7.35" height="7.35"/>
    <rect class="cls-1" x="246.29" y="109.25" width="7.35" height="7.35"/>
    <rect class="cls-1" x="239.04" y="101.88" width="7.35" height="7.35"/>
    <rect class="cls-1" x="231.64" y="79.77" width="7.35" height="22.18"/>
    <rect class="cls-1" x="239.04" y="72.31" width="7.35" height="7.35"/>
    <rect class="cls-1" x="246.24" y="64.94" width="22.18" height="7.35"/>
    <rect class="cls-1" x="268.3" y="72.31" width="7.35" height="7.35"/>
    <rect class="cls-1" x="275.6" y="79.58" width="7.35" height="7.35"/>
    <rect class="cls-1" x="282.95" y="131.17" width="7.35" height="7.35"/>
    <rect class="cls-1" x="290.32" y="123.85" width="7.35" height="7.35"/>
    <rect class="cls-1" x="297.71" y="116.5" width="7.35" height="7.35"/>
    <rect class="cls-1" x="305.01" y="109.25" width="7.35" height="7.35"/>
    <rect class="cls-1" x="312.29" y="101.88" width="7.35" height="7.35"/>
    <rect class="cls-1" x="319.66" y="79.77" width="7.35" height="22.18"/>
    <rect class="cls-1" x="312.29" y="72.31" width="7.35" height="7.35"/>
    <rect class="cls-1" x="290.22" y="64.94" width="22.18" height="7.35"/>
    <rect class="cls-1" x="283.02" y="72.31" width="7.35" height="7.35"/>
    <rect class="cls-1" x="148.19" y="24.31" width="6.73" height="6.73"/>
    <rect class="cls-1" x="161.51" y="24.31" width="6.71" height="6.73"/>
    <rect class="cls-1" x="148.26" y="17.62" width="6.71" height="6.73"/>
    <rect class="cls-1" x="154.85" y="17.62" width="6.73" height="6.73"/>
    <rect class="cls-1" x="161.44" y="17.62" width="6.73" height="6.73"/>
    <rect class="cls-1" x="168.15" y="24.33" width="6.71" height="6.73"/>
    <rect class="cls-1" x="174.77" y="24.33" width="6.73" height="6.73"/>
    <rect class="cls-1" x="181.59" y="30.9" width="6.71" height="6.73"/>
    <rect class="cls-1" x="187.99" y="44.27" width="6.73" height="6.71"/>
    <rect class="cls-1" x="187.99" y="37.65" width="6.73" height="6.73"/>
    <rect class="cls-1" x="194.7" y="57.59" width="6.73" height="6.73"/>
    <rect class="cls-1" x="194.7" y="50.98" width="6.73" height="6.73"/>
    <rect class="cls-1" x="194.7" y="64.28" width="6.73" height="6.73"/>
    <rect class="cls-1" x="187.99" y="77.5" width="6.73" height="6.73"/>
    <rect class="cls-1" x="187.99" y="70.94" width="6.73" height="6.71"/>
    <rect class="cls-1" x="181.33" y="84.21" width="6.73" height="6.73"/>
    <rect class="cls-1" x="168.01" y="90.85" width="6.73" height="6.73"/>
    <rect class="cls-1" x="174.62" y="90.85" width="6.71" height="6.73"/>
    <rect class="cls-1" x="148.26" y="97.58" width="6.71" height="6.73"/>
    <rect class="cls-1" x="154.85" y="97.58" width="6.73" height="6.73"/>
    <rect class="cls-1" x="161.44" y="97.58" width="6.73" height="6.73"/>
    <rect class="cls-1" x="141.51" y="24.33" width="6.71" height="6.73"/>
    <rect class="cls-1" x="134.89" y="24.33" width="6.73" height="6.73"/>
    <rect class="cls-1" x="128.09" y="30.9" width="6.73" height="6.73"/>
    <rect class="cls-1" x="121.69" y="44.27" width="6.71" height="6.71"/>
    <rect class="cls-1" x="121.69" y="37.65" width="6.71" height="6.73"/>
    <rect class="cls-1" x="114.93" y="57.59" width="6.73" height="6.73"/>
    <rect class="cls-1" x="114.93" y="50.98" width="6.73" height="6.73"/>
    <rect class="cls-1" x="114.93" y="64.28" width="6.73" height="6.73"/>
    <rect class="cls-1" x="121.57" y="77.5" width="6.73" height="6.73"/>
    <rect class="cls-1" x="121.57" y="70.94" width="6.73" height="6.71"/>
    <rect class="cls-1" x="128.28" y="84.21" width="6.71" height="6.73"/>
    <rect class="cls-1" x="141.51" y="90.85" width="6.71" height="6.73"/>
    <rect class="cls-1" x="134.89" y="90.85" width="6.73" height="6.73"/>
    <rect class="cls-1" x="144.86" y="30.9" width="6.73" height="6.73"/>
    <rect class="cls-1" x="144.86" y="37.58" width="6.73" height="6.73"/>
    <rect class="cls-1" x="141.91" y="44.24" width="6.71" height="6.73"/>
    <rect class="cls-1" x="141.91" y="50.95" width="6.71" height="6.73"/>
    <rect class="cls-1" x="138.65" y="57.64" width="6.73" height="6.73"/>
    <rect class="cls-1" x="144.96" y="77.48" width="6.73" height="6.71"/>
    <rect class="cls-1" x="144.96" y="84.12" width="6.73" height="6.73"/>
    <rect class="cls-1" x="141.91" y="64.23" width="6.71" height="6.73"/>
    <rect class="cls-1" x="141.91" y="70.94" width="6.71" height="6.73"/>
    <rect class="cls-1" x="164.87" y="30.9" width="6.73" height="6.73"/>
    <rect class="cls-1" x="164.87" y="37.58" width="6.73" height="6.73"/>
    <rect class="cls-1" x="167.85" y="44.24" width="6.71" height="6.73"/>
    <rect class="cls-1" x="167.85" y="50.95" width="6.71" height="6.73"/>
    <rect class="cls-1" x="171.06" y="57.64" width="6.73" height="6.73"/>
    <rect class="cls-1" x="164.77" y="77.48" width="6.73" height="6.71"/>
    <rect class="cls-1" x="164.77" y="84.12" width="6.73" height="6.73"/>
    <rect class="cls-1" x="167.85" y="64.23" width="6.71" height="6.73"/>
    <rect class="cls-1" x="167.85" y="70.94" width="6.71" height="6.73"/>
    <rect class="cls-1" x="148.19" y="90.85" width="6.73" height="6.73"/>
    <rect class="cls-1" x="161.51" y="90.85" width="6.71" height="6.73"/>
    <rect class="cls-1" x="148.57" y="47.55" width="6.71" height="6.71"/>
    <rect class="cls-1" x="155.26" y="47.55" width="6.73" height="6.71"/>
    <rect class="cls-1" x="161.94" y="47.55" width="6.73" height="6.71"/>
    <rect class="cls-1" x="135.15" y="44.2" width="6.71" height="6.73"/>
    <rect class="cls-1" x="174.6" y="44.2" width="6.71" height="6.73"/>
    <rect class="cls-1" x="135.15" y="70.87" width="6.71" height="6.73"/>
    <rect class="cls-1" x="174.6" y="70.87" width="6.71" height="6.73"/>
    <rect class="cls-1" x="181.29" y="37.63" width="6.71" height="6.73"/>
    <rect class="cls-1" x="128.45" y="37.63" width="6.73" height="6.73"/>
    <rect class="cls-1" x="181.29" y="77.48" width="6.71" height="6.73"/>
    <rect class="cls-1" x="128.45" y="77.48" width="6.73" height="6.73"/>
    <rect class="cls-1" x="148.57" y="68.15" width="6.71" height="6.73"/>
    <rect class="cls-1" x="155.26" y="68.15" width="6.73" height="6.73"/>
    <rect class="cls-1" x="161.94" y="68.15" width="6.73" height="6.73"/>
    <rect class="cls-1" x="485.83" y="230.61" width="45.64" height="5.62"/>
    <rect class="cls-1" x="480.23" y="155.69" width="5.6" height="74.97"/>
    <rect class="cls-1" x="531.53" y="155.69" width="5.62" height="74.97"/>
    <rect class="cls-1" x="485.85" y="150.11" width="45.8" height="5.62"/>
    <rect class="cls-1" x="505.58" y="219.53" width="5.65" height="5.6"/>
    <rect class="cls-1" x="491.1" y="161" width="5.65" height="52.65"/>
    <rect class="cls-1" x="491.21" y="161.05" width="34.04" height="5.62"/>
    <rect class="cls-1" x="491.21" y="208.1" width="34.13" height="5.62"/>
    <rect class="cls-1" x="519.72" y="161" width="5.62" height="52.65"/>
    <rect class="cls-1" x="673.54" y="144.94" width="49.86" height="5.65"/>
    <rect class="cls-1" x="667.9" y="69.54" width="5.65" height="75.44"/>
    <rect class="cls-1" x="723.43" y="69.54" width="5.65" height="75.44"/>
    <rect class="cls-1" x="673.52" y="63.92" width="49.7" height="5.65"/>
    <rect class="cls-1" x="678.74" y="131.9" width="5.67" height="5.65"/>
    <rect class="cls-1" x="690.03" y="131.9" width="5.67" height="5.65"/>
    <rect class="cls-1" x="678.74" y="120.28" width="5.67" height="5.65"/>
    <rect class="cls-1" x="690.03" y="120.28" width="5.67" height="5.65"/>
    <rect class="cls-1" x="678.74" y="109.13" width="5.67" height="5.65"/>
    <rect class="cls-1" x="690.03" y="109.13" width="5.67" height="5.65"/>
    <rect class="cls-1" x="701.53" y="109.13" width="5.67" height="5.65"/>
    <rect class="cls-1" x="712.82" y="109.13" width="5.67" height="5.65"/>
    <rect class="cls-1" x="701.11" y="120.28" width="17.41" height="17.34"/>
    <rect class="cls-1" x="678.72" y="99.61" width="39.47" height="5.65"/>
    <rect class="cls-1" x="699.79" y="92.74" width="2.08" height="2.1"/>
    <rect class="cls-1" x="697.68" y="92.74" width="2.1" height="2.1"/>
    <rect class="cls-1" x="695.58" y="92.74" width="2.1" height="2.1"/>
    <rect class="cls-1" x="693.48" y="92.74" width="2.1" height="2.1"/>
    <rect class="cls-1" x="703.97" y="90.64" width="2.1" height="2.1"/>
    <rect class="cls-1" x="701.86" y="90.64" width="2.1" height="2.1"/>
    <rect class="cls-1" x="699.79" y="90.64" width="2.08" height="2.1"/>
    <rect class="cls-1" x="697.68" y="90.64" width="2.1" height="2.1"/>
    <rect class="cls-1" x="695.58" y="90.64" width="2.1" height="2.1"/>
    <rect class="cls-1" x="693.48" y="90.64" width="2.1" height="2.1"/>
    <rect class="cls-1" x="691.4" y="90.64" width="2.1" height="2.1"/>
    <rect class="cls-1" x="703.97" y="88.56" width="2.1" height="2.08"/>
    <rect class="cls-1" x="701.86" y="88.56" width="2.1" height="2.08"/>
    <rect class="cls-1" x="691.4" y="88.56" width="2.1" height="2.08"/>
    <rect class="cls-1" x="689.3" y="88.56" width="2.1" height="2.08"/>
    <rect class="cls-1" x="706.07" y="86.45" width="2.1" height="2.1"/>
    <rect class="cls-1" x="703.97" y="86.45" width="2.1" height="2.1"/>
    <rect class="cls-1" x="689.3" y="86.45" width="2.1" height="2.1"/>
    <rect class="cls-1" x="687.2" y="86.45" width="2.1" height="2.1"/>
    <rect class="cls-1" x="706.07" y="84.35" width="2.1" height="2.1"/>
    <rect class="cls-1" x="703.97" y="84.35" width="2.1" height="2.1"/>
    <rect class="cls-1" x="689.3" y="84.35" width="2.1" height="2.1"/>
    <rect class="cls-1" x="687.2" y="84.35" width="2.1" height="2.1"/>
    <rect class="cls-1" x="706.07" y="82.25" width="2.1" height="2.1"/>
    <rect class="cls-1" x="703.97" y="82.25" width="2.1" height="2.1"/>
    <rect class="cls-1" x="689.3" y="82.25" width="2.1" height="2.1"/>
    <rect class="cls-1" x="687.2" y="82.25" width="2.1" height="2.1"/>
    <rect class="cls-1" x="706.07" y="80.19" width="2.1" height="2.08"/>
    <rect class="cls-1" x="703.97" y="80.19" width="2.1" height="2.08"/>
    <rect class="cls-1" x="689.3" y="80.19" width="2.1" height="2.08"/>
    <rect class="cls-1" x="687.2" y="80.19" width="2.1" height="2.08"/>
    <rect class="cls-1" x="703.97" y="78.07" width="2.1" height="2.1"/>
    <rect class="cls-1" x="701.86" y="78.07" width="2.1" height="2.1"/>
    <rect class="cls-1" x="691.4" y="78.07" width="2.1" height="2.1"/>
    <rect class="cls-1" x="689.3" y="78.07" width="2.1" height="2.1"/>
    <rect class="cls-1" x="703.97" y="75.97" width="2.1" height="2.1"/>
    <rect class="cls-1" x="701.86" y="75.97" width="2.1" height="2.1"/>
    <rect class="cls-1" x="699.79" y="75.97" width="2.08" height="2.1"/>
    <rect class="cls-1" x="697.68" y="75.97" width="2.1" height="2.1"/>
    <rect class="cls-1" x="695.58" y="75.97" width="2.1" height="2.1"/>
    <rect class="cls-1" x="693.48" y="75.97" width="2.1" height="2.1"/>
    <rect class="cls-1" x="691.4" y="75.97" width="2.1" height="2.1"/>
    <rect class="cls-1" x="699.79" y="73.87" width="2.08" height="2.1"/>
    <rect class="cls-1" x="697.68" y="73.87" width="2.1" height="2.1"/>
    <rect class="cls-1" x="695.58" y="73.87" width="2.1" height="2.1"/>
    <rect class="cls-1" x="693.48" y="73.87" width="2.1" height="2.1"/>
    <rect class="cls-1" x="356.5" y="190.72" width="4.18" height="4.16"/>
    <rect class="cls-1" x="352.37" y="186.56" width="4.16" height="4.16"/>
    <rect class="cls-1" x="422.9" y="190.72" width="4.16" height="4.16"/>
    <rect class="cls-1" x="427.04" y="186.56" width="4.18" height="4.16"/>
    <rect class="cls-1" x="360.64" y="194.85" width="62.36" height="4.16"/>
    <rect class="cls-1" x="356.5" y="138.14" width="4.18" height="4.16"/>
    <rect class="cls-1" x="352.37" y="142.32" width="4.16" height="48.26"/>
    <rect class="cls-1" x="422.9" y="138.14" width="4.16" height="4.16"/>
    <rect class="cls-1" x="427.04" y="142.32" width="4.18" height="48.26"/>
    <rect class="cls-1" x="360.64" y="134.03" width="62.36" height="4.16"/>
    <rect class="cls-1" x="348.21" y="126.87" width="4.16" height="4.16"/>
    <rect class="cls-1" x="352.3" y="122.69" width="78.87" height="4.16"/>
    <rect class="cls-1" x="344.06" y="131" width="4.16" height="4.16"/>
    <rect class="cls-1" x="431.22" y="126.87" width="4.18" height="4.16"/>
    <rect class="cls-1" x="435.37" y="131" width="4.16" height="4.16"/>
    <rect class="cls-1" x="348.21" y="201.91" width="4.16" height="4.16"/>
    <rect class="cls-1" x="352.3" y="206.12" width="78.87" height="4.16"/>
    <rect class="cls-1" x="344.06" y="130.86" width="4.16" height="71.08"/>
    <rect class="cls-1" x="431.22" y="201.91" width="4.18" height="4.16"/>
    <rect class="cls-1" x="435.37" y="130.86" width="4.16" height="71.08"/>
    <polygon class="cls-1" points="365.08 152.9 387.69 152.9 387.69 157.42 378.64 157.42 378.64 180.05 374.13 180.05 374.13 157.42 365.08 157.42 365.08 152.9"/>
    <path class="cls-1" d="m392.22,152.9h4.51v18.09h-4.51v-18.09Zm4.51,18.09h4.51v4.53h-4.51v-4.53Zm4.51,4.53h4.51v4.51h-4.51v-4.51Zm4.53-4.53h4.51v4.53h-4.51v-4.53Zm4.51-18.09h4.51v18.09h-4.51v-18.09Z"/>
    <path class="cls-1" d="m21.23,133.48h9.59v9.59h-9.59v-9.59Zm9.61-9.61h9.61v9.61h-9.61v-9.61Z"/>
    <path class="cls-1" d="m40.39,114.3h9.59v9.59h-9.59v-9.59Zm9.59-9.61h9.61v9.61h-9.61v-9.61Z"/>
    <path class="cls-1" d="m21.23,123.85h9.59v9.61h-9.59v-9.61Zm9.61-9.59h9.61v9.59h-9.61v-9.59Z"/>
    <path class="cls-1" d="m40.39,104.67h9.59v9.61h-9.59v-9.61Zm9.59-9.59h9.61v9.59h-9.61v-9.59Z"/>
    <path class="cls-1" d="m88.27,143.07h-9.61v-9.59h9.61v9.59Zm-9.61-9.59h-9.59v-9.61h9.59v9.61Z"/>
    <path class="cls-1" d="m69.11,123.89h-9.59v-9.59h9.59v9.59Zm-9.59-9.59h-9.59v-9.61h9.59v9.61Z"/>
    <path class="cls-1" d="m88.27,133.46h-9.61v-9.61h9.61v9.61Zm-9.61-9.61h-9.59v-9.59h9.59v9.59Z"/>
    <path class="cls-1" d="m69.11,114.28h-9.59v-9.61h9.59v9.61Zm-9.59-9.61h-9.59v-9.59h9.59v9.59Z"/>
    <path class="cls-1" d="m21.23,94.13h9.59v9.59h-9.59v-9.59Zm9.61-9.59h9.61v9.61h-9.61v-9.61Z"/>
    <path class="cls-1" d="m40.39,74.95h9.59v9.59h-9.59v-9.59Zm9.59-9.59h9.61v9.61h-9.61v-9.61Z"/>
    <path class="cls-1" d="m21.23,84.52h9.59v9.61h-9.59v-9.61Zm9.61-9.61h9.61v9.59h-9.61v-9.59Z"/>
    <path class="cls-1" d="m40.39,65.34h9.59v9.61h-9.59v-9.61Zm9.59-9.61h9.61v9.59h-9.61v-9.59Z"/>
    <path class="cls-1" d="m88.27,103.75h-9.61v-9.59h9.61v9.59Zm-9.61-9.61h-9.59v-9.61h9.59v9.61Z"/>
    <path class="cls-1" d="m69.11,84.56h-9.59v-9.59h9.59v9.59Zm-9.59-9.61h-9.59v-9.61h9.59v9.61Z"/>
    <path class="cls-1" d="m88.27,94.11h-9.61v-9.61h9.61v9.61Zm-9.61-9.59h-9.59v-9.59h9.59v9.59Z"/>
    <path class="cls-1" d="m69.11,74.93h-9.59v-9.61h9.59v9.61Zm-9.59-9.59h-9.59v-9.59h9.59v9.59Z"/>
    <rect class="cls-1" x="577.71" y="146.17" width="6.57" height="33.94"/>
    <rect class="cls-1" x="584.3" y="138.92" width="6.54" height="13.82"/>
    <rect class="cls-1" x="584.23" y="166.67" width="6.57" height="6.57"/>
    <rect class="cls-1" x="590.8" y="124.93" width="6.54" height="13.82"/>
    <rect class="cls-1" x="597.34" y="118.41" width="6.54" height="6.57"/>
    <rect class="cls-1" x="603.86" y="111.89" width="6.54" height="6.57"/>
    <rect class="cls-1" x="590.8" y="179.69" width="6.54" height="6.57"/>
    <rect class="cls-1" x="597.32" y="186.11" width="6.54" height="6.57"/>
    <rect class="cls-1" x="603.81" y="192.61" width="6.54" height="6.57"/>
    <rect class="cls-1" x="590.8" y="152.81" width="6.54" height="13.82"/>
    <rect class="cls-1" x="597.22" y="166.67" width="19.63" height="6.57"/>
    <rect class="cls-1" x="629.87" y="146.17" width="6.54" height="33.94"/>
    <rect class="cls-1" x="623.3" y="138.92" width="6.57" height="13.82"/>
    <rect class="cls-1" x="623.37" y="166.67" width="6.54" height="6.57"/>
    <rect class="cls-1" x="616.78" y="124.93" width="6.57" height="13.82"/>
    <rect class="cls-1" x="610.24" y="118.41" width="6.57" height="6.57"/>
    <rect class="cls-1" x="616.78" y="179.69" width="6.57" height="6.57"/>
    <rect class="cls-1" x="610.29" y="186.11" width="6.57" height="6.57"/>
    <rect class="cls-1" x="616.78" y="152.81" width="6.57" height="13.82"/>
    <rect class="cls-1" x="603.88" y="138.75" width="6.54" height="6.57"/>
    <rect class="cls-1" x="275.7" y="138.56" width="7.35" height="7.35"/>
    <rect class="cls-1" x="268.38" y="131.17" width="7.35" height="7.35"/>
    <rect class="cls-1" x="260.96" y="123.85" width="7.35" height="7.35"/>
    <rect class="cls-1" x="253.61" y="116.5" width="7.35" height="7.35"/>
    <rect class="cls-1" x="246.29" y="109.25" width="7.35" height="7.35"/>
    <rect class="cls-1" x="239.04" y="101.88" width="7.35" height="7.35"/>
    <rect class="cls-1" x="231.64" y="79.77" width="7.35" height="22.18"/>
    <rect class="cls-1" x="239.04" y="72.31" width="7.35" height="7.35"/>
    <rect class="cls-1" x="246.24" y="64.94" width="22.18" height="7.35"/>
    <rect class="cls-1" x="268.3" y="72.31" width="7.35" height="7.35"/>
    <rect class="cls-1" x="275.6" y="79.58" width="7.35" height="7.35"/>
    <rect class="cls-1" x="282.95" y="131.17" width="7.35" height="7.35"/>
    <rect class="cls-1" x="290.32" y="123.85" width="7.35" height="7.35"/>
    <rect class="cls-1" x="297.71" y="116.5" width="7.35" height="7.35"/>
    <rect class="cls-1" x="305.01" y="109.25" width="7.35" height="7.35"/>
    <rect class="cls-1" x="312.29" y="101.88" width="7.35" height="7.35"/>
    <rect class="cls-1" x="319.66" y="79.77" width="7.35" height="22.18"/>
    <rect class="cls-1" x="312.29" y="72.31" width="7.35" height="7.35"/>
    <rect class="cls-1" x="290.22" y="64.94" width="22.18" height="7.35"/>
    <rect class="cls-1" x="283.02" y="72.31" width="7.35" height="7.35"/>
    <rect class="cls-1" x="148.19" y="24.31" width="6.73" height="6.73"/>
    <rect class="cls-1" x="161.51" y="24.31" width="6.71" height="6.73"/>
    <rect class="cls-1" x="148.26" y="17.62" width="6.71" height="6.73"/>
    <rect class="cls-1" x="154.85" y="17.62" width="6.73" height="6.73"/>
    <rect class="cls-1" x="161.44" y="17.62" width="6.73" height="6.73"/>
    <rect class="cls-1" x="168.15" y="24.33" width="6.71" height="6.73"/>
    <rect class="cls-1" x="174.77" y="24.33" width="6.73" height="6.73"/>
    <rect class="cls-1" x="181.59" y="30.9" width="6.71" height="6.73"/>
    <rect class="cls-1" x="187.99" y="44.27" width="6.73" height="6.71"/>
    <rect class="cls-1" x="187.99" y="37.65" width="6.73" height="6.73"/>
    <rect class="cls-1" x="194.7" y="57.59" width="6.73" height="6.73"/>
    <rect class="cls-1" x="194.7" y="50.98" width="6.73" height="6.73"/>
    <rect class="cls-1" x="194.7" y="64.28" width="6.73" height="6.73"/>
    <rect class="cls-1" x="187.99" y="77.5" width="6.73" height="6.73"/>
    <rect class="cls-1" x="187.99" y="70.94" width="6.73" height="6.71"/>
    <rect class="cls-1" x="181.33" y="84.21" width="6.73" height="6.73"/>
    <rect class="cls-1" x="168.01" y="90.85" width="6.73" height="6.73"/>
    <rect class="cls-1" x="174.62" y="90.85" width="6.71" height="6.73"/>
    <rect class="cls-1" x="148.26" y="97.58" width="6.71" height="6.73"/>
    <rect class="cls-1" x="154.85" y="97.58" width="6.73" height="6.73"/>
    <rect class="cls-1" x="161.44" y="97.58" width="6.73" height="6.73"/>
    <rect class="cls-1" x="141.51" y="24.33" width="6.71" height="6.73"/>
    <rect class="cls-1" x="134.89" y="24.33" width="6.73" height="6.73"/>
    <rect class="cls-1" x="128.09" y="30.9" width="6.73" height="6.73"/>
    <rect class="cls-1" x="121.69" y="44.27" width="6.71" height="6.71"/>
    <rect class="cls-1" x="121.69" y="37.65" width="6.71" height="6.73"/>
    <rect class="cls-1" x="114.93" y="57.59" width="6.73" height="6.73"/>
    <rect class="cls-1" x="114.93" y="50.98" width="6.73" height="6.73"/>
    <rect class="cls-1" x="114.93" y="64.28" width="6.73" height="6.73"/>
    <rect class="cls-1" x="121.57" y="77.5" width="6.73" height="6.73"/>
    <rect class="cls-1" x="121.57" y="70.94" width="6.73" height="6.71"/>
    <rect class="cls-1" x="128.28" y="84.21" width="6.71" height="6.73"/>
    <rect class="cls-1" x="141.51" y="90.85" width="6.71" height="6.73"/>
    <rect class="cls-1" x="134.89" y="90.85" width="6.73" height="6.73"/>
    <rect class="cls-1" x="144.86" y="30.9" width="6.73" height="6.73"/>
    <rect class="cls-1" x="144.86" y="37.58" width="6.73" height="6.73"/>
    <rect class="cls-1" x="141.91" y="44.24" width="6.71" height="6.73"/>
    <rect class="cls-1" x="141.91" y="50.95" width="6.71" height="6.73"/>
    <rect class="cls-1" x="138.65" y="57.64" width="6.73" height="6.73"/>
    <rect class="cls-1" x="144.96" y="77.48" width="6.73" height="6.71"/>
    <rect class="cls-1" x="144.96" y="84.12" width="6.73" height="6.73"/>
    <rect class="cls-1" x="141.91" y="64.23" width="6.71" height="6.73"/>
    <rect class="cls-1" x="141.91" y="70.94" width="6.71" height="6.73"/>
    <rect class="cls-1" x="164.87" y="30.9" width="6.73" height="6.73"/>
    <rect class="cls-1" x="164.87" y="37.58" width="6.73" height="6.73"/>
    <rect class="cls-1" x="167.85" y="44.24" width="6.71" height="6.73"/>
    <rect class="cls-1" x="167.85" y="50.95" width="6.71" height="6.73"/>
    <rect class="cls-1" x="171.06" y="57.64" width="6.73" height="6.73"/>
    <rect class="cls-1" x="164.77" y="77.48" width="6.73" height="6.71"/>
    <rect class="cls-1" x="164.77" y="84.12" width="6.73" height="6.73"/>
    <rect class="cls-1" x="167.85" y="64.23" width="6.71" height="6.73"/>
    <rect class="cls-1" x="167.85" y="70.94" width="6.71" height="6.73"/>
    <rect class="cls-1" x="148.19" y="90.85" width="6.73" height="6.73"/>
    <rect class="cls-1" x="161.51" y="90.85" width="6.71" height="6.73"/>
    <rect class="cls-1" x="148.57" y="47.55" width="6.71" height="6.71"/>
    <rect class="cls-1" x="155.26" y="47.55" width="6.73" height="6.71"/>
    <rect class="cls-1" x="161.94" y="47.55" width="6.73" height="6.71"/>
    <rect class="cls-1" x="135.15" y="44.2" width="6.71" height="6.73"/>
    <rect class="cls-1" x="174.6" y="44.2" width="6.71" height="6.73"/>
    <rect class="cls-1" x="135.15" y="70.87" width="6.71" height="6.73"/>
    <rect class="cls-1" x="174.6" y="70.87" width="6.71" height="6.73"/>
    <rect class="cls-1" x="181.29" y="37.63" width="6.71" height="6.73"/>
    <rect class="cls-1" x="128.45" y="37.63" width="6.73" height="6.73"/>
    <rect class="cls-1" x="181.29" y="77.48" width="6.71" height="6.73"/>
    <rect class="cls-1" x="128.45" y="77.48" width="6.73" height="6.73"/>
    <rect class="cls-1" x="148.57" y="68.15" width="6.71" height="6.73"/>
    <rect class="cls-1" x="155.26" y="68.15" width="6.73" height="6.73"/>
    <rect class="cls-1" x="161.94" y="68.15" width="6.73" height="6.73"/>
    <rect class="cls-1" x="485.83" y="230.61" width="45.64" height="5.62"/>
    <rect class="cls-1" x="480.23" y="155.69" width="5.6" height="74.97"/>
    <rect class="cls-1" x="531.53" y="155.69" width="5.62" height="74.97"/>
    <rect class="cls-1" x="485.85" y="150.11" width="45.8" height="5.62"/>
    <rect class="cls-1" x="505.58" y="219.53" width="5.65" height="5.6"/>
    <rect class="cls-1" x="491.1" y="161" width="5.65" height="52.65"/>
    <rect class="cls-1" x="491.21" y="161.05" width="34.04" height="5.62"/>
    <rect class="cls-1" x="491.21" y="208.1" width="34.13" height="5.62"/>
    <rect class="cls-1" x="519.72" y="161" width="5.62" height="52.65"/>
    <rect class="cls-1" x="673.54" y="144.94" width="49.86" height="5.65"/>
    <rect class="cls-1" x="667.9" y="69.54" width="5.65" height="75.44"/>
    <rect class="cls-1" x="723.43" y="69.54" width="5.65" height="75.44"/>
    <rect class="cls-1" x="673.52" y="63.92" width="49.7" height="5.65"/>
    <rect class="cls-1" x="678.74" y="131.9" width="5.67" height="5.65"/>
    <rect class="cls-1" x="690.03" y="131.9" width="5.67" height="5.65"/>
    <rect class="cls-1" x="678.74" y="120.28" width="5.67" height="5.65"/>
    <rect class="cls-1" x="690.03" y="120.28" width="5.67" height="5.65"/>
    <rect class="cls-1" x="678.74" y="109.13" width="5.67" height="5.65"/>
    <rect class="cls-1" x="690.03" y="109.13" width="5.67" height="5.65"/>
    <rect class="cls-1" x="701.53" y="109.13" width="5.67" height="5.65"/>
    <rect class="cls-1" x="712.82" y="109.13" width="5.67" height="5.65"/>
    <rect class="cls-1" x="701.11" y="120.28" width="17.41" height="17.34"/>
    <rect class="cls-1" x="678.72" y="99.61" width="39.47" height="5.65"/>
    <rect class="cls-1" x="699.79" y="92.74" width="2.08" height="2.1"/>
    <rect class="cls-1" x="697.68" y="92.74" width="2.1" height="2.1"/>
    <rect class="cls-1" x="695.58" y="92.74" width="2.1" height="2.1"/>
    <rect class="cls-1" x="693.48" y="92.74" width="2.1" height="2.1"/>
    <rect class="cls-1" x="703.97" y="90.64" width="2.1" height="2.1"/>
    <rect class="cls-1" x="701.86" y="90.64" width="2.1" height="2.1"/>
    <rect class="cls-1" x="699.79" y="90.64" width="2.08" height="2.1"/>
    <rect class="cls-1" x="697.68" y="90.64" width="2.1" height="2.1"/>
    <rect class="cls-1" x="695.58" y="90.64" width="2.1" height="2.1"/>
    <rect class="cls-1" x="693.48" y="90.64" width="2.1" height="2.1"/>
    <rect class="cls-1" x="691.4" y="90.64" width="2.1" height="2.1"/>
    <rect class="cls-1" x="703.97" y="88.56" width="2.1" height="2.08"/>
    <rect class="cls-1" x="701.86" y="88.56" width="2.1" height="2.08"/>
    <rect class="cls-1" x="691.4" y="88.56" width="2.1" height="2.08"/>
    <rect class="cls-1" x="689.3" y="88.56" width="2.1" height="2.08"/>
    <rect class="cls-1" x="706.07" y="86.45" width="2.1" height="2.1"/>
    <rect class="cls-1" x="703.97" y="86.45" width="2.1" height="2.1"/>
    <rect class="cls-1" x="689.3" y="86.45" width="2.1" height="2.1"/>
    <rect class="cls-1" x="687.2" y="86.45" width="2.1" height="2.1"/>
    <rect class="cls-1" x="706.07" y="84.35" width="2.1" height="2.1"/>
    <rect class="cls-1" x="703.97" y="84.35" width="2.1" height="2.1"/>
    <rect class="cls-1" x="689.3" y="84.35" width="2.1" height="2.1"/>
    <rect class="cls-1" x="687.2" y="84.35" width="2.1" height="2.1"/>
    <rect class="cls-1" x="706.07" y="82.25" width="2.1" height="2.1"/>
    <rect class="cls-1" x="703.97" y="82.25" width="2.1" height="2.1"/>
    <rect class="cls-1" x="689.3" y="82.25" width="2.1" height="2.1"/>
    <rect class="cls-1" x="687.2" y="82.25" width="2.1" height="2.1"/>
    <rect class="cls-1" x="706.07" y="80.19" width="2.1" height="2.08"/>
    <rect class="cls-1" x="703.97" y="80.19" width="2.1" height="2.08"/>
    <rect class="cls-1" x="689.3" y="80.19" width="2.1" height="2.08"/>
    <rect class="cls-1" x="687.2" y="80.19" width="2.1" height="2.08"/>
    <rect class="cls-1" x="703.97" y="78.07" width="2.1" height="2.1"/>
    <rect class="cls-1" x="701.86" y="78.07" width="2.1" height="2.1"/>
    <rect class="cls-1" x="691.4" y="78.07" width="2.1" height="2.1"/>
    <rect class="cls-1" x="689.3" y="78.07" width="2.1" height="2.1"/>
    <rect class="cls-1" x="703.97" y="75.97" width="2.1" height="2.1"/>
    <rect class="cls-1" x="701.86" y="75.97" width="2.1" height="2.1"/>
    <rect class="cls-1" x="699.79" y="75.97" width="2.08" height="2.1"/>
    <rect class="cls-1" x="697.68" y="75.97" width="2.1" height="2.1"/>
    <rect class="cls-1" x="695.58" y="75.97" width="2.1" height="2.1"/>
    <rect class="cls-1" x="693.48" y="75.97" width="2.1" height="2.1"/>
    <rect class="cls-1" x="691.4" y="75.97" width="2.1" height="2.1"/>
    <rect class="cls-1" x="699.79" y="73.87" width="2.08" height="2.1"/>
    <rect class="cls-1" x="697.68" y="73.87" width="2.1" height="2.1"/>
    <rect class="cls-1" x="695.58" y="73.87" width="2.1" height="2.1"/>
    <rect class="cls-1" x="693.48" y="73.87" width="2.1" height="2.1"/>
    <rect class="cls-1" x="356.5" y="190.72" width="4.18" height="4.16"/>
    <rect class="cls-1" x="352.37" y="186.56" width="4.16" height="4.16"/>
    <rect class="cls-1" x="422.9" y="190.72" width="4.16" height="4.16"/>
    <rect class="cls-1" x="427.04" y="186.56" width="4.18" height="4.16"/>
    <rect class="cls-1" x="360.64" y="194.85" width="62.36" height="4.16"/>
    <rect class="cls-1" x="356.5" y="138.14" width="4.18" height="4.16"/>
    <rect class="cls-1" x="352.37" y="142.32" width="4.16" height="48.26"/>
    <rect class="cls-1" x="422.9" y="138.14" width="4.16" height="4.16"/>
    <rect class="cls-1" x="427.04" y="142.32" width="4.18" height="48.26"/>
    <rect class="cls-1" x="360.64" y="134.03" width="62.36" height="4.16"/>
    <rect class="cls-1" x="348.21" y="126.87" width="4.16" height="4.16"/>
    <rect class="cls-1" x="352.3" y="122.69" width="78.87" height="4.16"/>
    <rect class="cls-1" x="344.06" y="131" width="4.16" height="4.16"/>
    <rect class="cls-1" x="431.22" y="126.87" width="4.18" height="4.16"/>
    <rect class="cls-1" x="435.37" y="131" width="4.16" height="4.16"/>
    <rect class="cls-1" x="348.21" y="201.91" width="4.16" height="4.16"/>
    <rect class="cls-1" x="352.3" y="206.12" width="78.87" height="4.16"/>
    <rect class="cls-1" x="344.06" y="130.86" width="4.16" height="71.08"/>
    <rect class="cls-1" x="431.22" y="201.91" width="4.18" height="4.16"/>
    <rect class="cls-1" x="435.37" y="130.86" width="4.16" height="71.08"/>
    <polygon class="cls-1" points="365.08 152.9 387.69 152.9 387.69 157.42 378.64 157.42 378.64 180.05 374.13 180.05 374.13 157.42 365.08 157.42 365.08 152.9"/>
    <path class="cls-1" d="m392.22,152.9h4.51v18.09h-4.51v-18.09Zm4.51,18.09h4.51v4.53h-4.51v-4.53Zm4.51,4.53h4.51v4.51h-4.51v-4.51Zm4.53-4.53h4.51v4.53h-4.51v-4.53Zm4.51-18.09h4.51v18.09h-4.51v-18.09Z"/>
    <path class="cls-1" d="m21.23,133.48h9.59v9.59h-9.59v-9.59Zm9.61-9.61h9.61v9.61h-9.61v-9.61Z"/>
    <path class="cls-1" d="m40.39,114.3h9.59v9.59h-9.59v-9.59Zm9.59-9.61h9.61v9.61h-9.61v-9.61Z"/>
    <path class="cls-1" d="m21.23,123.85h9.59v9.61h-9.59v-9.61Zm9.61-9.59h9.61v9.59h-9.61v-9.59Z"/>
    <path class="cls-1" d="m40.39,104.67h9.59v9.61h-9.59v-9.61Zm9.59-9.59h9.61v9.59h-9.61v-9.59Z"/>
    <path class="cls-1" d="m88.27,143.07h-9.61v-9.59h9.61v9.59Zm-9.61-9.59h-9.59v-9.61h9.59v9.61Z"/>
    <path class="cls-1" d="m69.11,123.89h-9.59v-9.59h9.59v9.59Zm-9.59-9.59h-9.59v-9.61h9.59v9.61Z"/>
    <path class="cls-1" d="m88.27,133.46h-9.61v-9.61h9.61v9.61Zm-9.61-9.61h-9.59v-9.59h9.59v9.59Z"/>
    <path class="cls-1" d="m69.11,114.28h-9.59v-9.61h9.59v9.61Zm-9.59-9.61h-9.59v-9.59h9.59v9.59Z"/>
    <path class="cls-1" d="m21.23,94.13h9.59v9.59h-9.59v-9.59Zm9.61-9.59h9.61v9.61h-9.61v-9.61Z"/>
    <path class="cls-1" d="m40.39,74.95h9.59v9.59h-9.59v-9.59Zm9.59-9.59h9.61v9.61h-9.61v-9.61Z"/>
    <path class="cls-1" d="m21.23,84.52h9.59v9.61h-9.59v-9.61Zm9.61-9.61h9.61v9.59h-9.61v-9.59Z"/>
    <path class="cls-1" d="m40.39,65.34h9.59v9.61h-9.59v-9.61Zm9.59-9.61h9.61v9.59h-9.61v-9.59Z"/>
    <path class="cls-1" d="m88.27,103.75h-9.61v-9.59h9.61v9.59Zm-9.61-9.61h-9.59v-9.61h9.59v9.61Z"/>
    <path class="cls-1" d="m69.11,84.56h-9.59v-9.59h9.59v9.59Zm-9.59-9.61h-9.59v-9.61h9.59v9.61Z"/>
    <path class="cls-1" d="m88.27,94.11h-9.61v-9.61h9.61v9.61Zm-9.61-9.59h-9.59v-9.59h9.59v9.59Z"/>
    <path class="cls-1" d="m69.11,74.93h-9.59v-9.61h9.59v9.61Zm-9.59-9.59h-9.59v-9.59h9.59v9.59Z"/>
  </g>
</svg>