<?xml version="1.0" encoding="UTF-8"?>
<svg id="_Слой_1" data-name="Слой 1" xmlns="http://www.w3.org/2000/svg" viewBox="0 0 1028.92 168">
  <defs>
    <style>
      .cls-1 {
        fill: #b4dcfa;
      }

      .cls-1, .cls-2 {
        stroke-width: 0px;
      }

      .cls-2 {
        fill: #fff;
      }
    </style>
  </defs>
  <g>
    <g>
      <rect class="cls-2" x="46.08" y="25.15" width="19.62" height="19.62"/>
      <rect class="cls-2" x="65.7" y="25.15" width="19.62" height="19.62"/>
      <rect class="cls-2" x="85.31" y="25.15" width="19.62" height="19.62"/>
      <rect class="cls-2" x="26.46" y="44.77" width="19.62" height="19.62" transform="translate(90.84 18.3) rotate(90)"/>
      <rect class="cls-2" x="26.46" y="64.38" width="19.62" height="19.62" transform="translate(110.46 37.92) rotate(90)"/>
      <rect class="cls-2" x="26.46" y="84" width="19.62" height="19.62" transform="translate(130.08 57.54) rotate(90)"/>
      <rect class="cls-2" x="26.46" y="103.62" width="19.62" height="19.62" transform="translate(149.7 77.16) rotate(90)"/>
      <rect class="cls-2" x="26.46" y="123.23" width="19.62" height="19.62" transform="translate(169.31 96.77) rotate(90)"/>
      <rect class="cls-2" x="46.08" y="103.62" width="19.62" height="19.62" transform="translate(169.31 57.54) rotate(90)"/>
      <rect class="cls-2" x="65.7" y="103.62" width="19.62" height="19.62" transform="translate(188.93 37.92) rotate(90)"/>
      <rect class="cls-2" x="85.31" y="103.62" width="19.62" height="19.62" transform="translate(208.55 18.3) rotate(90)"/>
      <rect class="cls-2" x="104.93" y="44.77" width="19.62" height="19.62" transform="translate(169.31 -60.17) rotate(90)"/>
      <rect class="cls-2" x="104.93" y="64.38" width="19.62" height="19.62" transform="translate(188.93 -40.55) rotate(90)"/>
      <rect class="cls-2" x="104.93" y="84" width="19.62" height="19.62" transform="translate(208.55 -20.93) rotate(90)"/>
      <rect class="cls-2" x="104.93" y="103.62" width="19.62" height="19.62" transform="translate(228.17 -1.31) rotate(90)"/>
      <rect class="cls-2" x="104.93" y="123.23" width="19.62" height="19.62" transform="translate(247.78 18.3) rotate(90)"/>
    </g>
    <g>
      <rect class="cls-2" x="144.17" y="25.15" width="19.62" height="19.62"/>
      <rect class="cls-2" x="163.78" y="25.15" width="19.62" height="19.62"/>
      <rect class="cls-2" x="183.4" y="25.15" width="19.62" height="19.62"/>
      <rect class="cls-2" x="203.02" y="25.15" width="19.62" height="19.62"/>
      <rect class="cls-2" x="144.17" y="44.77" width="19.62" height="19.62" transform="translate(208.55 -99.4) rotate(90)"/>
      <rect class="cls-2" x="144.17" y="64.38" width="19.62" height="19.62" transform="translate(228.17 -79.78) rotate(90)"/>
      <rect class="cls-2" x="144.17" y="84" width="19.62" height="19.62" transform="translate(247.78 -60.17) rotate(90)"/>
      <rect class="cls-2" x="144.17" y="103.62" width="19.62" height="19.62" transform="translate(267.4 -40.55) rotate(90)"/>
      <rect class="cls-2" x="144.17" y="123.23" width="19.62" height="19.62" transform="translate(287.02 -20.93) rotate(90)"/>
      <rect class="cls-2" x="163.78" y="64.38" width="19.62" height="19.62" transform="translate(247.78 -99.4) rotate(90)"/>
      <rect class="cls-2" x="163.78" y="123.23" width="19.62" height="19.62" transform="translate(306.63 -40.55) rotate(90)"/>
      <rect class="cls-2" x="183.4" y="64.38" width="19.62" height="19.62" transform="translate(267.4 -119.02) rotate(90)"/>
      <rect class="cls-2" x="183.4" y="123.23" width="19.62" height="19.62" transform="translate(326.25 -60.17) rotate(90)"/>
      <rect class="cls-2" x="203.02" y="64.38" width="19.62" height="19.62" transform="translate(287.02 -138.63) rotate(90)"/>
      <rect class="cls-2" x="203.02" y="123.23" width="19.62" height="19.62" transform="translate(345.87 -79.78) rotate(90)"/>
      <rect class="cls-2" x="222.63" y="84" width="19.62" height="19.62" transform="translate(326.25 -138.63) rotate(90)"/>
      <rect class="cls-2" x="222.63" y="103.62" width="19.62" height="19.62" transform="translate(345.87 -119.02) rotate(90)"/>
    </g>
    <g>
      <rect class="cls-2" x="281.49" y="25.15" width="19.62" height="19.62"/>
      <rect class="cls-2" x="301.1" y="25.15" width="19.62" height="19.62"/>
      <rect class="cls-2" x="320.72" y="25.15" width="19.62" height="19.62"/>
      <rect class="cls-2" x="261.87" y="44.77" width="19.62" height="19.62" transform="translate(326.25 -217.1) rotate(90)"/>
      <rect class="cls-2" x="261.87" y="64.38" width="19.62" height="19.62" transform="translate(345.87 -197.49) rotate(90)"/>
      <rect class="cls-2" x="261.87" y="84" width="19.62" height="19.62" transform="translate(365.49 -177.87) rotate(90)"/>
      <rect class="cls-2" x="261.87" y="103.62" width="19.62" height="19.62" transform="translate(385.1 -158.25) rotate(90)"/>
      <rect class="cls-2" x="281.49" y="123.23" width="19.62" height="19.62" transform="translate(424.34 -158.25) rotate(90)"/>
      <rect class="cls-2" x="301.1" y="123.23" width="19.62" height="19.62" transform="translate(443.96 -177.87) rotate(90)"/>
      <rect class="cls-2" x="320.72" y="123.23" width="19.62" height="19.62" transform="translate(463.57 -197.49) rotate(90)"/>
      <rect class="cls-2" x="340.34" y="44.77" width="19.62" height="19.62" transform="translate(404.72 -295.57) rotate(90)"/>
      <rect class="cls-2" x="340.34" y="64.38" width="19.62" height="19.62" transform="translate(424.34 -275.96) rotate(90)"/>
      <rect class="cls-2" x="340.34" y="84" width="19.62" height="19.62" transform="translate(443.96 -256.34) rotate(90)"/>
      <rect class="cls-2" x="340.34" y="103.62" width="19.62" height="19.62" transform="translate(463.57 -236.72) rotate(90)"/>
    </g>
    <g>
      <rect class="cls-2" x="379.57" y="25.15" width="19.62" height="19.62"/>
      <rect class="cls-2" x="458.04" y="25.15" width="19.62" height="19.62"/>
      <rect class="cls-2" x="379.57" y="44.77" width="19.62" height="19.62" transform="translate(443.96 -334.81) rotate(90)"/>
      <rect class="cls-2" x="379.57" y="64.38" width="19.62" height="19.62" transform="translate(463.57 -315.19) rotate(90)"/>
      <rect class="cls-2" x="379.57" y="84" width="19.62" height="19.62" transform="translate(483.19 -295.57) rotate(90)"/>
      <rect class="cls-2" x="379.57" y="103.62" width="19.62" height="19.62" transform="translate(502.81 -275.96) rotate(90)"/>
      <rect class="cls-2" x="379.57" y="123.23" width="19.62" height="19.62" transform="translate(522.42 -256.34) rotate(90)"/>
      <rect class="cls-2" x="399.19" y="64.38" width="19.62" height="19.62" transform="translate(483.19 -334.81) rotate(90)"/>
      <rect class="cls-2" x="418.81" y="64.38" width="19.62" height="19.62" transform="translate(502.81 -354.42) rotate(90)"/>
      <rect class="cls-2" x="438.42" y="64.38" width="19.62" height="19.62" transform="translate(522.42 -374.04) rotate(90)"/>
      <rect class="cls-2" x="458.04" y="44.77" width="19.62" height="19.62" transform="translate(522.42 -413.28) rotate(90)"/>
      <rect class="cls-2" x="458.04" y="64.38" width="19.62" height="19.62" transform="translate(542.04 -393.66) rotate(90)"/>
      <rect class="cls-2" x="458.04" y="84" width="19.62" height="19.62" transform="translate(561.66 -374.04) rotate(90)"/>
      <rect class="cls-2" x="458.04" y="103.62" width="19.62" height="19.62" transform="translate(581.28 -354.42) rotate(90)"/>
      <rect class="cls-2" x="458.04" y="123.23" width="19.62" height="19.62" transform="translate(600.89 -334.81) rotate(90)"/>
    </g>
    <g>
      <rect class="cls-2" x="614.98" y="25.15" width="19.62" height="19.62"/>
      <rect class="cls-2" x="693.45" y="25.15" width="19.62" height="19.62"/>
      <rect class="cls-2" x="614.98" y="44.77" width="19.62" height="19.62" transform="translate(679.36 -570.22) rotate(90)"/>
      <rect class="cls-2" x="614.98" y="64.38" width="19.62" height="19.62" transform="translate(698.98 -550.6) rotate(90)"/>
      <rect class="cls-2" x="614.98" y="84" width="19.62" height="19.62" transform="translate(718.6 -530.98) rotate(90)"/>
      <rect class="cls-2" x="614.98" y="103.62" width="19.62" height="19.62" transform="translate(738.22 -511.36) rotate(90)"/>
      <rect class="cls-2" x="614.98" y="123.23" width="19.62" height="19.62" transform="translate(757.83 -491.75) rotate(90)"/>
      <rect class="cls-2" x="634.6" y="64.38" width="19.62" height="19.62" transform="translate(718.6 -570.22) rotate(90)"/>
      <rect class="cls-2" x="654.22" y="64.38" width="19.62" height="19.62" transform="translate(738.22 -589.83) rotate(90)"/>
      <rect class="cls-2" x="673.83" y="64.38" width="19.62" height="19.62" transform="translate(757.83 -609.45) rotate(90)"/>
      <rect class="cls-2" x="693.45" y="44.77" width="19.62" height="19.62" transform="translate(757.83 -648.68) rotate(90)"/>
      <rect class="cls-2" x="693.45" y="64.38" width="19.62" height="19.62" transform="translate(777.45 -629.07) rotate(90)"/>
      <rect class="cls-2" x="693.45" y="84" width="19.62" height="19.62" transform="translate(797.07 -609.45) rotate(90)"/>
      <rect class="cls-2" x="693.45" y="103.62" width="19.62" height="19.62" transform="translate(816.68 -589.83) rotate(90)"/>
      <rect class="cls-2" x="693.45" y="123.23" width="19.62" height="19.62" transform="translate(836.3 -570.22) rotate(90)"/>
    </g>
    <g>
      <rect class="cls-2" x="497.28" y="25.15" width="19.62" height="19.62"/>
      <rect class="cls-2" x="516.89" y="25.15" width="19.62" height="19.62"/>
      <rect class="cls-2" x="536.51" y="25.15" width="19.62" height="19.62"/>
      <rect class="cls-2" x="556.13" y="25.15" width="19.62" height="19.62"/>
      <rect class="cls-2" x="575.75" y="25.15" width="19.62" height="19.62"/>
      <rect class="cls-2" x="497.28" y="44.77" width="19.62" height="19.62" transform="translate(561.66 -452.51) rotate(90)"/>
      <rect class="cls-2" x="497.28" y="64.38" width="19.62" height="19.62" transform="translate(581.28 -432.89) rotate(90)"/>
      <rect class="cls-2" x="497.28" y="84" width="19.62" height="19.62" transform="translate(600.89 -413.28) rotate(90)"/>
      <rect class="cls-2" x="497.28" y="103.62" width="19.62" height="19.62" transform="translate(620.51 -393.66) rotate(90)"/>
      <rect class="cls-2" x="497.28" y="123.23" width="19.62" height="19.62" transform="translate(640.13 -374.04) rotate(90)"/>
      <rect class="cls-2" x="516.89" y="64.38" width="19.62" height="19.62" transform="translate(600.89 -452.51) rotate(90)"/>
      <rect class="cls-2" x="516.89" y="123.23" width="19.62" height="19.62" transform="translate(659.75 -393.66) rotate(90)"/>
      <rect class="cls-2" x="536.51" y="64.38" width="19.62" height="19.62" transform="translate(620.51 -472.13) rotate(90)"/>
      <rect class="cls-2" x="536.51" y="123.23" width="19.62" height="19.62" transform="translate(679.36 -413.28) rotate(90)"/>
      <rect class="cls-2" x="556.13" y="64.38" width="19.62" height="19.62" transform="translate(640.13 -491.75) rotate(90)"/>
      <rect class="cls-2" x="556.13" y="123.23" width="19.62" height="19.62" transform="translate(698.98 -432.89) rotate(90)"/>
      <rect class="cls-2" x="575.75" y="123.23" width="19.62" height="19.62" transform="translate(718.6 -452.51) rotate(90)"/>
    </g>
    <g>
      <rect class="cls-2" x="732.68" y="25.15" width="19.62" height="19.62"/>
      <rect class="cls-2" x="752.3" y="25.15" width="19.62" height="19.62"/>
      <rect class="cls-2" x="771.92" y="25.15" width="19.62" height="19.62"/>
      <rect class="cls-2" x="791.54" y="25.15" width="19.62" height="19.62"/>
      <rect class="cls-2" x="811.15" y="25.15" width="19.62" height="19.62"/>
      <rect class="cls-2" x="771.92" y="44.77" width="19.62" height="19.62" transform="translate(836.3 -727.15) rotate(90)"/>
      <rect class="cls-2" x="771.92" y="64.38" width="19.62" height="19.62" transform="translate(855.92 -707.54) rotate(90)"/>
      <rect class="cls-2" x="771.92" y="84" width="19.62" height="19.62" transform="translate(875.54 -687.92) rotate(90)"/>
      <rect class="cls-2" x="771.92" y="103.62" width="19.62" height="19.62" transform="translate(895.15 -668.3) rotate(90)"/>
      <rect class="cls-2" x="771.92" y="123.23" width="19.62" height="19.62" transform="translate(914.77 -648.68) rotate(90)"/>
    </g>
  </g>
  <g>
    <rect class="cls-1" x="927.88" y="132.17" width="10.68" height="10.68"/>
    <rect class="cls-1" x="917.24" y="121.43" width="10.68" height="10.68"/>
    <rect class="cls-1" x="906.46" y="110.78" width="10.68" height="10.68"/>
    <rect class="cls-1" x="895.78" y="100.1" width="10.68" height="10.68"/>
    <rect class="cls-1" x="885.14" y="89.56" width="10.68" height="10.68"/>
    <rect class="cls-1" x="874.59" y="78.85" width="10.68" height="10.68"/>
    <rect class="cls-1" x="863.85" y="46.71" width="10.68" height="32.24"/>
    <rect class="cls-1" x="874.59" y="35.86" width="10.68" height="10.68"/>
    <rect class="cls-1" x="885.07" y="25.15" width="32.24" height="10.68"/>
    <rect class="cls-1" x="917.14" y="35.86" width="10.68" height="10.68"/>
    <rect class="cls-1" x="927.75" y="46.44" width="10.68" height="10.68"/>
    <rect class="cls-1" x="938.43" y="121.43" width="10.68" height="10.68"/>
    <rect class="cls-1" x="949.14" y="110.78" width="10.68" height="10.68"/>
    <rect class="cls-1" x="959.89" y="100.1" width="10.68" height="10.68"/>
    <rect class="cls-1" x="970.49" y="89.56" width="10.68" height="10.68"/>
    <rect class="cls-1" x="981.07" y="78.85" width="10.68" height="10.68"/>
    <rect class="cls-1" x="991.78" y="46.71" width="10.68" height="32.24"/>
    <rect class="cls-1" x="981.07" y="35.86" width="10.68" height="10.68"/>
    <rect class="cls-1" x="949" y="25.15" width="32.24" height="10.68"/>
    <rect class="cls-1" x="938.53" y="35.86" width="10.68" height="10.68"/>
    <rect class="cls-1" x="927.88" y="132.17" width="10.68" height="10.68"/>
    <rect class="cls-1" x="917.24" y="121.43" width="10.68" height="10.68"/>
    <rect class="cls-1" x="906.46" y="110.78" width="10.68" height="10.68"/>
    <rect class="cls-1" x="895.78" y="100.1" width="10.68" height="10.68"/>
    <rect class="cls-1" x="885.14" y="89.56" width="10.68" height="10.68"/>
    <rect class="cls-1" x="874.59" y="78.85" width="10.68" height="10.68"/>
    <rect class="cls-1" x="863.85" y="46.71" width="10.68" height="32.24"/>
    <rect class="cls-1" x="874.59" y="35.86" width="10.68" height="10.68"/>
    <rect class="cls-1" x="885.07" y="25.15" width="32.24" height="10.68"/>
    <rect class="cls-1" x="917.14" y="35.86" width="10.68" height="10.68"/>
    <rect class="cls-1" x="927.75" y="46.44" width="10.68" height="10.68"/>
    <rect class="cls-1" x="938.43" y="121.43" width="10.68" height="10.68"/>
    <rect class="cls-1" x="949.14" y="110.78" width="10.68" height="10.68"/>
    <rect class="cls-1" x="959.89" y="100.1" width="10.68" height="10.68"/>
    <rect class="cls-1" x="970.49" y="89.56" width="10.68" height="10.68"/>
    <rect class="cls-1" x="981.07" y="78.85" width="10.68" height="10.68"/>
    <rect class="cls-1" x="991.78" y="46.71" width="10.68" height="32.24"/>
    <rect class="cls-1" x="981.07" y="35.86" width="10.68" height="10.68"/>
    <rect class="cls-1" x="949" y="25.15" width="32.24" height="10.68"/>
    <rect class="cls-1" x="938.53" y="35.86" width="10.68" height="10.68"/>
  </g>
</svg>