<?xml version="1.0" encoding="UTF-8"?>
<svg id="_Слой_1" data-name="Слой 1" xmlns="http://www.w3.org/2000/svg" viewBox="0 0 400 400">
  <defs>
    <style>
      .cls-1, .cls-2 {
        stroke-width: 0px;
      }

      .cls-2 {
        fill: #fe5008;
      }
    </style>
  </defs>
  <g>
    <g>
      <g>
        <g>
          <rect class="cls-1" x="106.12" y="43.14" width="186.7" height="27.19"/>
          <rect class="cls-1" x="90.99" y="83.66" width="13.51" height="219.17"/>
          <rect class="cls-1" x="77.48" y="262.31" width="13.51" height="13.51"/>
          <rect class="cls-1" x="63.98" y="207.47" width="13.51" height="54.84"/>
          <rect class="cls-1" x="77.48" y="207.47" width="13.51" height="13.51"/>
          <rect class="cls-1" x="104.5" y="83.33" width="13.51" height="42.29"/>
          <rect class="cls-1" x="118" y="56.64" width="13.51" height="40.19"/>
          <rect class="cls-1" x="131.51" y="56.82" width="137.59" height="13.51"/>
          <rect class="cls-1" x="282.53" y="56.82" width="13.51" height="68.81"/>
          <rect class="cls-1" x="269.1" y="56.64" width="13.51" height="40.19"/>
          <g>
            <g>
              <rect class="cls-1" x="166.77" y="218.44" width="13.51" height="13.51"/>
              <rect class="cls-1" x="130.45" y="218.44" width="36.32" height="13.51"/>
              <rect class="cls-1" x="141.84" y="207.47" width="24.93" height="36.43"/>
              <rect class="cls-1" x="117.52" y="207.47" width="31.08" height="13.51"/>
            </g>
            <g>
              <rect class="cls-1" x="220.33" y="218.44" width="13.51" height="13.51"/>
              <rect class="cls-1" x="233.84" y="218.44" width="36.32" height="13.51"/>
              <rect class="cls-1" x="233.84" y="207.47" width="24.93" height="36.43"/>
              <rect class="cls-1" x="252.02" y="207.47" width="31.08" height="13.51"/>
            </g>
          </g>
          <rect class="cls-1" x="77.48" y="83.66" width="13.51" height="123.81"/>
          <rect class="cls-1" x="63.98" y="96.84" width="13.51" height="110.64"/>
          <g>
            <rect class="cls-1" x="104.5" y="302.83" width="13.51" height="13.51"/>
            <rect class="cls-1" x="118" y="316.34" width="13.51" height="13.51"/>
            <rect class="cls-1" x="131.51" y="329.85" width="13.51" height="13.51"/>
            <rect class="cls-1" x="145.02" y="343.35" width="13.51" height="13.51"/>
          </g>
          <g>
            <rect class="cls-1" x="282.61" y="302.83" width="13.51" height="13.51"/>
            <rect class="cls-1" x="269.1" y="316.34" width="13.51" height="13.51"/>
            <rect class="cls-1" x="255.59" y="329.85" width="13.51" height="13.51"/>
            <rect class="cls-1" x="242.09" y="343.35" width="13.51" height="13.51"/>
            <rect class="cls-1" x="309.62" y="262.31" width="13.51" height="108.06"/>
            <rect class="cls-1" x="323.13" y="262.31" width="13.51" height="108.06"/>
            <rect class="cls-1" x="242.09" y="342.22" width="67.54" height="28.15"/>
            <path class="cls-1" d="m259.57,352.81c.58-.97,4.47-16.21,4.47-16.21l9.73-13.51,15.6-11.74,10.86-13.78,19.65-2.92s-.39,48.05,0,49.41c.39,1.36-4.67,25.48-4.67,25.48h-37.93l-17.7-16.73Z"/>
          </g>
          <rect class="cls-1" x="336.02" y="139.88" width="13.51" height="230.49"/>
          <rect class="cls-1" x="322.52" y="97.06" width="13.51" height="112.5"/>
          <rect class="cls-1" x="309.01" y="83.66" width="13.51" height="125.91"/>
          <rect class="cls-1" x="292.99" y="56.82" width="16.02" height="68.81"/>
          <rect class="cls-1" x="90.99" y="56.82" width="27.01" height="68.81"/>
          <rect class="cls-1" x="120.9" y="29.63" width="154.96" height="13.51"/>
        </g>
        <rect class="cls-1" x="158.53" y="356.86" width="83.56" height="13.51"/>
        <g>
          <rect class="cls-1" x="282.61" y="302.83" width="13.51" height="13.51"/>
          <rect class="cls-1" x="269.1" y="316.34" width="13.51" height="13.51"/>
          <rect class="cls-1" x="255.59" y="329.85" width="13.51" height="13.51"/>
          <rect class="cls-1" x="242.09" y="343.35" width="13.51" height="13.51"/>
          <rect class="cls-1" x="296.12" y="125.62" width="13.51" height="177.21"/>
          <rect class="cls-1" x="309.62" y="262.31" width="13.51" height="13.51"/>
          <rect class="cls-1" x="323.13" y="207.47" width="13.51" height="54.84"/>
          <rect class="cls-1" x="309.62" y="207.47" width="13.51" height="13.51"/>
        </g>
        <g>
          <rect class="cls-1" x="200.92" y="309.43" width="13.51" height="13.51"/>
          <rect class="cls-1" x="187.42" y="309.43" width="13.51" height="13.51"/>
          <rect class="cls-1" x="214.43" y="309.43" width="13.51" height="13.51"/>
          <rect class="cls-1" x="173.91" y="309.43" width="13.51" height="13.51"/>
          <rect class="cls-1" x="200.92" y="322.94" width="13.51" height="13.51"/>
          <rect class="cls-1" x="187.42" y="322.94" width="13.51" height="13.51"/>
          <rect class="cls-1" x="227.94" y="295.92" width="13.51" height="13.51"/>
          <rect class="cls-1" x="160.4" y="295.92" width="13.51" height="13.51"/>
        </g>
      </g>
      <rect class="cls-1" x="244.66" y="180.28" width="26.98" height="13.51"/>
      <rect class="cls-1" x="131.53" y="180.28" width="26.98" height="13.51"/>
    </g>
    <g>
      <g>
        <rect class="cls-1" x="184.71" y="268.34" width="13.51" height="13.51"/>
        <rect class="cls-1" x="198.22" y="268.34" width="13.51" height="13.51"/>
      </g>
      <rect class="cls-1" x="198.22" y="217.22" width="13.51" height="51.12"/>
    </g>
    <g>
      <rect class="cls-1" x="124.76" y="137.36" width="13.51" height="13.51"/>
      <rect class="cls-1" x="111.25" y="150.87" width="13.51" height="13.51"/>
      <rect class="cls-1" x="104.5" y="150.87" width="13.51" height="13.51"/>
    </g>
    <g>
      <rect class="cls-1" x="262.35" y="137.36" width="13.51" height="13.51" transform="translate(538.2 288.23) rotate(180)"/>
      <rect class="cls-1" x="275.86" y="150.87" width="13.51" height="13.51" transform="translate(565.22 315.24) rotate(180)"/>
      <rect class="cls-1" x="282.61" y="150.87" width="13.51" height="13.51" transform="translate(578.72 315.24) rotate(180)"/>
      <rect class="cls-1" x="248.84" y="124.81" width="13.51" height="13.51" transform="translate(511.19 263.13) rotate(180)"/>
      <rect class="cls-1" x="138.27" y="124.81" width="49.15" height="13.51" transform="translate(325.68 263.13) rotate(180)"/>
      <rect class="cls-1" x="213.51" y="124.81" width="49.15" height="13.51" transform="translate(476.16 263.13) rotate(180)"/>
      <rect class="cls-1" x="138.27" y="112.12" width="110.01" height="13.51" transform="translate(386.54 237.74) rotate(180)"/>
      <path class="cls-1" d="m141.84,52.72c-6.45,7.39-37.57,34.23-41.46,41.24-3.89,7-15.94,47.2-16.14,51.61-.2,4.41,6.75,14.91,6.75,14.91l27.01-2.86,10.77-12.05,13.07-11.93,49.62-17.12,27.57,2.35s17.48,3.88,19.05,4.26c1.57.39,20.07,10.89,20.07,10.89l7.96,5.85,5.53,5.69,8.86,9.47,29.12,9.34s.61-43.96,0-47.08c-.61-3.11-20.34-38.9-20.34-38.9l-54.59-25.68h-92.85Z"/>
    </g>
  </g>
  <g>
    <rect class="cls-2" x="309.01" y="196.27" width="13.51" height="81.64"/>
    <rect class="cls-2" x="295.5" y="209.57" width="13.51" height="54.84"/>
    <rect class="cls-2" x="322.52" y="209.57" width="13.51" height="54.84"/>
    <rect class="cls-2" x="336.02" y="223.34" width="13.51" height="27.69"/>
    <rect class="cls-2" x="336.02" y="223.34" width="13.51" height="27.69"/>
  </g>
  <g>
    <rect class="cls-2" x="77.48" y="196.27" width="13.51" height="81.64" transform="translate(168.47 474.18) rotate(180)"/>
    <rect class="cls-2" x="90.99" y="209.57" width="13.51" height="54.84" transform="translate(195.49 473.97) rotate(180)"/>
    <rect class="cls-2" x="63.98" y="209.57" width="13.51" height="54.84" transform="translate(141.46 473.97) rotate(180)"/>
    <rect class="cls-2" x="50.47" y="223.34" width="13.51" height="27.69" transform="translate(114.44 474.36) rotate(180)"/>
    <rect class="cls-2" x="50.47" y="223.34" width="13.51" height="27.69" transform="translate(114.44 474.36) rotate(180)"/>
  </g>
  <g>
    <rect class="cls-2" x="77.48" y="141.65" width="13.51" height="54.63"/>
    <rect class="cls-2" x="90.99" y="128.14" width="13.51" height="13.51"/>
    <rect class="cls-2" x="104.5" y="114.63" width="13.51" height="13.51"/>
    <rect class="cls-2" x="118" y="101.79" width="13.51" height="13.51"/>
    <rect class="cls-2" x="131.51" y="88.29" width="13.51" height="13.51"/>
    <rect class="cls-2" x="145.02" y="88.29" width="13.51" height="13.51"/>
  </g>
  <rect class="cls-2" x="158.51" y="74.78" width="82.94" height="13.51"/>
  <g>
    <rect class="cls-2" x="309.01" y="141.65" width="13.51" height="54.63" transform="translate(631.53 337.92) rotate(180)"/>
    <rect class="cls-2" x="295.5" y="128.14" width="13.51" height="13.51" transform="translate(604.5 269.78) rotate(180)"/>
    <rect class="cls-2" x="281.99" y="114.63" width="13.51" height="13.51" transform="translate(577.49 242.77) rotate(180)"/>
    <rect class="cls-2" x="268.48" y="101.79" width="13.51" height="13.51" transform="translate(550.48 217.09) rotate(180)"/>
    <rect class="cls-2" x="254.98" y="88.29" width="13.51" height="13.51" transform="translate(523.46 190.08) rotate(180)"/>
    <rect class="cls-2" x="241.47" y="88.29" width="13.51" height="13.51" transform="translate(496.45 190.08) rotate(180)"/>
  </g>
</svg>