<?xml version="1.0" encoding="UTF-8"?>
<svg id="_Слой_1" data-name="Слой 1" xmlns="http://www.w3.org/2000/svg" viewBox="0 0 400 400">
  <defs>
    <style>
      .cls-1 {
        fill: #07f;
      }

      .cls-1, .cls-2 {
        fill-rule: evenodd;
        stroke-width: 0px;
      }

      .cls-2 {
        fill: #fff;
      }
    </style>
  </defs>
  <path class="cls-1" d="m13.77,192.55c0-84.28,0-126.42,26.18-152.6C66.13,13.77,108.27,13.77,192.55,13.77h14.9c84.28,0,126.42,0,152.6,26.18,26.18,26.18,26.18,68.32,26.18,152.6v14.9c0,84.28,0,126.42-26.18,152.6-26.18,26.18-68.32,26.18-152.6,26.18h-14.9c-84.28,0-126.42,0-152.6-26.18-26.18-26.18-26.18-68.32-26.18-152.6v-14.9h0Z"/>
  <path class="cls-2" d="m211.95,282.1c-84.89,0-133.31-58.2-135.33-155.04h42.52c1.4,71.08,32.74,101.19,57.57,107.39v-107.39h40.04v61.3c24.52-2.64,50.28-30.57,58.97-61.3h40.04c-6.67,37.87-34.61,65.8-54.47,77.29,19.86,9.31,51.68,33.68,63.79,77.75h-44.08c-9.47-29.49-33.05-52.3-64.25-55.4v55.4h-4.81Z"/>
</svg>