<svg width="119" height="119" viewBox="0 0 119 119" fill="none" xmlns="http://www.w3.org/2000/svg">
  <g clip-path="url(#clip0_7_586)">
    <path d="M35.6165 44.6061C28.3455 44.6061 21.0776 44.6188 13.8065 44.6061C6.01624 44.5838 0.181533 39.1321 0.00317978 31.3743C-0.114661 26.2693 2.27719 22.2934 6.6787 19.6693C7.73289 19.0395 8.13737 18.4002 8.1533 17.182C8.29025 7.71303 16.3798 -0.159231 25.8835 -0.000195279C31.059 0.0888647 35.5146 2.01956 38.9288 5.97636C39.7887 6.97193 40.5436 7.21684 41.7889 6.8447C46.063 5.57559 49.8689 6.72701 53.229 9.44652C54.1271 10.1749 54.9934 10.4675 56.1081 10.4675C65.4493 10.4453 74.7874 10.4453 84.1287 10.4643C85.8772 10.4675 87.6352 10.528 89.2755 11.2754C92.8011 12.8881 94.3617 15.7889 94.5178 19.5103C94.6165 21.8926 94.556 24.2782 94.5337 26.6637C94.5273 27.513 94.6898 28.1968 95.4923 28.6803C97.8109 30.083 98.7728 32.2395 98.6231 34.8668C98.5339 36.4571 98.9511 37.6594 100.161 38.7918C102.442 40.9228 103.021 43.8109 103.076 46.7881C103.146 50.6558 103.101 54.5268 103.088 58.3945C103.082 59.8513 102.805 61.1617 101.107 61.6007C100.321 61.8042 100.263 62.4531 100.26 63.1179C100.26 64.4951 100.292 65.8755 100.235 67.2496C100.158 69.0753 99.3779 69.8928 97.5721 69.9214C94.0719 69.9723 90.5685 69.9723 87.0651 69.9214C85.4409 69.8991 84.6701 69.0626 84.5969 67.4214C84.5523 66.4163 84.5586 65.408 84.5873 64.3997C84.6319 63.0002 84.7689 61.6706 82.8675 61.2158C81.998 61.009 81.7528 59.988 81.7496 59.0974C81.74 54.4854 81.6381 49.8734 81.7942 45.2677C81.8865 42.545 83.0235 40.099 85.0778 38.2383C85.9186 37.4781 86.288 36.702 86.1861 35.6174C85.8995 32.5639 86.8199 30.0766 89.6003 28.4799C90.1895 28.1427 90.2978 27.602 90.2978 26.985C90.2883 24.3895 90.3424 21.7909 90.2755 19.1954C90.2055 16.4441 88.3741 14.6756 85.5842 14.6692C76.6156 14.6438 67.6469 14.6502 58.6783 14.6756C58.1496 14.6756 57.1432 14.3066 57.261 15.3499C57.3597 16.2373 57.1145 17.516 58.5732 17.7259C60.3663 17.9836 62.1148 18.3684 63.7486 19.1986C69.5037 22.1312 72.3191 28.095 70.8796 34.3642C69.5037 40.363 64.1308 44.5679 57.7419 44.587C50.3657 44.6125 42.9896 44.5934 35.6134 44.5934L35.6165 44.6061ZM36.3395 33.0983C36.3395 35.0067 36.3841 36.9151 36.3236 38.8204C36.2854 40.0068 36.7854 40.4235 37.9288 40.3948C39.7856 40.3471 41.6423 40.4044 43.4991 40.3726C44.8877 40.3503 45.6394 39.0049 44.8686 37.8789C44.6202 37.5163 44.1106 37.3318 43.7189 37.0742C41.1805 35.417 39.9989 32.5067 40.7601 29.7745C41.5436 26.9563 44.0629 25.0193 46.9802 24.9907C50.0473 24.962 52.5697 26.8037 53.4232 29.6949C54.229 32.4272 53.0984 35.2866 50.5314 36.9947C50.267 37.1696 49.9772 37.3064 49.7001 37.459C48.7765 37.9743 49.0822 38.8458 49.1427 39.5933C49.2064 40.3917 49.9071 40.363 50.4868 40.363C53.3532 40.363 56.2164 40.3662 59.0828 40.3249C59.6529 40.3153 60.2421 40.169 60.7835 39.9782C65.3506 38.3528 67.9718 33.7726 66.9399 29.2751C65.8411 24.5072 61.567 21.5173 56.6049 22.0453C54.0411 22.3189 53.3309 21.6764 53.3723 19.1159C53.471 12.5541 47.1203 8.60681 41.1519 11.5203C39.155 12.4936 38.5594 12.3473 37.295 10.5725C36.986 10.1399 36.6867 9.70416 36.3586 9.28748C32.833 4.78678 26.9218 3.06283 21.3355 4.90128C16.1856 6.59978 12.265 11.603 12.4688 17.0389C12.5898 20.2609 11.8732 22.128 8.65651 23.4194C5.27735 24.7776 3.54159 29.2496 4.23589 32.8375C4.97797 36.6702 8.23929 39.9782 11.7745 40.2772C13.8288 40.4489 15.9085 40.3503 17.9787 40.3599C18.4564 40.3599 18.9278 40.3249 19.208 39.816C19.9278 38.5055 19.1348 35.4011 17.8672 34.4787C15.8894 33.0379 14.7747 31.0817 14.9435 28.6294C15.1632 25.4201 17.7653 22.8469 20.8865 22.5161C23.7815 22.2107 26.7403 24.135 27.7085 26.9532C28.734 29.9398 27.5715 33.0188 24.6892 34.7046C23.9025 35.1626 23.5172 35.6906 23.5777 36.6003C23.6255 37.3382 23.6318 38.0857 23.5777 38.8236C23.4885 40.0227 24.0554 40.4171 25.1861 40.3853C26.8836 40.3376 28.5843 40.3153 30.2787 40.3917C31.6673 40.4553 32.1514 39.8923 32.1291 38.5278C32.0686 35.1371 32.0622 31.7433 32.1355 28.3527C32.1641 27.0104 31.8138 26.158 30.5972 25.3819C27.4314 23.3653 26.8549 18.9441 29.2086 16.0242C31.5813 13.0853 35.986 12.7258 38.6868 15.2513C41.5181 17.8977 41.7538 22.6274 38.6454 24.7521C36.4 26.2884 36.193 28.0123 36.3331 30.2293C36.3937 31.1803 36.3427 32.1377 36.3459 33.0888L36.3395 33.0983ZM85.9918 50.7385C85.9918 50.7385 85.9887 50.7385 85.9855 50.7385C85.9855 52.5388 85.995 54.3423 85.9791 56.1426C85.9727 56.9473 86.202 57.4785 87.132 57.4753C90.6864 57.4657 94.2439 57.4689 97.7982 57.4657C98.4161 57.4657 98.846 57.2081 98.8397 56.5401C98.811 52.6215 99.1613 48.6838 98.6741 44.7906C98.2537 41.4286 95.2917 39.253 91.8711 39.4534C88.6353 39.641 86.1129 42.2715 86.0014 45.6462C85.9441 47.3415 85.9918 49.0368 85.9918 50.7322V50.7385ZM92.3393 65.7547C96.2281 65.7547 96.193 65.7547 96.037 62.9938C95.9828 62.0364 95.5847 61.677 94.6738 61.6929C93.4063 61.7152 92.1355 61.6865 90.8679 61.6929C88.8805 61.7024 88.9092 61.7565 88.8136 63.7508C88.7404 65.2267 89.1799 65.9614 90.7596 65.761C91.2788 65.6942 91.817 65.7515 92.3425 65.7515L92.3393 65.7547ZM23.893 29.0747C23.893 27.7865 22.8675 26.7687 21.5553 26.7623C20.2145 26.756 19.1825 27.707 19.138 28.9888C19.0902 30.3374 20.1508 31.3934 21.5489 31.3871C22.8611 31.3807 23.893 30.3661 23.8962 29.0747H23.893ZM34.2916 22.4525C35.6834 22.4238 36.5943 21.4124 36.5433 19.9556C36.4988 18.661 35.6165 17.8182 34.3044 17.8182C32.9317 17.8182 31.8297 18.9091 31.887 20.2069C31.9444 21.4537 33.0432 22.4811 34.2916 22.4556V22.4525ZM49.4644 31.3934C49.4198 30.1593 48.1172 28.9634 46.9197 29.0556C45.6776 29.151 44.7763 30.242 44.8304 31.5875C44.8814 32.9202 45.9133 33.8935 47.1936 33.8171C48.4198 33.744 49.509 32.583 49.4676 31.3966L49.4644 31.3934ZM92.3616 35.2675C93.0081 34.9336 94.3745 36.2504 94.4095 34.3642C94.435 33.0665 93.5528 31.9596 92.4317 31.9183C91.3361 31.8769 90.4156 32.9997 90.3997 34.2879C90.3838 35.9832 91.5972 35.0894 92.3616 35.2675Z" fill="#B4DCFA" />
    <path d="M84.807 118.946C76.1505 118.946 69.0928 118.952 62.0351 118.946C56.8438 118.94 52.6556 116.99 49.7638 112.565C49.6204 112.343 49.423 112.126 49.3656 111.882C48.7542 109.267 46.9547 108.908 44.5915 109.044C41.4703 109.226 38.33 109.117 35.1993 109.079C30.0016 109.013 26.3166 105.282 26.2816 100.091C26.2657 97.6542 26.2625 95.2146 26.2816 92.775C26.288 91.9766 26.1319 91.3691 25.3453 90.9397C23.0044 89.6579 22.0298 87.5618 22.1795 84.979C22.2782 83.2869 21.8801 82.0083 20.552 80.7869C18.5997 78.9929 17.7875 76.5152 17.7334 73.8974C17.6442 69.5526 17.7175 65.2045 17.7015 60.8597C17.6952 59.4443 18.1315 58.3438 19.6125 57.9398C20.3864 57.7267 20.5647 57.2178 20.5584 56.5085C20.5456 55.0231 20.552 53.5409 20.5711 52.0555C20.587 50.6751 21.31 49.8099 22.6731 49.7208C26.4345 49.4759 30.2022 49.53 33.9667 49.689C35.4541 49.7527 36.0942 50.7832 36.1739 52.1414C36.2535 53.5154 36.2439 54.8959 36.2184 56.2731C36.2025 57.1701 36.4478 57.7744 37.3905 58.0734C38.4988 58.4233 38.8938 59.3107 38.8906 60.4303C38.8778 65.0932 38.9352 69.7593 38.8555 74.4223C38.8109 77.0781 37.7185 79.381 35.7662 81.1813C34.8967 81.9828 34.5496 82.8352 34.6196 83.9739C34.798 86.9893 33.9699 89.5338 31.1322 91.0892C30.5175 91.4263 30.5239 92.037 30.5239 92.6223C30.5239 95.2718 30.4793 97.9245 30.5462 100.571C30.6099 102.995 32.3743 104.795 34.7916 104.839C38.6103 104.913 42.4322 104.846 46.254 104.881C47.3146 104.89 47.7541 104.442 47.9165 103.418C48.5854 99.1777 50.7893 95.943 54.5347 93.8341C55.5571 93.2584 55.8755 92.546 55.8978 91.4136C56.0252 83.993 60.7357 77.6698 67.9622 75.1061C74.4657 72.7969 82.3738 75.0393 86.9791 80.5674C87.6416 81.3626 88.2244 81.4612 89.1639 81.1685C96.0401 79.0375 103.4 83.236 105.031 90.2622C105.33 91.5472 105.783 92.0593 107.181 92.1834C113.719 92.7686 119.051 98.831 118.997 105.431C118.936 112.343 113.764 118.186 107.076 118.701C99.1295 119.312 91.1641 118.745 84.807 118.943V118.946ZM85.3739 107.527C85.3739 109.49 85.3994 111.449 85.3644 113.408C85.3485 114.356 85.7338 114.751 86.6829 114.738C88.6448 114.709 90.6099 114.741 92.5718 114.725C93.1291 114.719 93.8808 114.868 93.9954 114.076C94.1101 113.275 94.384 112.355 93.54 111.729C93.161 111.446 92.7087 111.261 92.3138 110.994C89.8997 109.369 88.9697 106.077 90.1035 103.205C91.1768 100.482 94.212 98.7356 97.0115 99.235C100.251 99.8107 102.435 102.199 102.585 105.25C102.709 107.801 101.798 109.846 99.6135 111.175C98.4702 111.872 98.0593 112.778 98.4033 113.962C98.7632 115.202 99.9034 114.681 100.719 114.709C102.572 114.773 104.435 114.773 106.289 114.693C110.7 114.502 114.563 110.492 114.84 106.102C115.149 101.166 111.178 95.8284 104.827 96.3151C101.461 96.5727 101.126 96.1497 101.12 92.8799C101.114 86.9638 94.6674 82.9466 89.2977 85.507C86.5842 86.8016 86.323 86.7348 84.6414 84.3175C81.0425 79.152 74.7969 77.1449 68.8985 79.2029C64.3027 80.8059 59.5605 85.7615 60.1114 92.8863C60.3312 95.733 60.2261 95.7394 57.5795 96.8844C53.9105 98.4716 51.7639 101.827 51.8722 105.81C51.9709 109.525 54.3404 112.813 57.9744 114.133C61.1147 115.275 64.3856 114.582 67.5991 114.668C67.8698 114.674 68.1501 114.521 68.2138 114.245C68.5386 112.887 68.3571 111.506 68.3348 110.135C68.3189 109.267 67.5099 109.121 66.9653 108.745C63.0256 106.039 63.0798 100.148 67.0672 97.775C70.284 95.8603 74.1727 96.7668 76.1059 99.8807C78.0614 103.03 77.0646 106.999 73.7364 108.943C72.8669 109.451 72.5484 110.046 72.6089 110.988C72.6535 111.675 72.6663 112.368 72.6089 113.052C72.507 114.257 72.9402 114.801 74.2268 114.747C76.0804 114.671 77.9436 114.681 79.7972 114.747C80.9692 114.785 81.3833 114.347 81.3642 113.173C81.31 109.782 81.2941 106.388 81.3705 102.998C81.4024 101.522 81.1253 100.539 79.6953 99.6517C76.3894 97.6001 75.8352 93.2044 78.2494 90.2081C80.5934 87.2978 85.2147 87.0242 87.8868 89.6388C90.594 92.2851 90.7532 97.0117 87.6734 99.0314C85.3612 100.549 85.2656 102.311 85.3708 104.505C85.4185 105.511 85.3803 106.519 85.3835 107.527H85.3739ZM34.6483 69.1804C34.6483 67.2752 34.6387 65.3699 34.6515 63.4647C34.6579 62.5773 34.3457 62.0716 33.3648 62.0747C29.9729 62.0938 26.5842 62.0875 23.1923 62.0779C22.4438 62.0779 21.9597 62.3228 21.9629 63.1594C21.9852 67.0207 21.8196 70.8948 22.0839 74.7403C22.3101 78.0642 25.3516 80.2716 28.8263 80.0839C32.1131 79.9058 34.5878 77.3072 34.6451 73.942C34.6706 72.3548 34.6483 70.7676 34.6451 69.1804H34.6483ZM28.4537 57.8412C32.1768 57.8412 32.1418 57.8412 32.0017 55.0772C31.9539 54.123 31.5749 53.7603 30.6513 53.7826C29.3837 53.8144 28.1065 53.878 26.8517 53.7635C25.2529 53.6172 24.6701 54.1961 24.7752 55.8151C24.8994 57.7585 24.8675 57.8253 26.8708 57.8412C27.3995 57.8444 27.9282 57.8412 28.4569 57.8412H28.4537ZM96.1643 103.383C94.798 103.357 93.9094 104.222 93.8712 105.615C93.833 107.117 94.6993 108.049 96.1261 108.046C97.4128 108.042 98.4734 107.056 98.5275 105.813C98.5848 104.515 97.5083 103.408 96.1611 103.383H96.1643ZM85.5841 94.3621C85.5841 92.9499 84.6987 91.9989 83.3802 91.9798C82.0935 91.9639 80.9374 93.1153 80.9501 94.4067C80.9629 95.6535 82.0171 96.6427 83.3388 96.6459C84.7656 96.6459 85.5873 95.8094 85.5841 94.3621ZM72.8382 103.259C72.8096 101.951 71.7809 100.908 70.5387 100.93C69.2425 100.956 68.1214 102.133 68.1692 103.414C68.217 104.725 69.1915 105.581 70.612 105.558C72.0579 105.536 72.8701 104.696 72.8382 103.259ZM28.4537 84.2952C27.5301 84.3779 26.3389 83.9453 26.4026 85.5388C26.4536 86.7952 27.1097 87.5173 28.3582 87.5904C29.4538 87.654 30.3933 86.5662 30.3806 85.383C30.3614 83.8467 29.1958 84.4288 28.4537 84.2952Z" fill="#B4DCFA" />
  </g>
  <defs>
    <clipPath id="clip0_7_586">
      <rect width="119" height="119" fill="white" />
    </clipPath>
  </defs>
</svg>