<?xml version="1.0" encoding="utf-8"?>
<!-- Generator: Adobe Illustrator 27.9.3, SVG Export Plug-In . SVG Version: 9.03 Build 53313)  -->
<svg version="1.1" id="Layer_1" xmlns="http://www.w3.org/2000/svg" xmlns:xlink="http://www.w3.org/1999/xlink" x="0px" y="0px"
     viewBox="0 0 820.1 127.7" style="enable-background:new 0 0 820.1 127.7;" xml:space="preserve">
<style type="text/css">
	.st0{fill:#EC6608;}
	.st1{fill:#0071B9;}
	.st2{font-family:'PTRootUI-Bold';}
	.st3{font-size:54.5px;}
	.st4{letter-spacing:1;}
</style>
  <g>
	<path class="st0" d="M12.2,92.3c14.4,22.3,39.3,35.6,65.8,35.4c-7.5-10.6-17.4-19.2-28.8-25.4C37.8,96.1,25.1,92.7,12.2,92.3z
		 M0,54.7C0.5,62.4,2.1,70,4.7,77.3c13.1,0.1,33.2,4.8,50.4,14.1s32.1,23.4,39.5,34.2c7.5-1.8,14.7-4.7,21.4-8.5V25.3
		C115.9,11.3,104.5-0.1,90.4,0c-4.9,0-9.7,1.5-13.8,4.2L0,54.7z M93.7,19.5c0.9,0.5,2.5,1.5,2.5,4.6v75
		c-7.7-9.9-18.8-18.7-31.6-25.6S38.6,62.3,26.1,61.4L88.5,20C90,18.7,92.1,18.6,93.7,19.5z M501.6,18.6h37.2V3.7h-37.2V18.6z
		 M556.3,32.2v76.5h-17.4V48.3l-28.6,60.4h-26.1V32.2h17.4v60.4l28.6-60.4L556.3,32.2z M420.4,30.9c12.4,0,21.7,5.6,26.1,14.9V32.2
		h18.4v76.5h-18.4V95.1c-4.4,9.3-13.9,14.9-26.1,14.9c-18.6,0-33.6-16.9-33.6-39.5C386.8,47.4,401.8,31,420.4,30.9L420.4,30.9z
		 M425.9,47.6c-12.7,0-20.8,9.8-20.8,22.8c0,13.8,8.8,22.8,20.8,22.8c12.5,0,20.6-9.8,20.6-22.8S438.5,47.6,425.9,47.6L425.9,47.6z
		 M357.2,49.1v59.6h-18.4V49.1h-23.6V32.2h65.6v16.9L357.2,49.1z M291.7,83.8l15.4,8.4c-5.7,11.9-18.2,18.2-33.5,18.2
		c-22.1,0-38-16.5-38-39.9c0-22.2,14.9-39.7,38-39.7c22.4,0,36.6,16.5,36.6,39.7c0,2.1,0,4.1-0.2,6.2h-56.2
		c1.9,10.3,8.6,17.5,20.6,17.5C281.7,94.5,288.5,90.4,291.7,83.8z M273.6,46.8c-10.8,0-17.8,6.2-19.8,16.3h38.2
		C290.8,53,284.4,46.8,273.6,46.8L273.6,46.8z M207.6,32.2h-29.1L155,108.7h18l19.5-65.3l19.5,65.3h19.1L207.6,32.2z"/>
    <text transform="matrix(1 0 0 1 606.0298 108.666)" class="st1 st2 st3 st4">Бизнес</text>
</g>
</svg>
