<svg width="145" height="133" viewBox="0 0 145 133" fill="none" xmlns="http://www.w3.org/2000/svg">
  <g clip-path="url(#clip0_7_605)">
    <path d="M113.189 133C106.209 132.46 99.8059 131.288 94.4146 126.991C91.4447 124.625 91.1969 123.493 92.8342 120.146C93.5614 118.657 93.6305 117.16 92.7733 115.687C90.1731 111.219 88.7633 106.586 90.2015 101.352C90.6809 99.607 89.1859 100.459 88.5561 100.585C83.7621 101.534 79.5937 99.8504 77.9808 95.2939C76.9163 92.2832 75.4903 90.4493 72.7398 88.7735C68.6445 86.2782 67.9864 81.1576 70.4443 76.9216C71.1919 75.6314 71.9841 74.2843 73.2192 73.4606C75.1571 72.1744 75.1937 70.665 74.6168 68.616C70.3712 53.4573 66.2231 38.2701 62.0507 23.0911C61.7663 22.0483 61.4494 21.0056 61.2869 19.9425C60.6287 15.5929 62.9973 11.7586 67.2307 10.586C79.748 7.12088 92.2776 3.70043 104.823 0.340837C109.54 -0.921038 113.733 1.50533 115.045 6.21606C118.726 19.4272 122.334 32.6586 125.97 45.886C127.258 50.5764 128.558 55.2669 129.826 59.9614C130.159 61.1949 130.841 62.1159 131.881 62.8665C133.917 64.3394 136.103 65.5526 138.284 66.7779C144.261 70.1375 146.345 75.4082 144.139 81.8636C141.295 90.1774 137.858 98.2761 135.201 106.659C133.957 110.578 133.324 114.599 134.083 118.641C134.697 121.903 133.324 124.114 131.114 126.094C125.921 130.752 119.571 132.347 113.189 133.012V133ZM87.2032 64.8872C87.1992 60.4321 90.3966 57.1496 94.2846 56.8939C98.2783 56.6302 101.488 58.3911 104.417 60.8378C107.887 63.7308 109.646 67.6868 111.003 71.8254C111.454 73.1969 111.994 73.4363 113.315 73.0265C116.349 72.0892 119.445 71.3426 122.496 70.4459C125.889 69.4437 126.486 68.2914 125.564 64.9358C120.404 46.1741 115.248 27.4083 110.093 8.64649C109.305 5.7738 108.013 5.00288 105.161 5.78191C102.552 6.49603 99.9481 7.23855 97.3398 7.95672C88.0767 10.4967 78.8014 13.0002 69.5465 15.5767C66.8569 16.3273 66.2962 17.4309 66.9463 20.1007C67.2307 21.2815 67.5598 22.4541 67.8807 23.6267C72.561 40.7005 77.282 57.7663 81.9054 74.8564C83.5549 80.9588 83.9368 81.2672 89.9212 79.4778C90.0512 79.4373 90.1772 79.3805 90.3072 79.3521C91.4976 79.064 91.8063 78.3864 91.3554 77.2422C90.8353 75.9235 90.4006 74.5723 89.9375 73.2293C88.9096 70.243 87.3129 67.4231 87.2032 64.8872ZM122.33 76.313C123.094 77.3436 123.886 77.867 125.129 77.6682C126.328 77.4775 127.221 78.0983 127.823 79.1046C128.465 80.1798 128.16 81.1698 127.481 82.1193C126.291 83.7828 124.804 85.1583 123.325 86.55C122.5 87.325 120.774 87.8606 120.92 88.7573C121.107 89.9258 122.903 89.796 123.979 90.287C124.101 90.3438 124.227 90.3965 124.345 90.4614C125.641 91.1674 126.198 92.2305 125.767 93.6668C125.361 95.0302 124.308 95.6347 122.96 95.4724C121.968 95.3507 120.977 95.0383 120.047 94.6609C113.172 91.8775 109.638 86.3958 107.736 79.5347C106.729 75.891 105.725 72.2271 103.97 68.8432C102.341 65.7027 99.8709 63.4386 96.4298 62.5054C93.6183 61.7426 92.2167 63.2845 93.0861 66.0233C93.5736 67.5651 94.1952 69.0704 94.8047 70.5717C98.6602 80.1068 100.541 89.8609 96.576 99.7571C94.5487 104.813 95.0809 109.231 97.8598 113.609C99.3753 115.995 99.4484 118.499 98.4611 120.986C97.872 122.463 98.2377 123.246 99.5093 123.927C107.96 128.456 116.423 128.553 124.889 123.988C127.514 122.576 129.395 120.73 128.351 117.371C128.274 117.123 128.343 116.831 128.326 116.563C127.961 109.738 130.496 103.563 132.71 97.3307C134.725 91.6665 136.94 86.0712 139.008 80.4232C140.413 76.5889 139.361 73.7649 135.867 71.651C134.941 71.091 133.99 70.5757 133.072 69.9996C132.032 69.3463 131.325 69.2449 130.772 70.6609C129.923 72.8479 128.27 74.3127 126.031 75.0795C124.833 75.4893 123.63 75.8789 122.33 76.309V76.313ZM93.2649 87.6537C93.1064 86.7286 93.6671 85.1705 92.4645 84.7201C91.2172 84.2535 89.8196 84.8905 88.804 85.9049C87.2642 87.4427 85.5172 88.6761 83.5386 89.5931C82.9292 89.8772 82.3157 90.1693 82.2385 90.9848C81.9826 93.6547 84.8915 96.0202 87.5282 95.2777C91.7941 94.0766 93.2324 92.2061 93.2649 87.6537ZM115.277 78.2444C113.818 78.1957 113.201 78.9869 113.701 80.4273C114.095 81.5593 114.635 82.6508 115.167 83.7301C115.5 84.4077 115.98 85.1543 116.861 84.5375C117.966 83.7625 119.506 83.3487 119.754 81.746C119.835 81.2063 115.915 78.2647 115.281 78.2444H115.277ZM80.8409 84.716C78.968 82.9186 77.8182 80.9101 77.2454 78.5811C76.9447 77.3558 76.4328 77.863 75.9169 78.4432C74.5802 79.9445 74.2877 82.4073 75.279 83.8721C76.3028 85.3815 78.1595 85.7182 80.8409 84.716Z" fill="#B4DCFA" />
    <path d="M67.0802 109.081C53.4171 109.422 40.4285 106.61 28.3011 100.337C17.8598 94.9368 9.07206 87.5846 4.00986 76.7228C-3.05935 61.56 -0.581067 47.4278 9.88055 34.7198C20.204 22.1822 34.1637 15.8972 49.7566 12.7242C51.146 12.4402 52.5274 12.0669 53.929 11.9006C55.871 11.6733 57.1914 12.5822 57.4596 14.1362C57.7196 15.6497 56.7161 16.9115 54.7456 17.3011C49.4315 18.3519 44.1296 19.4393 39.039 21.322C27.5373 25.5783 17.6079 31.9567 10.8678 42.5102C2.09223 56.2528 4.52989 72.1013 15.1987 83.7463C24.734 94.1496 36.9385 99.5583 50.5122 102.273C59.8119 104.135 69.1847 104.115 78.5819 103.064C80.6092 102.837 81.8483 103.689 82.0921 105.275C82.3481 106.943 81.2674 108.176 79.236 108.521C78.9028 108.578 78.5616 108.57 78.2243 108.615C74.5232 109.097 70.7976 109.069 67.0761 109.077L67.0802 109.081Z" fill="#B4DCFA" />
    <path d="M58.8613 60.0506C58.6338 69.0542 56.5008 77.4247 52.564 85.3449C51.7839 86.9192 50.2441 87.5644 48.8913 86.8665C47.3677 86.0834 47.0224 84.7972 47.6562 83.2716C49.2407 79.4738 50.9389 75.7246 51.8896 71.6875C54.506 60.5619 53.3197 49.8461 48.5825 39.4792C48.2453 38.7408 47.8837 38.0145 47.5749 37.2679C46.9289 35.7139 47.3352 34.4682 48.8141 33.6689C50.167 32.9386 51.7555 33.5391 52.5274 35.0809C54.8919 39.816 56.6389 44.7702 57.6953 49.9637C58.3819 53.3436 58.7353 56.7641 58.8613 60.0506Z" fill="#B4DCFA" />
    <path d="M41.9033 60.2251C42.0292 54.2687 40.3147 48.6856 37.8243 43.2892C37.6252 42.8591 37.3936 42.4452 37.223 42.0029C36.6176 40.4205 36.772 39.0045 38.4418 38.2214C40.1116 37.4383 41.3426 38.1889 42.1064 39.7186C44.2231 43.9708 45.8238 48.3935 46.7908 53.0677C48.7896 62.7529 46.4576 71.6956 42.3299 80.3542C41.371 82.3667 40.0263 82.9997 38.5027 82.3221C36.8979 81.608 36.451 80.0458 37.4342 78.0009C40.136 72.3934 41.9967 66.5831 41.9033 60.2251Z" fill="#B4DCFA" />
    <path d="M36.2113 60.3509C36.13 66.0273 34.4359 71.2574 31.6935 76.1629C30.9175 77.5546 29.7231 78.4797 27.9923 77.6804C26.4363 76.9662 26.0341 75.3919 26.9888 73.5417C28.9268 69.7845 30.4137 65.8974 30.7103 61.6412C31.0231 57.2063 29.8531 53.0758 28.037 49.0914C27.6714 48.2921 27.2732 47.509 26.8629 46.7299C26.0138 45.1353 26.3916 43.8329 27.8583 42.8834C29.0974 42.0801 30.8281 42.6075 31.6488 44.1331C34.3709 49.1928 36.2113 54.5203 36.2154 60.3509H36.2113Z" fill="#B4DCFA" />
    <path d="M19.7817 60.5578C19.7817 57.5228 18.9894 55.1127 17.8234 52.7837C16.9378 51.0187 17.3359 49.5012 18.7904 48.7708C20.2773 48.0283 21.3865 48.6248 22.2965 49.838C26.1318 54.9382 26.083 65.6702 22.2072 70.811C21.2646 72.0567 20.062 72.5476 18.6726 71.7646C17.084 70.8678 16.9459 69.3788 17.7056 67.8937C18.9529 65.4471 19.8304 62.9314 19.7858 60.5578H19.7817Z" fill="#B4DCFA" />
    <path d="M89.779 40.384C87.9183 40.3718 86.9229 39.6983 86.5573 38.3999C85.1516 33.4619 83.7702 28.5159 82.4864 23.5414C82.0639 21.8981 83.0105 20.7458 84.5421 20.2954C88.4993 19.1309 92.4808 18.0395 96.4745 17.0048C98.1361 16.5747 99.3306 17.4877 99.7694 18.9889C101.195 23.8498 102.512 28.7472 103.804 33.6445C104.149 34.9551 103.682 36.2738 102.394 36.6836C98.0793 38.0591 93.7077 39.2438 89.7872 40.3799L89.779 40.384ZM88.7065 25.6107C89.0884 27.0349 89.4093 28.3455 89.7912 29.6357C90.8042 33.044 92.9873 34.1274 96.3404 32.8858C96.5923 32.7925 96.8482 32.7073 97.092 32.5896C97.5024 32.3948 97.7299 32.054 97.6039 31.6077C96.8808 29.015 96.4054 26.3005 95.3003 23.8782C94.5447 22.2227 92.8871 23.724 91.7332 23.9715C90.6607 24.1987 89.0843 24.0405 88.7065 25.6107Z" fill="#B4DCFA" />
  </g>
  <defs>
    <clipPath id="clip0_7_605">
      <rect width="145" height="133" fill="white" />
    </clipPath>
  </defs>
</svg>