<svg width="83" height="123" viewBox="0 0 83 123" fill="none" xmlns="http://www.w3.org/2000/svg">
  <g clip-path="url(#clip0_10_834)">
    <path d="M0.00657496 61.4392C0.00657496 44.871 -0.0159601 28.3029 0.0194522 11.7347C0.0291101 6.68404 2.34057 2.97914 7.00533 0.824615C8.28662 0.233238 9.6516 -0.00011638 11.0713 -0.00011638C26.6302 0.00627688 42.1891 -0.0192962 57.7479 0.0158668C63.8067 0.0286533 68.6292 4.88114 68.6903 10.9164C68.7322 15.1231 68.7097 19.3331 68.7 23.5431C68.6968 25.3843 67.9402 26.3721 66.5978 26.3625C65.3004 26.3529 64.6018 25.362 64.5954 23.46C64.5857 19.8382 64.6018 16.2164 64.589 12.5914C64.5664 7.0101 61.6433 4.08198 56.0417 4.07559C41.6096 4.0628 27.1775 4.0628 12.7453 4.07559C9.62584 4.07559 6.90875 4.93868 5.26691 7.85401C4.39448 9.40118 4.32044 11.1082 4.32044 12.8184C4.314 26.5096 4.31722 40.2007 4.31722 53.8919C4.31722 72.6433 4.31722 91.3948 4.31722 110.149C4.31722 111.805 4.3816 113.464 5.17999 114.973C6.63833 117.732 9.12685 118.86 12.0886 118.87C27.0036 118.918 41.9186 118.94 56.8337 118.863C61.5403 118.838 64.4376 115.884 64.56 111.198C64.6727 106.94 64.56 102.676 64.605 98.4146C64.6179 97.2318 64.061 96.9761 63.0179 97.0177C60.2783 97.1263 57.5483 96.9665 54.8474 96.4774C53.1637 96.1738 52.3009 95.1988 52.5295 93.9777C52.758 92.7533 53.9138 92.0437 55.5266 92.2131C58.7234 92.5456 61.8976 93.0411 65.133 92.4465C67.7246 91.9702 69.6851 90.618 71.2078 88.5881C73.0074 86.1971 72.869 83.6494 70.7732 81.5044C67.9724 78.637 65.1105 75.8272 62.2453 73.0205C60.8707 71.6716 59.5475 71.678 58.189 73.0333C56.4087 74.8043 54.5898 76.5496 52.948 78.4452C51.3866 80.2449 49.6321 80.7436 47.2595 80.4655C38.5319 79.4426 30.9537 71.662 30.4515 63.0503C30.371 61.6725 30.7219 60.5505 31.5976 59.5212C33.4068 57.4018 35.4672 55.535 37.5179 53.6586C39.6233 51.731 39.6748 50.593 37.6756 48.6047C34.4563 45.3985 31.2338 42.1922 28.0016 38.9988C26.2535 37.2726 25.3425 37.3142 23.5075 38.9732C17.9381 44.0143 17.0528 50.3724 18.7429 57.1589C21.431 67.9539 27.8825 76.3994 36.3235 83.4639C39.1275 85.8103 42.2148 87.7155 45.5661 89.2115C47.1307 89.9083 47.6554 91.0112 47.1403 92.2099C46.6317 93.3991 45.4341 93.7986 43.8567 93.1178C38.5738 90.8386 34.0249 87.4885 29.9171 83.5215C23.0407 76.8757 17.658 69.2581 14.9795 60.0103C12.7389 52.2744 13.0544 44.8326 18.3083 38.1773C18.4081 38.0526 18.5047 37.9247 18.6045 37.8001C22.8894 32.5768 27.538 31.7936 32.3187 37.1128C35.0293 40.1304 38.0684 42.8507 40.9335 45.7341C44.4072 49.228 44.375 52.9009 40.8724 56.3501C39.2337 57.9644 37.6241 59.6075 35.9179 61.1483C34.8652 62.1009 34.6752 63.1749 34.9328 64.4664C36.1014 70.3098 41.2812 75.1751 47.253 76.0669C48.4023 76.2396 49.3102 76.0318 50.1375 75.1399C51.8083 73.3402 53.5468 71.598 55.2981 69.8719C58.218 66.9949 62.0779 66.899 65.0558 69.7312C68.04 72.5666 70.976 75.4564 73.8155 78.4324C77.9426 82.7575 77.6658 88.6425 73.2263 92.8045C72.4505 93.5333 71.665 94.3677 70.7185 94.7832C68.9318 95.5696 68.6099 96.8323 68.6517 98.6064C68.7612 103.078 68.7161 107.557 68.6775 112.029C68.6227 118.154 63.797 122.968 57.6224 122.981C42.3339 123.016 27.0423 123.003 11.7538 122.99C4.88381 122.984 0.0130136 118.163 0.00335566 111.307C-0.0223987 94.6841 -0.00308294 78.0648 -0.00630224 61.4423L0.00657496 61.4392Z" fill="#FE5000" />
    <path d="M50.6075 28.3062C55.3818 29.0638 59.7664 30.5886 63.7745 33.0564C73.1394 38.8199 79.5812 46.8147 82.4368 57.4914C82.6686 58.3641 82.8488 59.256 82.9679 60.151C83.1579 61.5831 82.4915 62.6252 81.2553 62.7723C79.9354 62.9321 79.0436 62.2512 78.7764 61.0077C78.2227 58.4536 77.6722 55.8963 76.5229 53.5308C71.24 42.6303 62.9632 35.3452 50.8683 32.7175C49.1589 32.3467 48.2414 31.5348 48.4055 30.3105C48.5794 29.0094 49.4454 28.4021 50.6075 28.303V28.3062Z" fill="#FE5000" />
    <path d="M49.8991 40.4214C51.9369 40.773 53.9457 41.5562 55.8258 42.5695C63.0467 46.4566 68.2072 52.1275 70.7344 59.9944C71.2977 61.7461 70.8116 62.9928 69.4402 63.3732C68.175 63.7248 67.2189 62.9513 66.6137 61.2219C63.7871 53.1728 58.3851 47.6682 50.1985 44.9318C49.6415 44.7464 49.0781 44.5418 48.5824 44.2414C47.6938 43.7043 47.4073 42.8764 47.726 41.8982C48.0447 40.9233 48.7787 40.4661 49.8991 40.4246V40.4214Z" fill="#FE5000" />
    <path d="M34.2954 13.3012C30.5449 13.3012 26.7912 13.3204 23.0407 13.2916C21.3442 13.2788 20.2367 12.2911 20.4202 10.9709C20.6037 9.66665 21.4794 9.01773 22.7639 9.01773C30.4805 9.00175 38.2004 8.99216 45.9171 9.02413C47.4849 9.03052 48.3895 9.91599 48.3702 11.1882C48.3509 12.4637 47.443 13.2788 45.8688 13.2916C42.0088 13.3204 38.1521 13.3012 34.2922 13.3012H34.2954Z" fill="#FE5000" />
    <path d="M34.3079 114.951C33.3421 114.951 32.3731 115.005 31.4137 114.938C30.2516 114.855 29.4854 114.152 29.392 113.02C29.2954 111.866 30.0101 111.003 31.1143 110.837C33.2906 110.514 35.5055 110.53 37.6817 110.824C38.8052 110.974 39.4555 111.821 39.3525 113.014C39.2495 114.187 38.5219 114.858 37.363 114.945C36.3489 115.018 35.3252 114.961 34.3079 114.961C34.3079 114.961 34.3079 114.957 34.3079 114.954V114.951Z" fill="#FE5000" />
  </g>
  <defs>
    <clipPath id="clip0_10_834">
      <rect width="83" height="123" fill="white" />
    </clipPath>
  </defs>
</svg>