<svg width="128" height="92" viewBox="0 0 128 92" fill="none" xmlns="http://www.w3.org/2000/svg">
  <g clip-path="url(#clip0_10_812)">
    <path d="M59.5246 91.9998C43.1287 91.9998 26.7361 91.9998 10.3401 91.9998C5.97938 91.9998 2.6191 90.3523 0.681364 86.28C0.0930643 85.0427 2.3216e-10 83.7459 2.3216e-10 82.4127C0.00332373 61.1313 -0.00664745 39.8532 0.00997118 18.5751C0.0132949 13.0108 3.91202 9.15677 9.54574 9.15347C30.2592 9.13692 50.976 9.14685 71.6894 9.14685C75.9538 9.14685 80.2181 9.11046 84.4825 9.17001C85.7023 9.18655 86.5465 8.78957 87.3475 7.87982C91.788 2.83818 97.4649 0.178421 104.136 0.00639656C114.575 -0.261565 123.726 6.13642 126.764 15.922C129.635 25.165 127.472 33.3394 120.465 40.1212C119.594 40.9648 119.445 41.848 119.448 42.9265C119.461 55.7159 119.455 68.5052 119.458 81.2946C119.458 84.8376 118.431 87.9109 115.463 90.1307C113.452 91.6359 111.132 91.9965 108.709 91.9965C92.3132 91.9965 75.9205 91.9965 59.5246 91.9965V91.9998ZM110.434 87.4577C110.235 87.1236 110.172 86.9648 110.065 86.8457C102.942 78.8465 95.8164 70.8474 88.6936 62.8482C86.7492 60.6616 84.7949 58.4848 82.8838 56.2683C81.9996 55.2461 81.9498 54.1544 83.0067 53.1917C84.0637 52.229 85.1273 52.4507 86.1277 53.3174C86.4601 53.6052 86.7559 53.9394 87.0484 54.2702C95.7865 64.0855 104.525 73.9008 113.269 83.7128C113.548 84.0271 113.725 84.6292 114.223 84.5134C114.825 84.3745 114.679 83.7194 114.765 83.2563C114.805 83.0413 114.798 82.8163 114.798 82.598C114.798 70.3048 114.792 58.015 114.818 45.7219C114.818 44.3722 114.489 44.1671 113.18 44.6401C105.741 47.3363 98.6083 46.7011 91.9276 42.3509C90.9338 41.7025 90.2126 41.7289 89.2454 42.4005C83.1596 46.6217 77.0141 50.7569 70.9217 54.9748C63.3303 60.2315 56.2042 60.3407 48.5862 55.1402C34.3407 45.4142 20.1252 35.6485 5.88632 25.9126C5.46088 25.6215 5.05206 24.9334 4.49368 25.251C3.97185 25.5487 4.25437 26.2666 4.25437 26.7926C4.24107 44.8717 4.2444 62.9508 4.24107 81.0299C4.24107 81.9165 4.27431 82.7965 4.55018 83.6434C4.64989 83.9477 4.75625 84.3877 4.98226 84.4869C5.421 84.6755 5.62374 84.176 5.86638 83.9047C12.9127 75.985 19.949 68.0553 26.992 60.1356C28.9729 57.9059 30.9505 55.6762 32.968 53.4828C33.676 52.712 34.5601 52.2787 35.6503 52.7881C36.4746 53.1752 36.9532 53.8004 36.9764 54.7201C36.9997 55.6894 36.3815 56.3345 35.7866 56.9994C28.4677 65.1937 21.1522 73.3914 13.8433 81.5956C12.1715 83.4713 10.5196 85.3669 8.67825 87.4577H110.441H110.434ZM45.5749 13.5732C33.7292 13.5732 21.8834 13.5864 10.0377 13.5599C8.15642 13.5566 6.5278 13.9735 5.36449 15.5448C3.73587 17.7448 3.98182 19.1904 6.2054 20.7155C21.0159 30.8716 35.8298 41.0243 50.6336 51.1903C57.0584 55.6001 62.2401 55.5934 68.6781 51.1506C74.3617 47.2271 80.0386 43.2904 85.7721 39.4397C86.9055 38.6788 87.0982 38.2388 86.2407 37.0644C81.4313 30.4646 80.2314 23.2462 82.8272 15.4621C83.4521 13.5864 83.4654 13.5798 81.4413 13.5765C69.4858 13.5732 57.527 13.5765 45.5716 13.5765L45.5749 13.5732ZM104.824 4.39302C94.5534 4.36986 85.9914 12.7693 85.9582 22.9055C85.9216 33.2799 94.2841 41.8083 104.564 41.8811C114.981 41.9572 123.54 33.4188 123.56 22.922C123.579 12.9579 114.944 4.41287 104.824 4.38971V4.39302Z" fill="#FE5000" />
    <path d="M105.083 18.3207C103.697 19.3396 102.7 20.1237 101.653 20.8283C100.353 21.7017 98.9972 21.5594 98.2826 20.4545C97.4683 19.2007 97.897 18.1288 99.0005 17.2919C101.197 15.6213 103.384 13.9341 105.645 12.3429C107.566 10.9898 109.513 11.9657 109.537 14.3079C109.59 20.1998 109.573 26.0916 109.543 31.9834C109.537 33.5581 108.606 34.5076 107.287 34.4844C105.977 34.4612 105.116 33.5085 105.103 31.9007C105.07 28.103 105.09 24.3019 105.086 20.5008C105.086 19.9086 105.086 19.3165 105.086 18.3174L105.083 18.3207Z" fill="#FE5000" />
  </g>
  <defs>
    <clipPath id="clip0_10_812">
      <rect width="128" height="92" fill="white" />
    </clipPath>
  </defs>
</svg>