<svg width="103" height="103" viewBox="0 0 103 103" fill="none" xmlns="http://www.w3.org/2000/svg">
<g clip-path="url(#clip0_69_10)">
<path d="M55.4332 81.1341C54.8552 80.5188 54.5662 80.1924 54.2558 79.8847C46.0279 71.6552 37.7893 63.4364 29.5775 55.1935C26.1472 51.7503 26.5191 46.5038 30.3401 43.7803C33.179 41.755 37.1712 42.0868 39.7747 44.6471C43.2719 48.085 46.737 51.5577 50.1753 55.0517C50.8871 55.7768 51.2189 55.8971 51.7728 54.8751C52.835 52.9248 54.5742 51.7637 56.771 51.448C57.6567 51.3222 57.9858 50.9477 58.1062 50.1183C58.339 48.5264 59.0748 47.154 60.2415 46.0463C60.8061 45.5086 61.0201 44.9254 61.0201 44.1575C61.0014 35.5963 60.9907 27.0377 61.0308 18.4764C61.0362 17.3554 60.6669 17.037 59.5699 17.037C41.5996 17.0638 23.6293 17.0691 5.65902 17.0317C4.41747 17.0317 4.19003 17.4945 4.19539 18.6048C4.23285 26.2297 4.21679 33.8519 4.21412 41.4768C4.21412 41.9664 4.24087 42.4667 4.14455 42.9429C3.93316 44.005 3.20804 44.5561 2.15112 44.5695C1.03266 44.5856 0.286127 44.0211 0.0586891 42.8947C-0.0189074 42.5068 0.00249857 42.0948 0.00249857 41.6962C0.00249857 30.727 -0.00820439 19.7606 0.00249857 8.79148C0.0132015 3.5049 3.5104 0.0108313 8.80836 0.00815587C24.6835 0.000129685 40.556 0.000129685 56.4312 0.00815587C61.7238 0.0108313 65.213 3.51025 65.2184 8.8102C65.2291 19.9559 65.2183 31.1016 65.2317 42.25C65.2317 42.7957 64.9481 43.5796 65.5983 43.8258C66.4947 44.1655 67.482 44.3127 68.4426 44.409C68.7691 44.4411 68.8654 43.8846 69.034 43.5796C71.4796 39.1117 77.0746 38.1566 80.7082 41.7149C85.8376 46.7366 90.9697 51.761 95.9145 56.962C105.379 66.9117 105.354 83.9808 95.8877 93.8984C87.5126 102.671 77.4492 105.007 65.9408 101.323C65.4324 101.159 64.9026 101.034 64.4237 100.806C63.5112 100.378 62.7567 100.496 61.97 101.154C60.4422 102.433 58.6521 102.952 56.6453 102.949C40.6363 102.925 24.63 102.944 8.62106 102.931C3.59067 102.925 0.018553 99.367 0.0105258 94.3559C-0.00552865 83.2985 0.00517432 72.2411 0.00517432 61.1837C0.00517432 60.8707 -0.00552865 60.5577 0.0319317 60.2473C0.17107 59.0889 0.955063 58.3719 2.0762 58.3532C3.24282 58.3344 4.0723 59.0889 4.19271 60.3115C4.23552 60.753 4.21679 61.2024 4.21679 61.6492C4.21679 69.1832 4.24622 76.7197 4.19003 84.2537C4.17933 85.5459 4.56464 85.9124 5.84899 85.907C17.4858 85.8616 29.1253 85.8669 40.7647 85.9017C41.8136 85.9044 42.3247 85.6047 42.7261 84.5907C44.0292 81.3241 47.6896 79.454 51.1359 80.1683C52.4363 80.4385 53.7287 80.7489 55.4332 81.1315V81.1341ZM74.934 98.559C80.3604 98.5697 84.9867 97.1089 88.8906 94.2891C100.362 85.998 102.015 69.868 92.3209 59.5651C87.6812 54.6344 82.7926 49.9337 78.0137 45.134C77.7943 44.9146 77.5508 44.7113 77.294 44.5401C76.2772 43.8632 75.1801 43.7963 74.1286 44.3742C73.0074 44.9922 72.5579 46.0142 72.673 47.2984C72.7506 48.1653 73.2375 48.7779 73.8128 49.3558C76.1728 51.7235 78.5489 54.0752 80.8848 56.4643C81.9926 57.5987 82.014 58.8481 81.0427 59.7631C80.1303 60.6219 78.8967 60.5443 77.8238 59.5517C77.5937 59.3404 77.3796 59.1156 77.1575 58.8936C74.0349 55.7741 70.915 52.6546 67.7924 49.5351C66.8907 48.6334 65.8712 48.0609 64.5521 48.4783C62.2724 49.198 61.6864 51.8332 63.4577 53.6364C66.583 56.8148 69.7591 59.9423 72.9031 63.102C73.3098 63.5086 73.7192 63.9394 74.0082 64.429C74.5165 65.2931 74.3801 66.16 73.7031 66.893C73.0208 67.6314 72.178 67.7518 71.2575 67.3826C70.7009 67.1606 70.3156 66.7164 69.9089 66.3071C66.7542 63.1555 63.5995 60.0092 60.4529 56.8496C59.6555 56.0496 58.7591 55.5413 57.5925 55.7366C56.4392 55.9292 55.6606 56.574 55.2699 57.6923C54.8151 58.9926 55.2271 60.0601 56.1396 60.9777C59.1578 64.0116 62.1894 67.0321 65.2103 70.0634C65.5234 70.3791 65.8525 70.6921 66.096 71.0586C66.682 71.9415 66.6606 72.8297 65.9194 73.627C65.1702 74.4323 64.2685 74.7266 63.2838 74.1059C62.7246 73.7554 62.2269 73.2899 61.7559 72.8217C53.6484 64.7286 45.549 56.6249 37.4468 48.5264C37.1311 48.2107 36.8287 47.879 36.4862 47.5954C34.7042 46.1186 32.4057 46.8035 31.6993 49.0134C31.2284 50.4928 32.0713 51.4694 33.0104 52.4058C43.0043 62.3957 52.9956 72.3883 62.9895 82.3809C63.3052 82.6966 63.6316 83.0016 63.926 83.336C64.6778 84.1894 65.1889 85.1124 64.4558 86.2254C63.744 87.3063 62.746 87.4882 61.5258 87.1725C57.9885 86.2629 54.4378 85.4014 50.8871 84.5479C49.9211 84.3152 48.9365 84.259 48.0454 84.8529C46.9591 85.5753 46.3437 86.5652 46.4935 87.8975C46.6594 89.3824 47.5344 90.2867 48.9338 90.7709C54.5341 92.7079 60.1371 94.6342 65.716 96.63C68.844 97.7483 71.996 98.6392 74.934 98.5536V98.559ZM32.5235 12.8447C41.0832 12.8447 49.6402 12.8581 58.1999 12.8367C61.4589 12.8286 60.988 13.2915 61.0067 9.99005C61.0281 5.75758 59.4521 4.21388 55.1736 4.21388C40.8209 4.21388 26.4683 4.21388 12.1129 4.21388C10.9998 4.21388 9.88134 4.17375 8.7709 4.2326C6.08981 4.3744 4.39874 6.06525 4.2382 8.74064C4.19003 9.54059 4.29974 10.3539 4.20609 11.1458C4.04287 12.5076 4.55929 12.8848 5.91856 12.8741C14.7886 12.8153 23.6587 12.8447 32.5288 12.8447H32.5235ZM57.2045 98.5135C57.0814 98.1737 56.8433 98.1577 56.6372 98.0854C53.5254 97.0046 50.4161 95.913 47.3016 94.8375C45.45 94.1981 43.9783 93.0477 43.098 91.3247C42.5843 90.3188 41.9528 90.07 40.9039 90.0753C29.6765 90.1074 18.4491 90.094 7.22165 90.094C5.21484 90.094 4.21322 91.1134 4.21679 93.152C4.22482 97.0554 5.86237 98.7195 9.72614 98.7195C25.0073 98.7222 40.2911 98.7222 55.5723 98.7142C56.0941 98.7142 56.6399 98.8372 57.2072 98.5082L57.2045 98.5135Z" fill="#FE5000"/>
<path d="M34.5224 23.5729C39.3334 23.7093 44.2273 25.5259 48.3159 29.3678C48.8109 29.8333 49.2604 30.3363 49.3648 31.0319C49.5039 31.9602 49.1346 32.696 48.3614 33.2043C47.4944 33.7742 46.6382 33.619 45.889 32.9956C44.1738 31.567 42.4694 30.141 40.3475 29.325C34.0194 26.8904 28.2077 27.7625 22.9097 32.003C22.6314 32.2251 22.3799 32.4793 22.1043 32.7067C20.8199 33.7768 19.6935 33.817 18.7971 32.8297C17.9194 31.8639 18.0372 30.6252 19.1449 29.5203C20.9002 27.7679 22.9391 26.4088 25.2028 25.4216C27.924 24.231 30.7791 23.5836 34.5224 23.5729Z" fill="#FE5000"/>
<path d="M33.7652 32.9635C36.9493 33.0331 39.5662 34.1059 41.8218 36.0884C42.5871 36.7626 42.9135 37.608 42.6406 38.6059C42.4105 39.4487 41.8299 39.9543 40.9576 40.1256C40.1789 40.2781 39.5929 39.9356 39.015 39.4728C35.5017 36.6636 32.0634 36.6636 28.6144 39.4514C27.4852 40.3664 26.2169 40.361 25.3981 39.438C24.5874 38.523 24.7265 37.0542 25.7834 36.1071C28.098 34.031 30.8272 33.0037 33.7679 32.9582L33.7652 32.9635Z" fill="#FE5000"/>
<path d="M4.2009 51.4478C4.21161 52.6384 3.3072 53.6149 2.16466 53.647C0.971282 53.6791 -0.00268812 52.6705 0.0187178 51.4264C0.0401237 50.2385 0.976633 49.2861 2.12185 49.2941C3.26707 49.3021 4.19287 50.2599 4.2009 51.4505V51.4478Z" fill="#FE5000"/>
<path d="M34.6856 94.4227C34.6776 95.6534 33.8347 96.4854 32.5798 96.5015C31.3035 96.5202 30.375 95.5865 30.4232 94.3291C30.4687 93.1251 31.3757 92.2877 32.6039 92.3172C33.8588 92.3466 34.691 93.1893 34.6856 94.42V94.4227Z" fill="#FE5000"/>
</g>
<defs>
<clipPath id="clip0_69_10">
<rect width="103" height="103" fill="white"/>
</clipPath>
</defs>
</svg>
