<svg width="103" height="85" viewBox="0 0 103 85" fill="none" xmlns="http://www.w3.org/2000/svg">
<path d="M0.00264226 70.5252C0.00264226 66.4581 -0.00538934 62.391 0.00531946 58.3239C0.0106739 56.573 0.554146 56.0211 2.31307 55.976C3.29292 55.9495 4.28081 55.9283 5.25531 56.0105C7.90574 56.2307 9.76908 58.2099 9.82797 60.8204C9.85475 62.0143 9.86278 63.2081 9.83065 64.402C9.80923 65.1953 10.1412 65.5189 10.9363 65.5163C15.3537 65.503 19.7711 65.503 24.1858 65.511C25.1202 65.511 25.669 65.0732 25.9822 64.2216C27.4895 60.1094 29.0128 56.0052 30.5308 51.8957C30.7396 51.3332 30.7717 50.8186 30.3969 50.2667C29.2912 48.6404 28.7665 46.8284 28.9271 44.8652C29.0075 43.8968 28.5925 43.4617 27.6956 43.1434C20.4752 40.5806 13.2682 37.978 6.06383 35.3753C0.886119 33.505 -1.12446 29.1434 0.770999 24.0045C2.97701 18.0273 5.16964 12.0474 7.35156 6.06216C9.2845 0.766744 13.742 -1.21506 19.1205 0.734907C32.8144 5.6987 46.5271 10.6068 60.229 15.5494C73.3446 20.2797 86.4575 25.0153 99.5624 29.7722C101.249 30.385 102.732 31.303 102.971 33.3007C103.179 35.0623 102.175 36.5666 100.176 37.5561C98.778 38.2459 97.3645 38.9012 95.9482 39.5485C95.3298 39.8298 94.9764 40.0712 95.5225 40.7981C96.3605 41.9124 96.3605 43.1089 95.8465 44.4301C94.4356 48.0568 93.1559 51.7338 91.7771 55.3738C90.8615 57.788 89.3489 58.5839 86.9742 57.6819C85.2448 57.024 84.0668 56.9789 82.5943 58.4831C80.5891 60.5339 77.861 61.1229 75.0366 60.136C68.4346 57.8305 61.8567 55.4587 55.2708 53.1081C52.8801 52.2538 50.4893 51.3943 48.112 50.5082C47.3918 50.2402 46.8992 50.3012 46.3986 50.9751C45.0841 52.7473 43.301 53.9146 41.1405 54.3975C40.15 54.6177 39.901 55.3181 39.6279 56.0556C38.2465 59.7884 36.8463 63.5159 35.5211 67.2699C33.6952 72.438 29.6045 75.4041 24.0975 75.4306C19.8595 75.4492 15.6188 75.481 11.3834 75.4094C10.1144 75.3881 9.72624 75.8206 9.82262 77.0145C9.90829 78.0677 9.85742 79.1369 9.83065 80.1954C9.75837 82.8192 7.86558 84.7878 5.21516 84.9602C4.23798 85.0239 3.25277 85 2.27023 84.9815C0.605013 84.9496 0.0160283 84.3766 0.00799667 82.729C-0.00806655 78.662 0.00264226 74.5949 0.00264226 70.5278V70.5252ZM85.1377 44.5203C84.4684 44.6423 84.0347 44.7113 83.6063 44.8015C79.9037 45.5682 76.2708 45.4356 72.6833 44.1383C59.6962 39.4424 46.7011 34.7758 33.7059 30.1011C31.5695 29.3318 29.4224 28.581 27.2914 27.7983C26.4373 27.4853 25.8216 26.9228 25.8591 25.9359C25.8858 25.2143 26.266 24.6678 26.9594 24.4131C27.626 24.1663 28.2712 24.3653 28.9111 24.5961C43.7856 29.9632 58.6601 35.3302 73.54 40.6867C77.422 42.0848 81.3494 42.1963 85.1564 40.5673C89.3302 38.7818 93.4156 36.7921 97.5304 34.8686C98.1194 34.5927 99.1046 34.4335 99.0912 33.7995C99.0752 33.0327 98.0525 32.9903 97.41 32.7595C86.1416 28.6818 74.8706 24.6147 63.5969 20.5529C48.0932 14.963 32.5869 9.38109 17.0752 3.8071C14.5987 2.91569 12.2348 3.84424 11.188 6.23992C10.3045 8.26417 9.50939 10.3415 8.87221 12.4533C8.02086 15.2841 9.1908 17.433 11.951 18.4995C12.2428 18.6109 12.548 18.6905 12.8318 18.8126C13.9535 19.3007 14.4542 20.2054 14.1169 21.1021C13.734 22.1156 12.7595 22.5241 11.5842 22.1315C9.96183 21.5929 8.40906 20.9058 7.22841 19.635C6.59391 18.9532 6.33958 19.1681 6.07989 19.903C5.3624 21.9484 4.52711 23.9568 3.906 26.0288C3.08946 28.7428 4.27546 30.966 6.9714 31.945C12.457 33.9401 17.956 35.8927 23.4469 37.8692C33.4222 41.4587 43.3974 45.0536 53.3727 48.6484C60.7055 51.2908 68.0303 53.9597 75.3739 56.5756C78.201 57.5838 80.6025 56.565 81.7055 53.8244C82.9076 50.8345 83.9463 47.7782 85.1403 44.5203H85.1377ZM17.9988 71.8782C17.9988 71.8782 17.9988 71.857 17.9988 71.8464C20.3601 71.8464 22.7321 71.9737 25.0827 71.8145C28.057 71.6129 30.4157 70.1644 31.5615 67.3946C33.1999 63.4337 34.6001 59.3772 36.0913 55.3579C36.2091 55.0395 36.3617 54.7185 35.9842 54.4028C34.6804 53.323 33.7113 53.5644 33.1223 55.1695C31.9202 58.4486 30.7396 61.7331 29.5295 65.0095C28.4185 68.0207 26.9192 69.0607 23.7146 69.066C19.5248 69.0713 15.3323 69.1032 11.1425 69.0474C10.01 69.0315 9.81994 69.5117 9.81191 70.4774C9.80388 71.4829 10.0957 71.9233 11.1773 71.8968C13.4502 71.8411 15.7232 71.8809 17.9961 71.8809L17.9988 71.8782ZM3.41608 70.4721C3.41608 73.6982 3.43482 76.9242 3.40269 80.1503C3.39466 81.0205 3.62757 81.4821 4.60475 81.4317C5.88178 81.3654 6.41722 80.7287 6.42257 79.036C6.43328 73.3347 6.4306 67.636 6.4199 61.9347C6.4199 61.4996 6.38777 61.038 6.23517 60.6374C5.85768 59.6372 4.99027 59.4117 4.04254 59.5549C3.09749 59.6982 3.43214 60.51 3.42678 61.0592C3.39733 64.1951 3.4134 67.3336 3.4134 70.4721H3.41608ZM38.7766 51.1714C40.1607 51.2271 41.4323 50.6647 42.5916 49.7786C43.3733 49.179 43.2903 48.7863 42.3533 48.4574C39.4619 47.4439 36.5866 46.3854 33.7006 45.3613C32.5842 44.966 32.3807 45.1623 32.6003 46.3562C33.0929 49.049 35.7567 51.1635 38.7792 51.1714H38.7766ZM90.6393 42.2573C89.962 42.1644 89.6541 42.6101 89.4399 43.1964C88.3342 46.2182 87.2634 49.2533 86.0988 52.2538C85.6544 53.3999 86.2487 53.6971 87.1295 54.0605C88.0933 54.4585 88.4761 54.1189 88.7894 53.2381C89.8495 50.2482 90.9659 47.2741 92.0636 44.2974C92.5616 42.9471 92.1493 42.3289 90.6393 42.2573Z" fill="#FE5000"/>
</svg>
