<svg width="103" height="103" viewBox="0 0 103 103" fill="none" xmlns="http://www.w3.org/2000/svg">
<g clip-path="url(#clip0_23_32)">
<path d="M34.6668 65.2869C30.6266 65.2869 26.5837 65.2869 22.5435 65.2869C12.8481 65.2786 5.06264 60.0287 1.82994 50.9191C-0.744097 43.665 0.63111 36.8816 5.36855 30.8553C8.90165 26.3625 13.5977 23.7802 19.297 23.0919C20.0521 23.0011 20.2809 22.6019 20.3415 21.9137C21.2317 11.612 28.8739 2.99794 39.2857 0.99102C53.3768 -1.72342 65.5938 8.4984 67.0021 21.0933C67.1509 22.434 67.6194 22.9598 69.0608 23.2241C73.1864 23.9729 76.3888 26.2992 78.6349 29.8285C79.2053 30.7232 79.6876 30.9077 80.7184 30.6737C91.7393 28.1629 102.272 36.1273 102.443 47.3595C102.584 56.5241 96.0606 63.7755 87.4345 65.0198C83.3255 65.6145 79.1805 65.1988 75.0549 65.2786C72.3927 65.3309 69.7277 65.3006 67.0655 65.2786C66.1974 65.2703 65.1033 65.2951 65.1226 64.0811C65.1418 62.9578 66.1423 62.8147 67.0627 62.8147C72.988 62.8092 78.9132 62.6963 84.8329 62.8367C91.9956 63.0046 98.2653 57.7822 99.6571 51.0512C101.214 43.5246 97.4937 36.4714 90.6011 33.6441C87.3629 32.3144 84.02 32.0914 80.6302 33.1348C78.2105 33.8781 78.2077 33.8588 77.0171 31.7088C74.7876 27.6729 71.2435 25.6632 66.7623 25.2283C65.423 25.0989 65.0178 24.5593 64.9159 23.2599C64.26 14.9707 60.3245 8.73791 52.8339 5.00762C41.6614 -0.556154 27.9231 5.13425 23.8691 16.9253C21.1407 24.8566 22.6262 32.0006 28.0774 38.349C28.2868 38.5912 28.5321 38.8115 28.7057 39.0785C29.0695 39.6429 29.0916 40.2347 28.5514 40.689C27.9809 41.168 27.4463 40.923 26.9695 40.4577C24.8061 38.3379 23.2077 35.8465 22.0529 33.055C21.1876 30.9627 20.6116 28.7934 20.3939 26.5469C20.2974 25.5393 19.8482 25.3329 18.947 25.465C5.26933 27.4637 -1.64804 43.8274 6.5095 54.9494C10.3154 60.1415 15.4194 62.8367 21.9206 62.8202C30.4172 62.7982 38.9109 62.8119 47.4075 62.8202C48.0441 62.8202 48.6972 62.8532 49.3173 62.9854C49.8988 63.112 50.2902 63.5387 50.2461 64.1802C50.2047 64.761 49.772 65.0749 49.2594 65.1905C48.8185 65.2896 48.35 65.2924 47.8925 65.2924C43.483 65.2979 39.0763 65.2951 34.6668 65.2951V65.2869Z" fill="#FE5000" stroke="#FE5000" stroke-width="2" stroke-miterlimit="10"/>
<path d="M44.624 82.3692C44.624 83.8833 44.6846 85.3975 44.6047 86.9089C44.5358 88.1945 44.9657 88.7891 46.3189 88.6735C47.1842 88.5992 48.0689 88.6075 48.9315 88.7093C50.2405 88.8635 50.6842 89.8105 49.885 90.8346C46.8948 94.6668 43.8633 98.4631 40.8263 102.257C40.0932 103.171 39.283 103.171 38.5416 102.232C35.5845 98.4906 32.6164 94.7604 29.6924 90.9915C28.7333 89.7554 29.2073 88.8057 30.7892 88.6873C31.7014 88.6185 32.6274 88.6157 33.5424 88.668C34.6365 88.7313 34.981 88.2468 34.9672 87.2007C34.9259 83.9907 34.9452 80.7807 34.9562 77.5707C34.9672 74.4709 36.6841 72.4915 39.4373 72.3731C42.3283 72.2492 44.3842 74.1543 44.5826 77.2817C44.6901 78.972 44.6019 80.6734 44.6019 82.3692C44.6102 82.3692 44.6185 82.3692 44.6267 82.3692H44.624Z" fill="#FE5000"/>
<path d="M58.4312 92.7259C58.4312 91.3053 58.4339 89.8848 58.4312 88.4642C58.4275 87.1648 57.7532 86.5133 56.4083 86.5096C55.6284 86.5069 54.8429 86.5509 54.0713 86.4821C52.8035 86.3665 52.3681 85.4828 53.1535 84.4779C56.1685 80.6127 59.2249 76.7778 62.2977 72.9567C62.9922 72.095 63.8328 72.1749 64.508 73.0228C67.4761 76.7503 70.4249 80.4944 73.3738 84.2384C73.7183 84.6789 74.0021 85.1717 73.7376 85.7581C73.4482 86.405 72.8557 86.4986 72.2356 86.5041C71.4088 86.5124 70.5793 86.5702 69.7608 86.4986C68.5234 86.3912 68.0548 86.8372 68.0796 88.1256C68.1513 91.5145 68.1265 94.9062 68.0852 98.2979C68.0604 100.275 67.0434 101.723 65.2907 102.537C63.4607 103.388 61.6914 103.052 60.1564 101.747C58.8693 100.654 58.5111 99.132 58.4532 97.5408C58.3953 95.9386 58.4394 94.3336 58.4394 92.7286H58.4312V92.7259ZM60.9473 91.8449C60.9473 91.8449 60.9666 91.8449 60.9749 91.8449C60.9749 93.9069 60.9087 95.9689 60.9969 98.0253C61.0658 99.6468 62.1213 100.572 63.5434 100.484C64.8773 100.401 65.5718 99.5532 65.58 97.9097C65.5966 94.5676 65.5855 91.2227 65.5855 87.8806C65.5855 84.4394 65.5855 84.4256 68.9671 83.9961C69.7387 83.8998 69.8434 83.6217 69.386 83.0464C67.6249 80.8192 65.8446 78.6086 64.1084 76.3621C63.4828 75.5528 63.0611 75.773 62.5347 76.4502C61.019 78.4049 59.4508 80.3182 57.9489 82.281C57.6126 82.7188 56.863 83.1372 57.1965 83.7539C57.4666 84.2549 58.2107 83.9686 58.7398 83.9879C60.5064 84.0567 60.9225 84.4476 60.9418 86.2123C60.9583 88.0898 60.9446 89.9674 60.9446 91.8449H60.9473Z" fill="#FE5000"/>
<path d="M55.1929 65.2539C54.6445 65.2539 54.0933 65.2924 53.5504 65.2429C52.8973 65.1851 52.4122 64.8492 52.3626 64.1444C52.3102 63.4314 52.7457 63.0212 53.3961 62.9139C54.5729 62.7211 55.7662 62.7267 56.9402 62.9001C57.5741 62.9937 58.0398 63.4177 58.015 64.1197C57.9875 64.8299 57.4749 65.1575 56.8327 65.2291C56.2926 65.2869 55.7414 65.2401 55.1929 65.2401V65.2539Z" fill="#FE5000"/>
</g>
<defs>
<clipPath id="clip0_23_32">
<rect width="103" height="103" fill="white"/>
</clipPath>
</defs>
</svg>
