<svg width="101" height="86" viewBox="0 0 101 86" fill="none" xmlns="http://www.w3.org/2000/svg">
<g clip-path="url(#clip0_23_37)">
<path d="M50.2492 85.9895C37.2109 85.9895 24.1727 86.0159 11.1344 85.9737C6.13442 85.9578 2.58402 83.5659 0.514703 78.9722C0.147058 78.1565 0 77.3064 0 76.4114C0.00525207 54.1108 -0.00525207 31.8102 0.0131302 9.50959C0.0157562 4.96604 4.75313 0.161128 9.55877 0.087206C17.9568 -0.0421571 26.3602 -0.0131164 34.7582 0.087206C37.66 0.121527 40.0392 1.6026 41.8827 3.81497C44.8842 7.42394 47.8359 11.0751 50.7587 14.7527C51.4257 15.5896 52.1295 15.917 53.1983 15.9144C65.1861 15.8801 77.1766 16.0517 89.1618 15.8299C95.698 15.7084 101.076 20.8407 101 27.7815C100.835 43.3948 100.955 59.0107 100.942 74.6241C100.94 79.524 98.1114 83.6346 93.6156 85.3163C92.1634 85.8602 90.6403 85.9948 89.1014 85.9948C76.1498 85.9948 63.2008 85.9948 50.2492 85.9948V85.9895ZM53.5396 81.1133C65.3962 81.1133 77.2554 81.1213 89.1119 81.1107C93.5841 81.1054 96.1208 78.5498 96.1235 74.0617C96.1313 58.6227 96.0946 43.1809 96.1471 27.7418C96.1602 23.6894 93.4764 20.685 89.2406 20.7008C67.1005 20.78 44.9604 20.7879 22.8203 20.6929C18.6974 20.6744 15.8403 23.7237 15.8665 27.6732C15.9821 44.8732 15.9164 62.0732 15.9164 79.2706C15.9164 80.4973 16.5554 81.1125 17.8334 81.116C29.7346 81.116 41.6358 81.116 53.537 81.116L53.5396 81.1133ZM45.286 15.682C42.8596 12.6882 40.5381 9.77359 38.1589 6.90912C36.9326 5.43333 35.2861 4.86044 33.3796 4.86572C25.898 4.88684 18.4164 4.87364 10.9348 4.87628C10.1916 4.87628 9.45636 4.8974 8.7342 5.15084C6.08715 6.08015 4.60344 8.31364 4.60344 11.5134C4.59556 32.4491 4.59819 53.3848 4.60344 74.3205C4.60344 74.7587 4.60344 75.2022 4.64809 75.6378C4.88705 78.0113 6.73316 80.2448 8.91802 80.8203C10.9243 81.3483 11.0845 81.2269 11.0845 79.1412C11.0845 61.899 11.0766 44.6594 11.0898 27.4171C11.095 20.5662 15.7457 15.9065 22.5577 15.8933C29.6007 15.8801 36.6437 15.8933 43.6894 15.8827C44.1568 15.8827 44.6426 15.9936 45.286 15.6794V15.682Z" fill="#FE5000"/>
<path d="M52.8175 59.9743C52.8175 59.1163 52.8175 58.6411 52.8175 58.1659C52.8175 51.1301 52.8175 44.0943 52.8227 37.0586C52.8227 36.5332 52.8043 35.9893 52.9225 35.4851C53.1904 34.3314 53.944 33.6476 55.1415 33.5974C56.3547 33.5446 57.1399 34.2152 57.4734 35.332C57.6468 35.9075 57.6389 36.5464 57.6415 37.1589C57.652 44.1075 57.6441 51.0562 57.6546 58.0022C57.6546 58.4668 57.5207 58.9632 57.8174 59.4199C58.3847 59.3856 58.6053 58.8972 58.9151 58.5671C61.3468 55.9799 63.7575 53.3689 66.1787 50.771C66.7591 50.1454 67.4077 49.6253 68.3216 49.6622C69.3326 49.7045 70.0495 50.2325 70.5038 51.1169C70.9975 52.0752 70.6693 52.9517 70.0495 53.6804C68.9702 54.9503 67.8253 56.1621 66.6908 57.3818C63.6446 60.6581 60.6037 63.937 57.5365 67.1922C55.8873 68.9426 54.6294 68.9479 52.996 67.2001C48.9835 62.9074 44.9919 58.5935 40.9951 54.285C40.4226 53.6672 39.8764 53.0072 39.8449 52.1201C39.8107 51.1011 40.3123 50.3539 41.213 49.9025C42.2582 49.3771 43.2141 49.649 43.973 50.4331C45.6484 52.165 47.2687 53.955 48.9073 55.7238C50.1258 57.0386 51.3364 58.3586 52.8201 59.9717L52.8175 59.9743Z" fill="#FE5000"/>
</g>
<defs>
<clipPath id="clip0_23_37">
<rect width="101" height="86" fill="white"/>
</clipPath>
</defs>
</svg>
