<svg width="111" height="111" viewBox="0 0 111 111" fill="none" xmlns="http://www.w3.org/2000/svg">
  <g clip-path="url(#clip0_10_798)">
    <path d="M3.82277 31.3423C4.04852 41.8323 7.85941 51.4817 15.6535 59.4828C18.3119 62.2123 21.0386 64.8763 23.7267 67.576C24.0743 67.9265 24.4515 68.268 24.7129 68.6809C25.2564 69.5362 25.1911 70.4035 24.4485 71.1073C23.7594 71.7578 22.9455 71.7964 22.1228 71.3182C22.0366 71.2677 21.9535 71.2113 21.8851 71.14C16.1822 65.2595 9.73366 60.0382 5.7297 52.6608C2.47129 46.6614 0.534655 40.3205 0.098021 33.4688C-0.51386 23.9114 1.76139 15.1292 6.69505 6.99143C7.56535 5.55693 8.56931 4.19668 9.58515 2.85722C12.2495 -0.65924 16.3248 -0.968118 19.4436 2.13848C25.2624 7.93885 31.0455 13.7719 36.8436 19.593C38.3436 21.1018 39.9 22.563 41.3228 24.1401C44.3228 27.4665 43.6723 31.6393 39.8079 33.941C37.7257 35.1825 35.5693 36.2962 33.4663 37.4991C28.9218 40.0948 28.0396 45.2804 31.7168 49.0018C41.7713 59.174 51.8911 69.2838 62.0673 79.3342C65.7297 82.9486 70.9366 82.0903 73.497 77.6502C74.6584 75.6366 75.7455 73.5813 76.898 71.5588C79.3901 67.187 83.8426 66.5514 87.404 70.0975C94.5238 77.1839 101.629 84.2881 108.716 91.4101C112.016 94.7246 111.71 98.7846 108 101.597C100.631 107.187 92.403 110.424 83.103 110.926C70.0307 111.63 58.7436 107.457 49.301 98.4995C43.0545 92.5743 37.0812 86.3641 30.9921 80.2757C29.7416 79.0223 29.6168 77.9828 30.5644 77.0859C31.4287 76.2662 32.5277 76.388 33.6891 77.5433C39.3713 83.1981 45.0535 88.8559 50.703 94.5464C59.495 103.406 70.1554 107.591 82.5742 107.092C88.6752 106.845 94.4614 105.158 99.8673 102.242C100.853 101.71 100.761 101.33 100.06 100.632C92.8693 93.4743 85.6842 86.3107 78.5436 79.1025C77.4713 78.0214 77.2218 78.8501 76.7881 79.5866C73.996 84.3505 69.2851 86.3849 64.1851 84.9979C62.2842 84.4812 60.6624 83.4654 59.2663 82.0695C49.1554 71.9508 39.0208 61.8588 28.9337 51.7193C23.7119 46.4714 24.6713 38.491 30.9327 34.5172C32.1446 33.749 32.2485 32.8629 31.2446 31.8591C24.3505 24.9657 17.4386 18.0873 10.5802 11.1583C9.62376 10.1931 9.19901 10.2792 8.59604 11.4494C5.48317 17.4992 3.89109 23.9114 3.8198 31.3453L3.82277 31.3423ZM107.103 96.269C107.133 95.4523 106.681 94.8583 106.152 94.3296C98.9614 87.1244 91.7644 79.9252 84.5554 72.7379C84.1812 72.3636 83.7 72.0369 83.2069 71.8558C81.9475 71.3954 81.1099 72.0934 80.5129 73.0913C80.0643 73.8397 79.3307 74.5109 80.3525 75.5267C88.1109 83.21 95.8188 90.9468 103.548 98.6658C103.821 98.936 104.064 99.2776 104.534 99.2301C105.499 99.138 107.112 97.2877 107.103 96.269ZM39.3297 28.5921C39.3238 27.6179 38.7119 27.0269 38.1178 26.427C31.1911 19.4505 24.2644 12.474 17.3287 5.50347C16.8772 5.05203 16.4049 4.59168 15.8644 4.26499C14.6644 3.53437 13.699 3.99175 12.4723 5.38764C11.5069 6.48653 11.9406 7.11023 12.7871 7.9537C20.2485 15.3757 27.6743 22.8363 35.1297 30.2612C35.599 30.7305 35.9673 31.6393 36.9327 31.1255C38.0228 30.5463 39.1842 30.0147 39.3327 28.5891L39.3297 28.5921Z" fill="#FE5000" />
    <path d="M106.408 0.0683997C109.292 0.0683997 111.443 2.47111 110.852 5.14112C109.975 9.09714 108.87 13.0056 107.837 16.926C106.993 20.1306 106.126 23.3293 105.235 26.522C104.162 30.3741 100.732 31.4344 97.6961 28.8178C96.7991 28.0456 96.1753 27.9506 95.3585 28.8802C94.4793 29.8811 93.508 30.8107 92.5219 31.7106C91.506 32.6342 90.3387 32.6758 89.6169 31.8501C88.7169 30.8196 89.005 29.8395 89.8724 28.9604C91.5417 27.2704 93.208 25.5746 94.913 23.9233C96.0565 22.8155 96.9892 22.8303 98.1536 23.8936C98.7387 24.4282 99.2734 25.0133 99.8466 25.5597C100.91 26.5784 101.284 26.4685 101.676 25.0103C102.624 21.476 103.554 17.9358 104.492 14.3985C105.291 11.387 106.096 8.37543 106.889 5.36387C107.222 4.09569 106.943 3.81651 105.674 4.15212C99.1248 5.88659 92.5753 7.62403 86.0288 9.37037C84.5555 9.76241 84.4041 10.1782 85.4882 11.185C89.507 14.9153 88.0575 15.1737 85.3367 17.918C81.2941 21.9958 77.2248 26.0468 73.1585 30.0979C71.608 31.6422 70.8862 31.6274 69.309 30.0771C68.8159 29.59 68.3318 29.094 67.8357 28.6099C67.0635 27.8496 66.5258 27.8199 66.205 29.0287C64.7377 34.5766 63.2407 40.1126 61.7526 45.6546C61.4585 46.7535 61.1793 47.8554 60.8615 48.9483C60.4991 50.1957 60.9803 50.4719 62.1268 50.1601C65.5159 49.2394 68.914 48.3484 72.3031 47.4396C75.5021 46.5812 78.7011 45.717 81.8971 44.8438C83.1743 44.4963 83.2843 44.1399 82.3902 43.1717C81.7872 42.5183 81.1338 41.9065 80.513 41.268C79.6041 40.3324 79.5239 39.3404 80.4476 38.3871C81.8941 36.8961 83.3644 35.426 84.8585 33.9796C85.6902 33.1748 86.6377 33.1005 87.508 33.9054C88.4585 34.7815 88.3338 35.7616 87.5407 36.6615C86.8545 37.4397 86.1149 38.1732 85.3575 38.886C84.7486 39.4622 84.6446 39.9077 85.2654 40.6175C88.2951 44.0776 87.2971 47.3564 82.809 48.5949C76.0367 50.46 69.2526 52.2777 62.4595 54.0597C59.0258 54.9596 56.1001 52.1143 56.9852 48.6988C58.8328 41.565 60.7278 34.4429 62.6882 27.3417C63.6179 23.9767 67.4734 22.9372 69.9951 25.3726C70.9872 26.3319 71.5545 26.329 72.4991 25.3548C75.7367 22.0136 79.0367 18.7318 82.3664 15.4826C83.1565 14.7104 83.1536 14.259 82.3753 13.46C79.6219 10.6386 80.5961 6.88747 84.3476 5.85986C91.1199 4.00065 97.913 2.20975 104.7 0.401037C105.318 0.234719 105.96 0.151559 106.405 0.0654297L106.408 0.0683997Z" fill="#FE5000" />
  </g>
  <defs>
    <clipPath id="clip0_10_798">
      <rect width="111" height="111" fill="white" />
    </clipPath>
  </defs>
</svg>