<svg width="111" height="111" viewBox="0 0 111 111" fill="none" xmlns="http://www.w3.org/2000/svg">
  <g clip-path="url(#clip0_7_594)">
    <path d="M0.000235377 92.2938C0.000235377 87.4673 -0.00855647 82.6438 0.00316599 77.8173C0.00902722 75.5386 0.993714 74.4476 3.24736 74.4154C7.00734 74.3598 10.7673 74.3891 14.5273 74.4037C15.8197 74.4095 16.9538 74.8103 17.581 76.0418C17.9942 76.8549 18.6595 76.7145 19.3452 76.6385C25.1537 76.0037 30.9593 75.9511 36.6534 77.3698C39.6251 78.1098 42.4942 79.2652 45.3925 80.2861C49.3225 81.6726 53.3257 82.6116 57.5165 82.8456C61.1329 83.0474 63.7851 84.9049 65.2006 88.2659C65.7076 89.4681 66.2028 89.588 67.3839 89.1288C74.0715 86.5371 80.7797 83.9952 87.5201 81.5351C90.7849 80.3446 94.3455 81.8481 96.1684 84.9663C97.663 87.5229 96.9333 91.3841 94.5712 93.5253C93.7594 94.2624 92.7278 94.6134 91.8135 95.1692C86.2307 98.5741 80.5716 101.847 74.8452 105.009C69.9335 107.721 64.5939 108.985 59.1166 109.839C52.8773 110.81 46.5794 111.061 40.2874 110.991C32.9198 110.909 25.564 110.441 18.2697 109.289C17.8448 109.222 17.3729 108.985 17.0037 109.327C15.8754 110.38 14.4863 110.225 13.1265 110.225C9.90279 110.225 6.67911 110.237 3.45836 110.219C0.943894 110.204 0.00902722 109.271 0.00609661 106.77C-0.00269524 101.944 0.00609661 97.1203 0.00609661 92.2938H0.000235377ZM52.6898 96.6756V96.6698C49.4192 96.6698 46.1486 96.6932 42.8781 96.661C41.067 96.6435 39.9181 95.8332 39.631 94.5081C39.1972 92.5044 40.4193 91.0301 42.6348 91.0155C47.6608 90.9833 52.6898 91.0155 57.7187 90.9833C58.3488 90.9775 59.3716 91.3899 59.5416 90.6411C59.7262 89.8074 58.8323 89.2107 58.0909 88.8275C57.6748 88.6111 57.1619 88.5233 56.6842 88.497C51.7637 88.2308 47.0659 86.973 42.4502 85.3407C39.968 84.4632 37.5414 83.3283 34.9859 82.7783C29.7577 81.6463 24.4533 81.4562 19.1342 82.3132C18.0997 82.48 17.7363 82.8515 17.7422 83.8899C17.7773 89.9303 17.7773 95.9736 17.7422 102.014C17.7363 103.126 18.1671 103.529 19.2632 103.661C22.6041 104.062 25.9362 104.524 29.2976 104.729C33.8752 105.009 38.4499 105.384 43.0363 105.308C46.301 105.255 49.5657 105.042 52.8217 104.775C58.6741 104.299 64.5441 103.635 69.8954 101.081C76.9406 97.717 83.4759 93.4053 90.2544 89.5471C90.8991 89.1814 91.4149 88.5613 91.0662 87.713C90.738 86.9115 89.9789 86.9759 89.302 87.0432C88.8243 87.09 88.3466 87.2333 87.8953 87.403C83.0568 89.2282 78.1246 90.8429 73.4151 92.9549C66.8652 95.8917 60.1511 97.3923 52.9799 96.6756C52.8832 96.6669 52.7836 96.6756 52.6868 96.6756H52.6898ZM12.0539 92.3698C12.0539 88.769 12.0304 85.1682 12.0685 81.5673C12.0802 80.5348 11.793 80.0346 10.6618 80.096C9.3489 80.1691 8.03012 80.1399 6.71428 80.1048C5.88491 80.0843 5.44239 80.3388 5.44239 81.2543C5.45704 88.6023 5.45704 95.9502 5.44239 103.301C5.44239 104.202 5.84681 104.495 6.69376 104.471C8.00961 104.436 9.32839 104.41 10.6413 104.48C11.7461 104.538 12.0802 104.085 12.0685 103.029C12.0246 99.4779 12.0509 95.9239 12.0509 92.3698H12.0539Z" fill="#B4DCFA" />
    <path d="M110.997 18.5278C110.997 23.3016 111.003 28.0784 110.994 32.8522C110.988 35.3093 110.144 36.3068 107.721 36.3653C104.063 36.453 100.4 36.4179 96.7397 36.3741C95.333 36.3565 93.9907 36.0698 93.3694 34.54C93.1203 33.9257 92.5928 34.0778 92.1151 34.1071C90.1663 34.2241 88.2174 34.3148 86.2715 34.4669C79.8124 34.9729 73.6874 33.7239 67.7002 31.3077C63.1255 29.462 58.3662 28.248 53.3695 27.9965C49.8205 27.821 47.2093 25.9313 45.8085 22.6318C45.3191 21.4822 44.8766 21.2306 43.6486 21.7104C37.4269 24.1499 31.1554 26.4608 24.9161 28.8535C22.3811 29.8276 19.8813 30.1172 17.4577 28.6429C12.8947 25.867 12.7892 19.3498 17.4255 16.6177C23.7673 12.8823 30.0447 9.02699 36.5595 5.58118C41.6499 2.88713 47.1683 1.76388 52.7951 0.944844C61.0477 -0.257385 69.3472 -0.0526259 77.6379 0.169684C82.6581 0.30424 87.6577 0.868791 92.628 1.6381C93.0617 1.70538 93.5365 1.91891 93.8999 1.61177C95.2743 0.453422 96.9126 0.661106 98.5127 0.658181C101.49 0.655256 104.468 0.643556 107.445 0.661106C110.001 0.678657 110.991 1.6732 110.997 4.20344C111.006 8.97726 110.997 13.754 110.997 18.5278ZM58.1171 14.4063V14.4122C61.6338 14.4122 65.1476 14.3858 68.6644 14.4239C70.4081 14.4443 71.636 15.629 71.6741 17.1793C71.7151 18.7823 70.4579 19.9962 68.6497 20.0869C68.2101 20.1074 67.7705 20.0957 67.3309 20.0957C62.5951 20.0957 57.8592 20.084 53.1204 20.1103C52.5342 20.1132 51.5818 19.7681 51.4411 20.473C51.2799 21.2862 52.1415 21.7893 52.8625 22.1199C53.2054 22.2778 53.6156 22.3305 53.9996 22.348C59.6791 22.6172 65.089 24.1324 70.3084 26.2121C77.3067 29.0027 84.4633 29.6287 91.8572 28.5405C92.8888 28.3884 93.2639 28.0169 93.2581 26.9697C93.2229 20.8767 93.2141 14.7866 93.261 8.69352C93.2698 7.55857 92.8038 7.16953 91.7664 7.00279C86.7492 6.20716 81.688 5.74499 76.6239 5.54023C69.7018 5.26234 62.768 5.23894 55.8576 6.04628C50.5532 6.6664 45.2605 7.42986 40.4367 9.81677C36.5507 11.7415 32.8464 14.029 29.0835 16.1965C26.3785 17.7556 23.7029 19.3673 21.0272 20.9762C20.2506 21.4442 19.474 22.0643 19.9634 23.0852C20.4469 24.0943 21.4287 23.8223 22.2991 23.6497C22.4398 23.6205 22.5716 23.5444 22.7094 23.4918C29.06 21.1107 35.4429 18.8174 41.7467 16.3193C45.155 14.9679 48.5515 14.0582 52.2588 14.3683C54.1988 14.5321 56.1623 14.3975 58.1171 14.3975V14.4063ZM98.6885 18.5717C98.6885 22.1725 98.7178 25.7734 98.6709 29.3713C98.6563 30.436 99.0109 30.8748 100.101 30.8309C101.511 30.7724 102.926 30.8017 104.342 30.8163C105.115 30.8251 105.508 30.5355 105.508 29.7077C105.496 22.3129 105.496 14.9182 105.508 7.52347C105.508 6.71906 105.197 6.37389 104.383 6.39144C103.02 6.42069 101.648 6.47627 100.292 6.37389C98.9552 6.27151 98.6387 6.82436 98.6651 8.06462C98.7354 11.566 98.6885 15.0703 98.6914 18.5717H98.6885Z" fill="#B4DCFA" />
    <path d="M55.3741 79.2301C42.5585 79.5314 31.4984 68.2521 31.5687 55.2557C31.6361 42.6601 42.5116 31.3135 55.6994 31.5768C69.0044 31.8429 79.2615 42.2038 79.3788 55.6652C79.4872 68.2257 68.6234 79.5928 55.3741 79.2301ZM55.418 37.1287C45.1931 37.5967 37.2775 44.9095 37.2687 55.402C37.2599 65.9529 45.1755 73.6285 55.5118 73.6226C65.8071 73.6197 73.6377 66.0553 73.7285 55.5277C73.8164 45.3161 66.2232 37.5762 55.418 37.1287Z" fill="#B4DCFA" />
    <path d="M55.4148 44.2105C56.8538 44.307 58.574 43.9999 60.2445 44.5293C63.6381 45.6028 65.3203 48.3174 64.9364 52.1405C64.617 55.323 62.0058 57.865 58.7264 58.1195C57.6597 58.2014 56.5812 58.1809 55.5086 58.1634C54.7085 58.1487 54.3481 58.4763 54.3657 59.2895C54.3803 60.0442 54.7496 60.3338 55.4617 60.3162C55.998 60.3045 56.5372 60.3601 57.0706 60.3104C58.2956 60.1992 58.829 60.638 58.8202 61.9514C58.8114 63.256 58.1901 63.5397 57.0911 63.4432C56.7512 63.414 56.4024 63.4783 56.0684 63.4315C54.6734 63.2385 53.9085 63.6597 54.1312 65.2305C54.3041 66.462 53.5422 66.734 52.5164 66.6492C51.5318 66.5673 50.172 67.0733 50.2335 65.2861C50.2687 64.2535 50.0166 63.6129 48.7946 63.6304C47.7132 63.6451 47.8128 62.7587 47.8128 62.0333C47.8128 61.3108 47.6956 60.4918 48.777 60.4011C49.4657 60.3426 50.2042 60.3747 50.1895 59.3597C50.1749 58.333 49.3983 58.4325 48.733 58.3564C48.3198 58.3096 47.9212 58.1604 47.8831 57.7012C47.8216 56.9289 47.7982 56.145 47.845 55.3728C47.9124 54.2642 48.8444 54.5596 49.5096 54.425C50.3243 54.2583 50.2071 53.5884 50.21 53.0268C50.2276 50.6896 50.2775 48.3525 50.1983 46.0182C50.1514 44.6024 50.6965 44.0818 52.0856 44.2017C53.1026 44.2894 54.1312 44.2192 55.4148 44.2192V44.2105ZM54.1459 51.2249C54.1459 51.2249 54.1547 51.2249 54.1576 51.2249C54.1576 52.003 54.1547 52.7811 54.1576 53.5592C54.1605 54.0594 54.3657 54.4338 54.9137 54.4338C56.0332 54.4367 57.1791 54.5479 58.2605 54.3431C59.5939 54.0916 60.5082 53.2257 60.7017 51.7807C61.0064 49.4816 59.7697 48.1126 57.2406 47.9488C55.1774 47.8162 54.1459 48.8098 54.1459 50.9295C54.1459 51.026 54.1459 51.1226 54.1459 51.222V51.2249Z" fill="#B4DCFA" />
  </g>
  <defs>
    <clipPath id="clip0_7_594">
      <rect width="111" height="111" fill="white" />
    </clipPath>
  </defs>
</svg>