<svg xmlns="http://www.w3.org/2000/svg" width="176" height="62" viewBox="0 0 176 62" fill="none">
  <path d="M5.0968 39.8532C9.6009 46.8008 17.3326 50.9585 25.6114 50.8946C23.2591 47.6032 20.1865 44.8952 16.6306 42.9805C13.0747 41.0658 9.12679 39.99 5.0968 39.8532ZM1.31299 28.1462C1.47711 30.5532 1.96946 32.9329 2.77181 35.2032C6.84738 35.2306 13.1294 36.6894 18.4632 39.5888C23.797 42.4882 28.4744 46.8738 30.772 50.2564C33.1061 49.682 35.3582 48.7976 37.4552 47.6214V18.9921C37.437 14.6156 33.8629 11.078 29.4864 11.0962C27.9547 11.1053 26.4594 11.5521 25.1829 12.3909L1.31299 28.1462ZM30.5167 17.1868C30.8085 17.3327 31.2917 17.6518 31.2917 18.6274V42.005C28.8847 38.905 25.4382 36.1788 21.4538 34.027C17.4694 31.8753 13.3391 30.5259 9.43678 30.2432L28.9029 17.3327C29.3497 16.9406 30.0061 16.8859 30.5167 17.1868ZM157.635 16.8859H169.241V12.2451H157.635V16.8859ZM174.657 21.1438V44.9773H169.241V26.1585L160.333 44.9864H152.21V21.1438H157.625V39.9717L166.533 21.1438H174.657ZM132.324 20.7427C136.19 20.7427 139.098 22.4841 140.448 25.3927V21.153H146.174V44.9864H140.448V40.7285C139.089 43.6279 136.117 45.3785 132.324 45.3785C126.516 45.3785 121.839 40.1176 121.839 33.0697C121.839 25.8759 126.525 20.7609 132.324 20.7609V20.7427ZM134.02 25.9306C130.072 25.9306 127.546 28.985 127.546 33.0515C127.546 37.3458 130.291 40.1723 134.02 40.1723C137.931 40.1723 140.439 37.1179 140.439 33.0515C140.439 28.985 137.959 25.9488 134.02 25.9488V25.9306ZM112.621 26.3865V44.9591H106.895V26.4047H99.5371V21.1438H119.97V26.4047L112.621 26.3865ZM92.2247 37.2091L97.0206 39.8441C95.2427 43.5549 91.3586 45.5061 86.5718 45.5061C79.688 45.5061 74.728 40.3638 74.728 33.0879C74.728 26.1677 79.3689 20.7062 86.5718 20.7062C93.5377 20.7062 97.9871 25.8577 97.9871 33.0879C97.9962 33.7353 97.978 34.3826 97.9141 35.0209H80.3901C80.9645 38.2303 83.0615 40.4732 86.8089 40.4732C89.0974 40.5461 91.2218 39.2697 92.2247 37.2091ZM86.5536 25.6753C83.1892 25.6753 81.0192 27.6082 80.3992 30.7447H92.3159C91.9147 27.6082 89.9362 25.6753 86.5718 25.6753H86.5536ZM65.9934 21.1438H56.9213L49.609 44.9773H55.2163L61.2887 24.6268L67.361 44.9773H73.3239L65.9934 21.1438Z" fill="#FE5000"/>
</svg>