<svg xmlns="http://www.w3.org/2000/svg" width="31" height="31" viewBox="0 0 31 31" fill="none">
  <path d="M22.5988 21.2713L27.9526 26.6238L26.1838 28.3925L20.8313 23.0387C18.8397 24.6353 16.3626 25.5036 13.8101 25.5C7.60006 25.5 2.56006 20.46 2.56006 14.25C2.56006 8.04 7.60006 3 13.8101 3C20.0201 3 25.0601 8.04 25.0601 14.25C25.0637 16.8025 24.1953 19.2797 22.5988 21.2713ZM20.0913 20.3438C21.6777 18.7124 22.5636 16.5255 22.5601 14.25C22.5601 9.415 18.6438 5.5 13.8101 5.5C8.97506 5.5 5.06006 9.415 5.06006 14.25C5.06006 19.0837 8.97506 23 13.8101 23C16.0856 23.0036 18.2724 22.1176 19.9038 20.5312L20.0913 20.3438Z" fill="#2B2B2B"/>
</svg>