<svg width="122" height="122" viewBox="0 0 122 122" fill="none" xmlns="http://www.w3.org/2000/svg">
  <g clip-path="url(#clip0_10_769)">
    <path d="M54.2109 31.5896C50.2006 33.1758 46.9479 35.1902 43.876 37.525C43.2387 38.0103 42.6047 38.5211 41.7424 38.4005C40.8325 38.2736 40.1985 37.7502 39.8878 36.8715C39.5359 35.8754 39.9671 35.1077 40.6582 34.4669C42.7315 32.5508 45.1345 31.1011 47.5946 29.7656C72.6648 16.1564 103.876 29.0296 112.026 56.3652C114.899 65.9931 114.502 75.5576 111.079 85.0015C110.99 85.2489 110.891 85.4964 110.781 85.7343C110.093 87.2189 109.024 87.7582 107.769 87.2633C106.628 86.816 106.181 85.6582 106.621 84.2053C107.036 82.8412 107.471 81.4834 107.924 80.132C108.685 77.8607 108.875 75.4783 109.322 73.1466C109.563 71.8841 109.04 71.4336 107.791 71.4495C104.253 71.4939 100.712 71.4907 97.1739 71.4495C96.0199 71.4368 95.6236 71.8841 95.5634 73.0324C95.4398 75.3514 95.1671 77.6608 94.9294 79.9734C94.8691 80.5476 94.7613 81.1345 94.5584 81.6706C94.1368 82.7872 93.303 83.409 92.092 83.1679C90.9158 82.9332 90.2216 82.1274 90.3103 80.8997C90.4498 78.9519 90.6559 77.0041 90.9 75.069C91.3533 71.5034 91.3438 71.4653 87.8597 71.4685C82.9998 71.4685 78.1398 71.5002 73.2799 71.4495C71.9388 71.4368 71.3777 71.8682 71.3999 73.2704C71.4601 77.3404 71.4665 81.4105 71.3967 85.4805C71.3714 86.9017 71.9357 87.257 73.264 87.3014C75.5814 87.3775 77.8957 87.6186 80.2005 87.8946C81.7444 88.0786 82.6701 89.1477 82.5528 90.3658C82.426 91.6633 81.2149 92.4945 79.6235 92.3644C77.4677 92.1867 75.3088 92.0218 73.1594 91.8092C71.8247 91.676 71.3967 92.2692 71.4062 93.5508C71.4475 98.3093 71.4538 103.065 71.4062 107.823C71.3904 109.197 71.9547 109.631 73.2291 109.412C76.5071 108.848 79.7915 108.308 82.9078 107.068C83.4468 106.852 83.9889 106.633 84.55 106.481C85.7801 106.145 87.045 106.741 87.3684 107.864C87.7234 109.108 87.2701 110.047 86.0781 110.577C83.1202 111.896 80.0261 112.81 76.8368 113.314C61.1284 115.792 47.6707 111.236 36.632 99.8922C29.3056 92.3676 25.2667 83.1933 24.4298 72.6803C23.504 61.0507 26.7567 50.6519 33.7883 41.3983C35.2371 39.4918 35.8965 39.311 38.1188 40.2341C40.6074 41.2651 43.1183 42.2327 45.7147 42.9718C46.3995 43.1653 47.1064 43.3557 47.4647 42.4801C49.0529 38.6067 51.2975 35.1267 54.2141 31.5928L54.2109 31.5896ZM56.8232 66.9416C59.5147 66.9416 62.2094 66.8845 64.8978 66.967C66.2927 67.0083 66.746 66.4912 66.7238 65.1271C66.6604 61.1681 66.635 57.2027 66.7333 53.2437C66.7714 51.6702 66.2039 51.0453 64.6853 50.9787C60.1456 50.782 55.6534 50.1602 51.2182 49.1641C50.3496 48.9706 49.8296 49.1387 49.5602 50.0777C48.1336 55.0773 47.3188 60.1656 47.0589 65.3555C46.9923 66.6657 47.5693 66.9829 48.7486 66.9607C51.4401 66.9067 54.1317 66.9448 56.8232 66.9448V66.9416ZM81.2181 66.9416C83.9604 66.9416 86.7058 66.8909 89.4449 66.9638C90.7478 66.9987 91.1409 66.4531 90.9919 65.2572C90.8746 64.315 90.7954 63.3696 90.7288 62.4211C90.4276 58.2432 89.5463 54.1763 88.4336 50.1539C88.2529 49.4972 88.0024 48.977 87.1274 49.1705C82.4323 50.211 77.677 50.7788 72.8804 51.0643C71.8564 51.1246 71.4062 51.6353 71.4158 52.6949C71.4475 56.9172 71.4506 61.1395 71.4158 65.3618C71.4062 66.507 71.8247 66.9734 72.9945 66.9512C75.7368 66.9004 78.479 66.9353 81.2244 66.9353L81.2181 66.9416ZM56.7978 71.4653C54.2109 71.4653 51.6208 71.5319 49.0371 71.4399C47.5217 71.386 46.9669 71.8968 47.0684 73.4417C47.3886 78.4697 48.2192 83.3963 49.5697 88.2467C49.855 89.2746 50.3718 89.2524 51.2024 89.0715C55.7992 88.0691 60.4531 87.4505 65.1545 87.2792C66.3275 87.2348 66.7238 86.7907 66.7143 85.6582C66.6794 81.4834 66.6763 77.3119 66.7143 73.1371C66.727 71.9158 66.2578 71.4304 65.0309 71.4495C62.2855 71.4971 59.5401 71.4653 56.7946 71.4622L56.7978 71.4653ZM102.509 66.9416C103.72 66.9416 104.935 66.9353 106.146 66.9416C110.08 66.967 109.547 67.0654 109.069 63.652C108.162 57.1678 105.889 51.2166 102.053 45.884C101.549 45.1829 101.086 44.7166 100.103 45.1004C97.9918 45.922 95.8551 46.6802 93.7057 47.3908C92.8877 47.6605 92.6341 47.9745 92.8909 48.8627C94.4729 54.3572 95.3732 59.9689 95.5983 65.6822C95.6363 66.6561 96.0738 66.9638 96.9742 66.948C98.8192 66.9194 100.664 66.9385 102.509 66.9448V66.9416ZM35.6207 66.9385C37.4657 66.9385 39.3108 66.929 41.1559 66.9416C41.9326 66.948 42.4842 66.783 42.5159 65.8345C42.7061 60.0641 43.5748 54.3952 45.1282 48.8342C45.366 47.984 45.1219 47.6002 44.2849 47.3337C42.3289 46.7056 40.3697 46.0616 38.4771 45.2685C37.3358 44.7927 36.6922 44.9862 35.9757 45.9982C31.8576 51.8257 29.6575 58.3416 28.7761 65.3682C28.6271 66.561 29.0551 66.9956 30.2376 66.9543C32.0288 66.8941 33.8231 66.9385 35.6143 66.9353L35.6207 66.9385ZM35.6397 71.4685C33.7914 71.4685 31.9432 71.4685 30.0918 71.4685C29.4102 71.4685 28.83 71.5161 28.9156 72.4932C29.5782 79.9353 32.0668 86.686 36.4386 92.7451C36.9236 93.4176 37.4436 93.5286 38.2044 93.2368C40.2746 92.4437 42.3574 91.6823 44.4561 90.9654C45.2423 90.6958 45.553 90.3912 45.2804 89.4871C43.6509 84.0466 42.8076 78.4634 42.5318 72.7977C42.4874 71.8619 42.107 71.459 41.1813 71.4685C39.333 71.4875 37.4848 71.4748 35.6334 71.4685H35.6397ZM66.7048 37.8359C66.7048 35.9357 66.7048 34.0386 66.7048 32.1384C66.7048 28.725 66.5399 28.6045 63.4616 30.1304C57.6284 33.0235 54.436 38.1785 51.8586 43.841C51.4401 44.7641 52.2073 44.761 52.7399 44.891C56.7978 45.8871 60.9603 46.1409 65.0943 46.6104C66.2419 46.7405 66.7365 46.3027 66.7143 45.1163C66.6667 42.6895 66.7016 40.2627 66.7048 37.8359ZM66.7048 100.495C66.7048 98.2236 66.6446 95.9522 66.727 93.6841C66.7777 92.2375 66.2705 91.7014 64.7963 91.7965C60.7352 92.0567 56.7186 92.5833 52.7304 93.3827C51.7603 93.5762 51.643 93.941 51.9949 94.7785C53.4025 98.1189 55.3205 101.139 57.7394 103.826C59.632 105.929 61.8258 107.648 64.5205 108.629C66.5336 109.362 66.6985 109.244 66.7048 107.147C66.7143 104.93 66.7048 102.712 66.7048 100.495ZM71.4284 37.893C71.4284 40.3229 71.4538 42.7529 71.4189 45.1797C71.4031 46.2773 71.8564 46.7278 72.9438 46.6104C77.0841 46.16 81.2371 45.8078 85.3204 44.9196C86.2366 44.7197 86.4205 44.4279 86.0242 43.5428C84.6134 40.3864 82.8698 37.4457 80.5841 34.8507C78.5741 32.5699 76.2726 30.6475 73.3623 29.5942C71.6599 28.9788 71.4348 29.147 71.4284 30.9203C71.4189 33.2456 71.4284 35.5677 71.4284 37.893ZM84.5215 32.1004C86.9182 35.4852 89.2039 38.8827 90.7351 42.7244C90.9539 43.27 91.385 43.362 91.9081 43.1907C93.5598 42.6451 95.2179 42.1185 96.86 41.5506C97.6114 41.2905 97.7192 40.7988 97.1232 40.2563C96.0326 39.2602 94.9611 38.2387 93.8008 37.3315C90.9856 35.1267 87.9707 33.2614 84.5215 32.1004ZM54.2077 106.621C51.2784 103.153 49.1354 99.7178 47.5693 95.9332C47.2396 95.1401 46.726 94.9086 45.9398 95.1782C44.4403 95.6889 42.9534 96.2314 41.4412 96.7041C40.1985 97.0943 40.4299 97.5733 41.1971 98.2902C44.8968 101.761 49.0593 104.495 54.2046 106.621H54.2077Z" fill="#FE5000" />
    <path d="M0 51.9114C0 35.7359 0 19.5572 0 3.37849C0 0.475844 0.481875 0 3.43336 0C35.7158 0 67.9951 0 100.278 0C103.251 0 103.778 0.532945 103.781 3.52124C103.784 11.7153 103.781 19.9093 103.781 28.1033C103.781 28.4206 103.79 28.7378 103.768 29.055C103.667 30.6475 102.814 31.5833 101.492 31.5611C100.16 31.5389 99.3107 30.6126 99.2916 28.9947C99.2504 25.9303 99.2758 22.8627 99.2758 19.7951C99.2758 15.4078 99.279 11.0205 99.2758 6.63009C99.2758 4.56493 99.2409 4.53321 97.1232 4.53003C87.0862 4.52686 77.0461 4.53003 67.0092 4.53003C46.8814 4.53003 26.7504 4.53003 6.62261 4.53003C4.34956 4.53003 4.34639 4.53638 4.34639 6.81091C4.34639 9.40267 4.39711 11.9944 4.3242 14.583C4.28932 15.8456 4.76169 16.2485 5.9854 16.2168C8.67692 16.1501 11.3748 16.1977 14.0695 16.1977C39.9037 16.1977 65.7411 16.1977 91.5753 16.1977C92.2601 16.1977 92.9544 16.1723 93.6328 16.2612C94.7646 16.4103 95.4652 17.1018 95.5698 18.2375C95.6776 19.3954 95.0213 20.125 93.9878 20.5247C93.1763 20.8388 92.3171 20.7341 91.477 20.7341C63.2651 20.7373 35.0501 20.7341 6.83819 20.7373C5.1791 20.7373 4.3485 21.58 4.34639 23.2656C4.34639 47.8477 4.34639 72.4329 4.34639 97.015C4.34639 98.561 5.13683 99.335 6.71772 99.3372C13.8507 99.3372 20.9838 99.3371 28.1136 99.3435C28.6906 99.3435 29.2961 99.3245 29.8414 99.4736C30.9224 99.7718 31.5628 100.527 31.5216 101.678C31.4836 102.814 30.8717 103.566 29.7241 103.769C29.2073 103.861 28.6747 103.867 28.1453 103.867C19.9027 103.874 11.6601 103.877 3.42068 103.867C0.538939 103.867 0.00634046 103.322 0.00634046 100.435C0 84.2656 0 68.0901 0 51.9114Z" fill="#FE5000" />
    <path d="M114.033 121.997C113.082 122.022 112.496 121.397 111.893 120.794C108.869 117.768 105.8 114.783 102.846 111.69C101.777 110.57 101.232 110.773 100.503 111.963C99.5358 113.536 98.4358 115.027 97.3832 116.547C96.8094 117.381 96.0771 117.962 94.9961 117.752C93.9467 117.549 93.4173 116.829 93.151 115.814C91.3852 109.073 89.594 102.335 87.8123 95.597C87.2734 93.554 86.7439 91.511 86.2145 89.4649C85.6058 87.1174 87.0007 85.6899 89.315 86.3085C98.0363 88.6274 106.754 90.9654 115.479 93.2653C116.608 93.5635 117.444 94.1091 117.651 95.2829C117.85 96.4376 117.105 97.1577 116.246 97.7446C114.807 98.7248 113.387 99.7431 111.887 100.625C110.644 101.358 110.533 101.913 111.633 102.96C114.582 105.761 117.422 108.676 120.304 111.547C122.577 113.812 122.571 114.574 120.256 116.88C118.836 118.298 117.41 119.71 115.996 121.137C115.45 121.689 114.832 122.041 114.033 121.997ZM96.2959 110.123C97.2469 108.73 97.9349 107.737 98.6101 106.738C100.3 104.226 101.413 104.124 103.594 106.3C106.732 109.431 109.858 112.575 113.003 115.697C113.352 116.042 113.612 116.629 114.277 116.433C115.907 115.95 116.439 114.044 115.267 112.867C112.137 109.726 108.98 106.617 105.883 103.448C104.088 101.612 104.259 100.397 106.339 98.9659C107.484 98.1792 108.609 97.3639 109.988 96.3868C103.946 94.7817 98.2424 93.2717 92.5423 91.749C91.4708 91.4635 91.5056 91.9837 91.7117 92.7546C92.2855 94.8959 92.8213 97.0435 93.3887 99.188C94.3145 102.697 95.256 106.199 96.299 110.123H96.2959Z" fill="#FE5000" />
    <path d="M67.9476 12.5336C59.9206 12.5336 51.8968 12.5336 43.8697 12.5336C41.6474 12.5336 40.4681 11.7564 40.4776 10.3289C40.4871 8.81571 41.6918 7.99726 43.9648 7.99726C59.965 7.99409 75.9652 7.99726 91.9621 7.99726C92.5391 7.99726 93.1383 7.98774 93.6931 8.12098C94.8312 8.3938 95.6016 9.12025 95.5635 10.3448C95.5223 11.6391 94.7266 12.3528 93.449 12.4892C92.9259 12.5432 92.3933 12.5305 91.867 12.5305C83.8939 12.5305 75.9208 12.5305 67.9476 12.5305V12.5336Z" fill="#FE5000" />
    <path d="M14.041 68.1757C14.4056 55.9655 18.2828 45.0179 25.7297 35.3393C25.9864 35.0062 26.2496 34.6731 26.5286 34.359C27.6128 33.144 28.8428 32.8966 29.8446 33.6802C30.8242 34.4447 30.913 35.8246 29.9746 37.0745C28.3578 39.2253 26.7568 41.3825 25.4031 43.7205C21.0821 51.1785 18.8883 59.2361 18.5871 67.8299C18.5713 68.3057 18.6093 68.7911 18.5237 69.2511C18.2986 70.4534 17.6741 71.3416 16.3394 71.3448C15.0238 71.3448 14.3485 70.5232 14.1425 69.2796C14.0822 68.918 14.0727 68.5468 14.041 68.1788V68.1757Z" fill="#FE5000" />
    <path d="M109.741 33.4676C110.546 33.4613 111.158 33.8388 111.652 34.432C115.019 38.483 117.679 42.9623 119.695 47.8222C120.241 49.1387 119.74 50.3886 118.56 50.8898C117.219 51.4577 116.208 50.8518 115.707 49.6717C113.751 45.0655 111.158 40.8622 108.057 36.954C107.509 36.2624 107.484 35.4947 107.858 34.7175C108.235 33.9371 108.885 33.5437 109.741 33.4676Z" fill="#FE5000" />
    <path d="M12.2117 8.05444C13.3688 8.01637 14.4182 9.06006 14.4308 10.2592C14.4435 11.4456 13.5654 12.4068 12.4114 12.4703C11.2131 12.5369 10.132 11.563 10.0876 10.3766C10.0464 9.20916 11.0672 8.08934 12.2117 8.05127V8.05444Z" fill="#FE5000" />
    <path d="M20.3275 8.07031C21.4466 8.02907 22.5721 9.11082 22.6101 10.2592C22.6481 11.3917 21.5576 12.4861 20.3941 12.483C19.2782 12.483 18.2479 11.5027 18.2035 10.4019C18.1559 9.2504 19.1958 8.10838 20.3307 8.06714L20.3275 8.07031Z" fill="#FE5000" />
    <path d="M30.6276 10.3703C30.6023 11.6138 29.6068 12.5814 28.3799 12.4577C27.0992 12.3308 26.4049 11.5567 26.3605 10.2751C26.3193 9.09502 27.4067 8.02279 28.5385 8.05134C29.6829 8.07989 30.653 9.1553 30.6276 10.3703Z" fill="#FE5000" />
  </g>
  <defs>
    <clipPath id="clip0_10_769">
      <rect width="122" height="122" fill="white" />
    </clipPath>
  </defs>
</svg>