<svg width="99" height="132" viewBox="0 0 99 132" fill="none" xmlns="http://www.w3.org/2000/svg">
  <g clip-path="url(#clip0_7_618)">
    <path d="M0.0855546 71.5051C0.0855546 55.4425 0.256776 39.3764 -5.59296e-05 23.3137C-0.106213 16.5669 4.24623 10.8491 12.1498 10.8113C26.9878 10.7427 41.8292 10.7908 56.6673 10.7873C58.1774 10.7873 59.4445 11.319 60.506 12.3857C69.2212 21.1185 77.9363 29.8513 86.6618 38.5772C87.9356 39.8497 88.2438 41.3966 88.2404 43.1219C88.2199 59.0714 88.2301 75.0209 88.2301 90.9704C88.2301 100.403 88.2507 109.835 88.2199 119.268C88.2062 122.911 87.4254 126.299 84.6277 128.934C82.4908 130.944 80.0081 132.003 77.0563 132.003C55.0818 131.993 33.1107 132.021 11.1362 131.986C4.75989 131.976 0.119799 127.304 0.102677 120.901C0.0615836 104.437 0.088979 87.9726 0.0855546 71.5086V71.5051ZM6.04405 71.44C6.04405 80.0733 6.04405 88.7031 6.04405 97.3364C6.04405 105.054 6.07487 112.771 6.03035 120.489C6.01665 122.619 6.72208 124.283 8.53703 125.414C9.66708 126.118 10.9478 126.032 12.2012 126.032C27.0974 126.035 41.9936 126.035 56.8864 126.032C63.5058 126.032 70.1287 126.052 76.7481 126.015C79.717 125.998 81.4121 124.574 82.0456 121.679C82.2032 120.962 82.2614 120.208 82.2614 119.474C82.2717 94.4347 82.2614 69.3991 82.2922 44.3601C82.2922 43.1837 81.96 42.3159 81.1245 41.4858C73.2654 33.6791 65.4269 25.8484 57.6124 17.9938C56.746 17.1225 55.8522 16.7247 54.6058 16.7281C40.6238 16.7658 26.6419 16.7452 12.66 16.7555C7.98569 16.7555 6.0509 18.7175 6.04747 23.42C6.04405 39.4244 6.04747 55.4322 6.04747 71.4365L6.04405 71.44Z" fill="#B4DCFA" />
    <path d="M98.9622 71.5018C98.9622 84.5906 98.9622 97.6795 98.9622 110.768C98.9622 111.396 98.9793 112.027 98.9417 112.655C98.8492 114.236 98.0273 115.241 96.4487 115.44C94.87 115.642 93.829 114.829 93.288 113.382C92.9215 112.398 93.0003 111.355 93.0003 110.326C93.0003 85.064 92.9763 59.7986 93.0414 34.5367C93.0482 32.4375 92.4969 30.9215 90.9696 29.426C83.6311 22.2299 76.3919 14.9308 69.1732 7.61465C68.0431 6.46903 66.8959 5.96482 65.2728 5.97168C50.6642 6.02656 36.0556 6.00255 21.447 6.00598C20.4745 6.00598 19.4985 6.04028 18.5671 5.70072C17.0843 5.16221 16.3652 4.08176 16.5741 2.51082C16.7727 1.00848 17.7144 0.19557 19.2177 0.06523C19.7862 0.0172101 20.3581 0.0343601 20.9299 0.0343601C36.3398 0.0343601 51.7463 0.0618001 67.1528 6.01158e-05C69.1869 -0.00679988 70.7005 0.57287 72.1456 2.03748C80.3231 10.3346 88.552 18.5838 96.8425 26.7643C98.3972 28.2975 99.0102 29.8993 98.9965 32.0602C98.9245 45.2074 98.9588 58.3512 98.9588 71.4983L98.9622 71.5018Z" fill="#B4DCFA" />
    <path d="M16.5231 85.1428C16.5231 78.2314 16.732 71.3097 16.458 64.4085C16.2217 58.4163 20.2968 54.6227 26.2347 54.6845C35.1314 54.7736 44.028 54.7085 52.9247 54.7085C55.832 54.7085 58.7427 54.6982 61.6501 54.7085C68.338 54.7325 71.7658 58.1385 71.7829 64.8818C71.8138 76.0774 71.8138 87.2729 71.7795 98.4718C71.7692 101.665 72.0364 104.869 71.5706 108.052C70.8926 112.696 67.7284 115.515 63.0678 115.526C50.4077 115.55 37.7476 115.553 25.0841 115.526C19.9338 115.515 16.5505 112.092 16.5333 106.906C16.5059 99.6517 16.5265 92.3973 16.5265 85.1428H16.5231ZM44.1479 77.3293C37.6483 77.3293 31.1453 77.367 24.6458 77.3019C23.0363 77.2847 22.4096 77.7786 22.4542 79.449C22.55 83.102 22.4816 86.7584 22.485 90.4147C22.485 92.2052 23.3559 93.1016 25.0978 93.1039C33.5356 93.1039 41.9768 93.1004 50.4146 93.1073C54.2225 93.1107 55.3423 94.222 55.356 97.9813C55.3663 101.236 55.3937 104.491 55.3457 107.747C55.3252 109.05 55.784 109.636 57.1333 109.582C58.7256 109.513 60.3248 109.575 61.924 109.568C65.0608 109.554 65.8313 108.789 65.8347 105.592C65.845 96.8528 65.8039 88.1132 65.8724 79.377C65.8861 77.7958 65.393 77.2881 63.828 77.3053C57.2702 77.3705 50.7125 77.3327 44.1547 77.3327L44.1479 77.3293ZM49.3941 104.31C49.3941 102.999 49.3667 101.689 49.4044 100.379C49.4318 99.4253 49.0208 99.0549 48.0825 99.0652C45.4663 99.0961 42.8534 99.0926 40.2372 99.0686C39.2715 99.0618 38.9256 99.5317 38.9291 100.43C38.9393 102.993 38.9462 105.555 38.9291 108.117C38.9222 109.122 39.3811 109.564 40.3776 109.558C42.9356 109.54 45.4937 109.537 48.0517 109.558C49.0996 109.564 49.4386 109.04 49.4078 108.062C49.3667 106.81 49.3975 105.558 49.3975 104.303L49.3941 104.31ZM27.7278 99.0789C26.4196 99.0789 25.1115 99.0926 23.8068 99.072C22.9849 99.0583 22.4953 99.3739 22.4987 100.252C22.509 102.643 22.4713 105.033 22.5535 107.421C22.6014 108.769 23.4746 109.486 24.7896 109.516C27.06 109.568 29.3373 109.54 31.6076 109.561C32.5117 109.568 32.9671 109.201 32.9603 108.244C32.9363 105.627 32.9329 103.006 32.9603 100.389C32.9706 99.4425 32.5905 99.0446 31.6453 99.0686C30.3406 99.1063 29.0325 99.0789 27.7243 99.0789H27.7278ZM44.1444 71.1656V71.1587C45.4526 71.1587 46.7607 71.1484 48.0688 71.1587C48.9866 71.1656 49.4112 70.7574 49.4009 69.8142C49.377 67.3068 49.3701 64.8029 49.4044 62.2956C49.4181 61.2701 48.9763 60.8516 47.9798 60.8619C45.4765 60.879 42.9767 60.8825 40.4735 60.8619C39.4085 60.8516 38.9085 61.2941 38.9188 62.3848C38.9428 64.7755 38.9496 67.1696 38.9119 69.5604C38.8948 70.7368 39.4187 71.2068 40.5591 71.1725C41.7508 71.1347 42.9459 71.1656 44.141 71.1656H44.1444ZM32.9569 65.976C32.9569 64.7789 32.9158 63.5819 32.9671 62.3882C33.0151 61.2838 32.5391 60.8447 31.457 60.8585C29.2962 60.8928 27.1353 60.8653 24.9745 60.879C23.3685 60.8893 22.5535 61.764 22.5158 63.3212C22.4679 65.4272 22.5124 67.5367 22.4781 69.6427C22.461 70.7334 22.9644 71.1793 24.0294 71.169C26.5326 71.145 29.0325 71.1484 31.5357 71.169C32.5322 71.1759 32.9945 70.7643 32.9603 69.7353C32.9192 68.4833 32.95 67.228 32.95 65.976H32.9569ZM60.5645 71.1587C61.8761 71.1587 63.1876 71.1587 64.4958 71.1587C65.28 71.1587 65.8313 70.9049 65.8245 69.9925C65.8108 67.8797 65.9066 65.7634 65.7697 63.6608C65.643 61.7125 64.7115 60.9236 62.7767 60.8825C60.8385 60.8379 58.9003 60.8893 56.9655 60.8653C55.9347 60.8516 55.3492 61.2117 55.3594 62.3436C55.3834 64.7995 55.3765 67.252 55.3594 69.7078C55.3526 70.7025 55.7977 71.1827 56.8011 71.169C58.0544 71.1519 59.3078 71.1656 60.5611 71.1656L60.5645 71.1587Z" fill="#B4DCFA" />
  </g>
  <defs>
    <clipPath id="clip0_7_618">
      <rect width="99" height="132" fill="white" />
    </clipPath>
  </defs>
</svg>