<svg width="128" height="111" viewBox="0 0 128 111" fill="none" xmlns="http://www.w3.org/2000/svg">
  <g clip-path="url(#clip0_10_781)">
    <mask id="path-1-inside-1_10_781" fill="white">
      <path d="M64.109 0C84.0701 0 104.027 0 123.988 0C127.524 0 127.989 0.465759 127.993 4.01051C127.996 8.15967 128.004 12.3053 127.986 16.4545C127.986 17.1015 127.954 17.7664 127.789 18.385C127.553 19.2632 126.892 19.7894 125.969 19.8534C125.011 19.9174 124.418 19.3592 124.056 18.5308C123.738 17.8055 123.724 17.034 123.724 16.2625C123.724 13.0021 123.727 9.74539 123.724 6.48507C123.72 4.02473 123.685 3.98562 121.239 3.98206C103.305 3.97495 85.3715 3.9714 67.4377 3.96784C47.1799 3.96073 26.9222 3.95717 6.66439 3.95006C3.98291 3.95006 3.97575 3.95717 3.97575 6.59529C3.98291 28.1624 3.99006 49.7296 4.00078 71.2967C4.00078 73.8637 4.06156 73.9241 6.57144 73.9241C33.5007 73.9206 60.4336 73.8957 87.3629 73.9384C89.1363 73.9384 89.8478 73.4726 89.7226 71.638C89.5832 69.6328 89.6583 67.6097 89.7048 65.5974C89.7727 62.6144 91.2779 61.1353 94.274 61.1211C99.873 61.0962 105.475 61.0998 111.074 61.114C114.214 61.1211 115.755 62.6215 115.844 65.7965C115.905 67.9262 115.898 70.063 115.851 72.1962C115.826 73.3837 116.259 73.9526 117.51 73.9064C118.997 73.853 120.488 73.8459 121.976 73.9064C123.32 73.9632 123.792 73.3411 123.72 72.0824C123.674 71.254 123.713 70.4256 123.713 69.5937C123.713 56.4991 123.713 43.4045 123.717 30.3099C123.717 29.3642 123.674 28.4113 123.96 27.4869C124.253 26.534 124.847 25.951 125.894 25.9723C126.935 25.9936 127.567 26.5945 127.807 27.5367C127.964 28.1589 127.986 28.8273 127.986 29.4744C127.996 47.8416 128 66.2089 127.996 84.5762C127.996 87.3707 127.21 88.1458 124.371 88.1778C122.287 88.1991 120.195 88.2631 118.118 88.16C116.43 88.0747 115.797 88.6471 115.83 90.3822C115.919 95.4166 115.873 100.455 115.858 105.489C115.847 109.517 114.385 110.989 110.388 110.993C105.265 111 100.141 111 95.0177 110.993C91.0455 110.986 89.6833 109.61 89.6797 105.61C89.6726 100.515 89.6297 95.4166 89.7083 90.3253C89.7334 88.704 89.1935 88.1209 87.5524 88.16C83.9199 88.2489 80.2838 88.1742 76.6513 88.192C74.6205 88.2027 74.2951 88.5333 74.5383 90.4781C74.7599 92.2523 74.7456 94.03 74.6527 95.8006C74.5919 96.9774 74.9959 97.4112 76.1579 97.3863C78.0635 97.3401 79.9692 97.3863 81.8784 97.3756C83.1905 97.3721 84.3454 97.6494 84.3775 99.2351C84.4097 100.849 83.3121 101.361 81.8927 101.361C75.8146 101.372 69.7366 101.368 63.6621 101.368C58.1204 101.368 52.5786 101.368 47.0405 101.358C46.3898 101.358 45.7105 101.365 45.0955 101.194C44.0515 100.906 43.5259 100.128 43.6296 99.0431C43.7297 98.0014 44.4055 97.4432 45.4244 97.4183C47.5088 97.3685 49.5968 97.3365 51.6777 97.3899C53.0685 97.4254 53.6083 96.8494 53.5619 95.4877C53.5011 93.7136 53.4868 91.9288 53.569 90.1582C53.6334 88.7182 53.1185 88.1067 51.6205 88.16C49.3609 88.2382 47.0941 88.192 44.8274 88.1671C44.1766 88.16 43.5045 88.1316 42.886 87.9502C41.9099 87.6658 41.1412 87.0294 41.1948 85.9308C41.2556 84.761 42.0636 84.1424 43.1827 83.9966C43.887 83.9042 44.6093 83.922 45.3243 83.922C59.2073 83.9149 73.0902 83.9149 86.9732 83.9113C89.6869 83.9113 89.694 83.9077 89.6905 81.3123C89.6869 77.604 89.9944 77.8991 86.1795 77.8991C59.7865 77.892 33.3899 77.8884 6.9969 77.8884C5.00187 77.8884 4.00436 78.9065 4.00436 80.9425C4.00436 81.3585 4.03654 81.7745 4.00436 82.1869C3.8971 83.5095 4.5335 83.9575 5.81347 83.9397C9.38879 83.8935 12.9641 83.9149 16.5394 83.9326C17.1901 83.9326 17.8587 83.9753 18.4808 84.1353C19.3747 84.3664 19.8931 85.0277 19.9503 85.9414C20.0111 86.8907 19.4462 87.4845 18.6167 87.8471C17.9481 88.1422 17.233 88.1742 16.5144 88.1742C12.2848 88.1742 8.05519 88.1991 3.82202 88.1636C0.800871 88.1387 0 87.3174 0 84.338C0 57.4377 0 30.5374 0.010726 3.64074C0.0143013 0.600865 0.600654 0.0284433 3.6933 0.0284433C23.8331 0.0248879 43.9693 0.0284433 64.109 0.0284433V0ZM93.7055 86.0837H93.7127C93.7127 92.3554 93.7449 98.6307 93.6877 104.902C93.6734 106.389 94.0738 107.036 95.6934 107.007C100.334 106.922 104.979 106.936 109.619 106.997C111.114 107.018 111.579 106.435 111.575 105.002C111.543 92.3981 111.532 79.7906 111.586 67.1866C111.593 65.512 110.942 65.0534 109.365 65.0783C104.843 65.1494 100.32 65.1601 95.7971 65.0712C94.1096 65.0392 93.6626 65.6898 93.6769 67.2649C93.7413 73.5366 93.702 79.8119 93.702 86.0837H93.7055ZM64.0197 97.365C65.625 97.365 67.2339 97.3365 68.8392 97.3756C69.9797 97.4005 70.4552 96.8992 70.4374 95.7793C70.4052 93.8274 70.4052 91.8754 70.4374 89.9235C70.4588 88.7573 70.0155 88.1671 68.7748 88.1778C65.5642 88.2098 62.35 88.2027 59.1358 88.1814C57.9988 88.1742 57.5269 88.704 57.5412 89.8062C57.5662 91.8185 57.5698 93.8309 57.5412 95.8397C57.5233 97.0059 58.1061 97.4005 59.2001 97.3792C60.8055 97.3472 62.4143 97.3721 64.0197 97.365ZM119.687 83.9042C124.071 83.8438 123.702 84.5442 123.71 79.7515C123.71 79.6341 123.699 79.5133 123.702 79.3959C123.735 78.3542 123.216 77.892 122.179 77.9026C120.753 77.9204 119.323 77.9702 117.903 77.8778C116.352 77.7782 115.801 78.3862 115.837 79.9292C115.933 84.4197 115.454 83.858 119.687 83.9006V83.9042Z" />
    </mask>
    <path d="M64.109 0C84.0701 0 104.027 0 123.988 0C127.524 0 127.989 0.465759 127.993 4.01051C127.996 8.15967 128.004 12.3053 127.986 16.4545C127.986 17.1015 127.954 17.7664 127.789 18.385C127.553 19.2632 126.892 19.7894 125.969 19.8534C125.011 19.9174 124.418 19.3592 124.056 18.5308C123.738 17.8055 123.724 17.034 123.724 16.2625C123.724 13.0021 123.727 9.74539 123.724 6.48507C123.72 4.02473 123.685 3.98562 121.239 3.98206C103.305 3.97495 85.3715 3.9714 67.4377 3.96784C47.1799 3.96073 26.9222 3.95717 6.66439 3.95006C3.98291 3.95006 3.97575 3.95717 3.97575 6.59529C3.98291 28.1624 3.99006 49.7296 4.00078 71.2967C4.00078 73.8637 4.06156 73.9241 6.57144 73.9241C33.5007 73.9206 60.4336 73.8957 87.3629 73.9384C89.1363 73.9384 89.8478 73.4726 89.7226 71.638C89.5832 69.6328 89.6583 67.6097 89.7048 65.5974C89.7727 62.6144 91.2779 61.1353 94.274 61.1211C99.873 61.0962 105.475 61.0998 111.074 61.114C114.214 61.1211 115.755 62.6215 115.844 65.7965C115.905 67.9262 115.898 70.063 115.851 72.1962C115.826 73.3837 116.259 73.9526 117.51 73.9064C118.997 73.853 120.488 73.8459 121.976 73.9064C123.32 73.9632 123.792 73.3411 123.72 72.0824C123.674 71.254 123.713 70.4256 123.713 69.5937C123.713 56.4991 123.713 43.4045 123.717 30.3099C123.717 29.3642 123.674 28.4113 123.96 27.4869C124.253 26.534 124.847 25.951 125.894 25.9723C126.935 25.9936 127.567 26.5945 127.807 27.5367C127.964 28.1589 127.986 28.8273 127.986 29.4744C127.996 47.8416 128 66.2089 127.996 84.5762C127.996 87.3707 127.21 88.1458 124.371 88.1778C122.287 88.1991 120.195 88.2631 118.118 88.16C116.43 88.0747 115.797 88.6471 115.83 90.3822C115.919 95.4166 115.873 100.455 115.858 105.489C115.847 109.517 114.385 110.989 110.388 110.993C105.265 111 100.141 111 95.0177 110.993C91.0455 110.986 89.6833 109.61 89.6797 105.61C89.6726 100.515 89.6297 95.4166 89.7083 90.3253C89.7334 88.704 89.1935 88.1209 87.5524 88.16C83.9199 88.2489 80.2838 88.1742 76.6513 88.192C74.6205 88.2027 74.2951 88.5333 74.5383 90.4781C74.7599 92.2523 74.7456 94.03 74.6527 95.8006C74.5919 96.9774 74.9959 97.4112 76.1579 97.3863C78.0635 97.3401 79.9692 97.3863 81.8784 97.3756C83.1905 97.3721 84.3454 97.6494 84.3775 99.2351C84.4097 100.849 83.3121 101.361 81.8927 101.361C75.8146 101.372 69.7366 101.368 63.6621 101.368C58.1204 101.368 52.5786 101.368 47.0405 101.358C46.3898 101.358 45.7105 101.365 45.0955 101.194C44.0515 100.906 43.5259 100.128 43.6296 99.0431C43.7297 98.0014 44.4055 97.4432 45.4244 97.4183C47.5088 97.3685 49.5968 97.3365 51.6777 97.3899C53.0685 97.4254 53.6083 96.8494 53.5619 95.4877C53.5011 93.7136 53.4868 91.9288 53.569 90.1582C53.6334 88.7182 53.1185 88.1067 51.6205 88.16C49.3609 88.2382 47.0941 88.192 44.8274 88.1671C44.1766 88.16 43.5045 88.1316 42.886 87.9502C41.9099 87.6658 41.1412 87.0294 41.1948 85.9308C41.2556 84.761 42.0636 84.1424 43.1827 83.9966C43.887 83.9042 44.6093 83.922 45.3243 83.922C59.2073 83.9149 73.0902 83.9149 86.9732 83.9113C89.6869 83.9113 89.694 83.9077 89.6905 81.3123C89.6869 77.604 89.9944 77.8991 86.1795 77.8991C59.7865 77.892 33.3899 77.8884 6.9969 77.8884C5.00187 77.8884 4.00436 78.9065 4.00436 80.9425C4.00436 81.3585 4.03654 81.7745 4.00436 82.1869C3.8971 83.5095 4.5335 83.9575 5.81347 83.9397C9.38879 83.8935 12.9641 83.9149 16.5394 83.9326C17.1901 83.9326 17.8587 83.9753 18.4808 84.1353C19.3747 84.3664 19.8931 85.0277 19.9503 85.9414C20.0111 86.8907 19.4462 87.4845 18.6167 87.8471C17.9481 88.1422 17.233 88.1742 16.5144 88.1742C12.2848 88.1742 8.05519 88.1991 3.82202 88.1636C0.800871 88.1387 0 87.3174 0 84.338C0 57.4377 0 30.5374 0.010726 3.64074C0.0143013 0.600865 0.600654 0.0284433 3.6933 0.0284433C23.8331 0.0248879 43.9693 0.0284433 64.109 0.0284433V0ZM93.7055 86.0837H93.7127C93.7127 92.3554 93.7449 98.6307 93.6877 104.902C93.6734 106.389 94.0738 107.036 95.6934 107.007C100.334 106.922 104.979 106.936 109.619 106.997C111.114 107.018 111.579 106.435 111.575 105.002C111.543 92.3981 111.532 79.7906 111.586 67.1866C111.593 65.512 110.942 65.0534 109.365 65.0783C104.843 65.1494 100.32 65.1601 95.7971 65.0712C94.1096 65.0392 93.6626 65.6898 93.6769 67.2649C93.7413 73.5366 93.702 79.8119 93.702 86.0837H93.7055ZM64.0197 97.365C65.625 97.365 67.2339 97.3365 68.8392 97.3756C69.9797 97.4005 70.4552 96.8992 70.4374 95.7793C70.4052 93.8274 70.4052 91.8754 70.4374 89.9235C70.4588 88.7573 70.0155 88.1671 68.7748 88.1778C65.5642 88.2098 62.35 88.2027 59.1358 88.1814C57.9988 88.1742 57.5269 88.704 57.5412 89.8062C57.5662 91.8185 57.5698 93.8309 57.5412 95.8397C57.5233 97.0059 58.1061 97.4005 59.2001 97.3792C60.8055 97.3472 62.4143 97.3721 64.0197 97.365ZM119.687 83.9042C124.071 83.8438 123.702 84.5442 123.71 79.7515C123.71 79.6341 123.699 79.5133 123.702 79.3959C123.735 78.3542 123.216 77.892 122.179 77.9026C120.753 77.9204 119.323 77.9702 117.903 77.8778C116.352 77.7782 115.801 78.3862 115.837 79.9292C115.933 84.4197 115.454 83.858 119.687 83.9006V83.9042Z" fill="#FE5000" stroke="#FE5000" stroke-width="22" mask="url(#path-1-inside-1_10_781)" />
    <path d="M30.8158 83.865C31.6775 83.9361 32.582 83.9219 33.4472 84.1032C34.3947 84.3023 35.0275 84.9281 35.0561 85.9662C35.0847 87.0826 34.4591 87.8044 33.4294 87.9964C31.6667 88.327 29.8755 88.3235 28.1129 87.9608C27.0474 87.7404 26.4718 86.9938 26.4861 85.92C26.4968 84.8854 27.1797 84.2774 28.1307 84.0925C28.996 83.9219 29.9005 83.9361 30.823 83.8685L30.8158 83.865Z" fill="#FE5000" />
    <path d="M109.48 94.4424C109.498 98.3036 106.605 101.304 102.815 101.347C99.1257 101.386 95.9008 98.2929 95.8435 94.6522C95.7863 90.9972 98.9076 87.8364 102.615 87.7938C106.48 87.7475 109.458 90.6345 109.476 94.4424H109.48ZM105.382 94.5242C105.4 93.0771 104.281 91.8932 102.855 91.8434C101.36 91.79 100.159 92.9562 100.123 94.4922C100.087 96.0636 101.199 97.2654 102.705 97.2796C104.16 97.2938 105.368 96.0494 105.382 94.5242Z" fill="#FE5000" />
    <path d="M106.777 79.2501C108.604 79.2572 109.555 79.9576 109.508 81.2589C109.462 82.5317 108.414 83.2641 106.68 83.2463C105.297 83.2321 104.185 82.8197 104.067 81.2482C103.967 79.9149 104.935 79.2429 106.78 79.2501H106.777Z" fill="#FE5000" />
    <path d="M106.555 70.7208C108.572 70.7065 109.501 71.3394 109.426 72.6869C109.337 74.2975 108.228 74.7028 106.834 74.717C105.111 74.7348 103.999 73.9562 104.063 72.6727C104.149 71.0407 105.261 70.6568 106.555 70.7243V70.7208Z" fill="#FE5000" />
    <path d="M98.718 74.7062C97.0054 74.7205 95.8291 73.8956 95.9579 72.6512C96.1223 71.0833 97.2342 70.6993 98.6358 70.7135C100.413 70.7348 101.432 71.453 101.41 72.7437C101.389 73.9418 100.359 74.692 98.7216 74.7062H98.718Z" fill="#FE5000" />
    <path d="M98.7682 79.2573C100.184 79.2111 101.275 79.6626 101.389 81.2412C101.482 82.4927 100.313 83.282 98.5823 83.2429C97.2094 83.2145 96.0581 82.8163 95.9544 81.227C95.8722 79.9648 96.9913 79.2324 98.7682 79.2573Z" fill="#FE5000" />
  </g>
  <defs>
    <clipPath id="clip0_10_781">
      <rect width="128" height="111" fill="white" />
    </clipPath>
  </defs>
</svg>