<svg width="104" height="121" viewBox="0 0 104 121" fill="none" xmlns="http://www.w3.org/2000/svg">
  <g clip-path="url(#clip0_10_801)">
    <path d="M63.4703 19.7469C85.1012 19.4626 104.238 37.7088 103.997 60.2058C103.739 84.4746 86.0504 101.256 63.1098 101.137C40.0733 101.018 22.4611 84.6233 22.3949 59.8455C22.3354 36.5816 42.028 19.2775 63.467 19.7469H63.4703ZM51.8611 25.3001C38.4494 29.3724 24.7961 43.3611 26.2216 63.4749C27.3859 79.8833 39.7757 92.3846 51.6958 95.5843C51.3518 95.0917 51.1037 94.6786 50.8027 94.305C48.8513 91.8854 47.3233 89.2179 46.0731 86.3851C42.9806 79.3808 41.7105 71.9766 41.3533 64.3938C41.2872 62.9923 40.887 62.394 39.4284 62.4734C37.725 62.5659 36.0118 62.5031 34.3051 62.4899C32.0527 62.4734 31.0539 61.8916 30.9976 60.5859C30.9381 59.1745 31.9204 58.5498 34.3084 58.5465C41.7502 58.5366 49.192 58.5432 56.6305 58.5432C57.7319 58.5432 58.8366 58.5068 59.938 58.5498C61.0691 58.5927 61.5818 58.1201 61.4793 56.983C61.4462 56.5995 61.4793 56.2128 61.4726 55.8261C61.3933 48.283 61.3106 40.7366 61.2345 33.1935C61.2279 32.4795 61.175 31.7556 61.4495 31.0714C61.8001 30.2087 62.4616 29.7426 63.381 29.8252C64.3171 29.9112 64.8694 30.493 64.9653 31.4449C65.0083 31.8812 64.9984 32.3242 65.0017 32.7671C65.091 40.6969 65.2101 48.6268 65.2365 56.5566C65.2432 58.054 65.7062 58.5994 67.2309 58.5696C71.2528 58.4903 75.278 58.5498 79.2999 58.5399C81.3108 58.5332 81.4497 58.4275 81.3241 56.3318C80.9437 49.9787 79.8125 43.7611 77.5668 37.7881C76.0056 33.6331 73.9385 29.779 70.6012 26.6983C66.0303 22.4772 60.315 22.4904 55.8069 26.7512C51.8347 30.5095 49.6385 35.2694 47.9682 40.3399C46.7213 44.1181 46.0102 48.0119 45.4281 51.9388C45.2528 53.1255 44.5219 53.8659 43.2419 53.6478C41.9454 53.4263 41.6179 52.4743 41.7667 51.2943C41.9024 50.2035 42.0115 49.106 42.2066 48.0219C43.6851 39.8573 46.1855 32.1126 51.8578 25.2968L51.8611 25.3001ZM74.514 95.852C75.8733 95.3562 76.816 95.0884 77.6925 94.6819C90.6114 88.7089 98.1525 78.7231 100.104 64.5856C100.349 62.8039 100.11 62.5031 98.3608 62.5031C87.9423 62.4932 77.5271 62.513 67.1086 62.48C65.7757 62.4767 65.2564 62.8932 65.2663 64.2848C65.3424 74.6937 65.2465 85.1026 65.5474 95.5115C65.597 97.1742 65.812 97.3328 67.2739 96.5957C70.803 94.8141 73.2108 91.9053 75.0994 88.537C78.129 83.1292 79.6538 77.2257 80.6956 71.1734C80.9106 69.9173 81.539 69.0711 82.9017 69.2892C84.1619 69.4909 84.6249 70.4495 84.4198 71.6328C83.1597 78.9478 81.3704 86.0843 77.1037 92.335C76.3728 93.4026 75.5724 94.424 74.5173 95.8553L74.514 95.852ZM53.247 62.4965C51.2063 62.4965 49.1656 62.5659 47.1315 62.4734C45.567 62.4006 44.9485 62.9229 45.0643 64.5525C45.6497 72.8096 47.1811 80.8253 51.1136 88.2064C53.118 91.9714 55.8136 95.1314 59.8619 96.8767C61.5289 97.5973 61.8034 97.4419 61.7703 95.6933C61.7339 93.6572 61.595 91.6243 61.5851 89.5881C61.5355 81.1625 61.4958 72.7335 61.5123 64.3046C61.5123 62.946 61.0658 62.4271 59.6965 62.4734C57.55 62.5494 55.3968 62.4932 53.2503 62.4932L53.247 62.4965ZM74.8976 25.5149C76.5878 27.961 78.2746 30.3277 79.5711 32.9522C83.2788 40.4523 84.615 48.5045 85.1012 56.7417C85.1806 58.0771 85.5775 58.5894 86.9434 58.5663C90.7437 58.5035 94.5473 58.5564 98.3476 58.5399C100.114 58.5332 100.325 58.249 100.11 56.4706C98.9595 47.0005 94.8615 39.0442 87.7339 32.7043C84.0031 29.3856 79.7695 26.8834 74.8943 25.5149H74.8976Z" fill="#FE5000" />
    <path d="M3.80013 60.6055C3.80013 76.8518 3.80675 93.1015 3.79682 109.348C3.79682 112.61 5.02059 115.106 8.07669 116.544C9.00609 116.98 9.9851 117.043 10.9806 117.043C25.3648 117.043 39.749 117.06 54.1299 117.036C58.4759 117.03 61.1582 114.263 61.2343 109.87C61.2508 108.938 61.2211 107.983 61.4129 107.084C61.6114 106.158 62.3026 105.51 63.3147 105.563C64.2474 105.613 64.8428 106.254 64.9453 107.163C65.6531 113.361 63.4867 118.494 57.09 120.491C55.8233 120.887 54.4937 120.99 53.1674 120.99C39.4447 120.996 25.722 121.02 11.9993 120.98C7.11421 120.967 3.20479 119.155 1.00863 114.501C0.264448 112.921 0.00977271 111.235 0.00646524 109.523C-0.000149696 76.8617 -0.0100721 44.2004 0.0163876 11.5424C0.0230026 4.82897 4.55423 0.138506 11.3114 0.0856186C25.4177 -0.0234619 39.5274 -0.0366838 53.6337 0.0856186C61.2905 0.151728 66.0301 5.94952 64.9883 13.5124C64.8494 14.5305 64.3069 15.1685 63.3048 15.228C62.3026 15.2875 61.5816 14.6925 61.4063 13.7306C61.231 12.7654 61.2575 11.7605 61.2277 10.7722C61.1053 6.81886 58.3634 4.09185 54.4011 3.99268C51.2171 3.91335 49.0066 5.32369 47.7696 8.22368C46.6914 10.7755 44.8888 12.1043 42.0312 12.0779C35.9686 12.0184 29.906 11.9886 23.8467 12.0911C20.7079 12.144 18.7664 10.7425 17.6154 7.9328C15.6607 3.1564 16.9076 4.23398 11.6322 3.95302C6.73716 3.69189 3.73398 7.34443 3.76044 11.863C3.85305 28.1094 3.79682 44.3591 3.79682 60.6055H3.80013ZM32.8397 3.99599C29.1552 3.99599 25.4707 3.98607 21.7828 4.00921C21.2371 4.01252 20.4532 3.8241 20.4632 4.79261C20.483 6.69325 22.1037 8.2964 24.0484 8.29971C29.6579 8.31293 35.2707 8.30963 40.8801 8.30632C43.589 8.30632 43.7047 8.16418 44.7797 5.69169C45.3849 4.29348 44.9252 3.96293 43.5658 3.97946C39.9904 4.02574 36.4151 3.99599 32.8397 3.99929V3.99599Z" fill="#FE5000" />
    <path d="M32.4662 114.184C27.677 114.184 22.8844 114.181 18.0952 114.184C16.8053 114.184 15.5749 114.068 15.4526 112.412C15.3666 111.219 16.4382 110.419 18.1515 110.416C27.7332 110.399 37.3116 110.406 46.8934 110.416C47.3299 110.416 47.7831 110.446 48.1965 110.571C49.1987 110.875 49.8304 111.53 49.6849 112.64C49.5492 113.678 48.8183 114.141 47.8294 114.158C46.1789 114.191 44.5252 114.181 42.8748 114.181C39.4052 114.181 35.9357 114.181 32.4695 114.181L32.4662 114.184Z" fill="#FE5000" />
  </g>
  <defs>
    <clipPath id="clip0_10_801">
      <rect width="104" height="121" fill="white" />
    </clipPath>
  </defs>
</svg>