<svg width="76" height="50" viewBox="0 0 76 50" fill="none" xmlns="http://www.w3.org/2000/svg">
    <g clip-path="url(#clip0_4301_901)">
        <path d="M72.9162 0.900879C70.3238 1.67996 67.7313 2.32919 65.1389 3.10827C62.5464 3.88735 59.9539 4.53658 57.3615 5.31566C55.806 5.7052 54.5098 7.78275 54.5098 9.73045V15.184V20.6376C54.5098 22.5853 55.806 24.6628 57.3615 25.0524C59.9539 25.8314 62.5464 26.4807 65.1389 27.2597C67.7313 28.0388 70.3238 28.6881 72.9162 29.4671C74.4717 29.8567 75.6383 27.6493 75.768 24.533V5.9649C75.768 2.97843 74.6013 0.900879 73.3051 0.900879C73.1755 0.900879 73.0459 0.900879 72.9162 0.900879Z" fill="#033D41"/>
        <path d="M18.8635 5.31605C16.2711 4.53697 13.6786 3.88773 11.0861 3.10865C8.49367 2.32957 5.90121 1.68034 3.30874 0.90126C1.75326 0.51172 0.457031 2.84896 0.457031 6.22497V15.3142V24.4035C0.457031 27.7795 1.75326 30.1168 3.30874 29.5974C5.90121 28.8183 8.49367 28.1691 11.0861 27.39C13.6786 26.6109 16.2711 25.9617 18.8635 25.1826C20.419 24.793 21.7152 22.7155 21.7152 20.7678V15.1844V9.73083C21.7152 7.78313 20.419 5.83543 18.8635 5.31605Z" fill="#8FC584"/>
        <path d="M43.6212 5.3156C44.9174 4.53653 46.2136 3.88729 47.5099 3.10821C48.8061 2.32913 50.1023 1.6799 51.3986 0.900822C52.1763 0.511283 52.8244 2.84852 52.8244 6.09468V15.1839V24.2732C52.8244 27.6492 52.1763 29.9864 51.3986 29.4671C50.1023 28.688 48.8061 28.0387 47.5099 27.2597C46.2136 26.4806 44.9174 25.8314 43.6212 25.0523C42.8434 24.6627 42.1953 22.5852 42.1953 20.6375V15.1839V9.73039C42.1953 7.78269 42.8434 5.83499 43.6212 5.3156Z" fill="#025842"/>
        <path d="M32.6036 5.3156C31.3074 4.53653 30.0112 3.88729 28.7149 3.10821C27.4187 2.32913 26.1225 1.6799 24.8262 0.900822C24.0485 0.511283 23.4004 2.84852 23.4004 6.09468V15.1839V24.2732C23.4004 27.6492 24.0485 29.9864 24.8262 29.4671C26.1225 28.688 27.4187 28.0387 28.7149 27.2597C30.0112 26.4806 31.3074 25.8314 32.6036 25.0523C33.3813 24.6627 34.0295 22.5852 34.0295 20.6375V15.1839V9.73039C34.0295 7.78269 33.3813 5.83499 32.6036 5.3156Z" fill="#6BB86F"/>
        <path d="M39.2143 5.3156C39.3439 4.53652 39.6032 3.88729 39.7328 3.10821C39.9921 2.32913 40.1217 1.6799 40.3809 0.900822C40.5106 0.511283 40.6402 2.84852 40.6402 6.09468V15.1839V24.2732C40.6402 27.6492 40.5106 29.9864 40.3809 29.4671C40.2513 28.688 39.9921 28.0387 39.7328 27.2597C39.6032 26.4806 39.3439 25.8314 39.2143 25.0523C39.0847 24.6627 38.9551 22.5852 38.9551 20.6375V15.1839V9.73039C38.9551 7.78269 39.0847 5.83499 39.2143 5.3156Z" fill="#2F7433"/>
        <path d="M37.1404 5.3156C36.8812 4.53652 36.7516 3.88729 36.4923 3.10821C36.2331 2.32913 36.1035 1.6799 35.8442 0.900822C35.7146 0.511283 35.585 2.84852 35.585 6.09468V15.1839V24.2732C35.585 27.6492 35.7146 29.9864 35.8442 29.4671C36.1035 28.688 36.2331 28.0387 36.4923 27.2597C36.7516 26.4806 36.8812 25.8314 37.1404 25.0523C37.2701 24.6627 37.3997 22.5852 37.3997 20.6375V15.1839V9.73039C37.2701 7.78269 37.1404 5.83499 37.1404 5.3156Z" fill="#3C8340"/>
        <path d="M17.4381 49.2039V40.5042H15.1049V47.7756C14.9752 47.7756 14.8456 47.9055 14.5864 47.9055C14.3271 47.9055 14.0679 47.9055 13.8086 47.9055C13.2901 47.9055 12.9013 47.7756 12.642 47.5159C12.3828 47.2562 12.2531 46.8667 12.2531 46.4772V40.3744H9.91992V46.3473C9.91992 47.1264 10.0495 47.7756 10.3088 48.295C10.568 48.8144 11.0865 49.2039 11.605 49.4636C12.1235 49.7233 12.9013 49.8532 13.679 49.8532C14.1975 49.8532 14.5864 49.8532 15.1049 49.7233C15.6233 49.7233 16.0122 49.5935 16.4011 49.4636C16.79 49.4636 17.1788 49.3338 17.4381 49.2039ZM26.2525 49.7233V43.3608C26.2525 42.7116 26.1228 42.1922 25.8636 41.6728C25.6043 41.1534 25.0858 40.8938 24.5673 40.6341C23.9192 40.3744 23.2711 40.2445 22.3638 40.2445C21.586 40.2445 20.9379 40.3744 20.2898 40.3744C19.6417 40.5042 19.1232 40.6341 18.6047 40.8938V49.5935H20.9379V42.4519C21.0675 42.4519 21.3268 42.3221 21.586 42.3221C21.8453 42.3221 22.1045 42.1922 22.3638 42.1922C22.8822 42.1922 23.2711 42.3221 23.5304 42.5818C23.7896 42.8415 23.9192 43.231 23.9192 43.6205V49.7233H26.2525ZM30.0115 37.7774C30.0115 37.5177 30.0115 37.3879 29.8819 37.1282C29.7523 36.9984 29.6227 36.7387 29.3634 36.7387C29.1042 36.6088 28.9745 36.6088 28.7153 36.6088C28.456 36.6088 28.1968 36.6088 28.0672 36.7387C27.8079 36.8685 27.6783 36.9984 27.5487 37.1282C27.4191 37.258 27.4191 37.5177 27.4191 37.7774C27.4191 38.0371 27.4191 38.167 27.5487 38.4267C27.6783 38.5565 27.8079 38.8162 28.0672 38.9461C28.3264 39.0759 28.456 39.0759 28.7153 39.0759C28.9745 39.0759 29.2338 39.0759 29.3634 38.9461C29.6227 38.8162 29.7523 38.6864 29.8819 38.4267C30.0115 38.2968 30.0115 38.0371 30.0115 37.7774ZM29.8819 40.5042H27.5487V49.7233H29.8819V40.5042ZM35.8446 49.5935V47.6458C35.7149 47.6458 35.7149 47.7756 35.5853 47.7756C35.4557 47.7756 35.3261 47.7756 35.1965 47.7756C34.9372 47.7756 34.8076 47.7756 34.678 47.6458C34.5483 47.6458 34.4187 47.5159 34.2891 47.3861C34.1595 47.2562 34.1595 46.9965 34.1595 46.7369V42.1922H35.8446V40.5042H34.1595V37.7774L31.8263 38.4267V40.5042H30.6596V42.1922H31.8263V46.8667C31.8263 47.7756 32.0855 48.5547 32.4744 49.0741C32.8632 49.5935 33.5114 49.8532 34.4187 49.8532C34.5483 49.8532 34.8076 49.8532 34.9372 49.8532C35.0668 49.8532 35.3261 49.8532 35.4557 49.7233C35.5853 49.7233 35.7149 49.5935 35.8446 49.5935ZM44.2701 44.5295C44.2701 43.8802 44.1405 43.3608 44.0108 42.8415C43.8812 42.3221 43.622 41.9325 43.2331 41.543C42.8442 41.1534 42.4554 40.8938 41.9369 40.6341C41.4184 40.3744 40.8999 40.3744 40.2518 40.3744C39.6036 40.3744 38.9555 40.5042 38.437 40.7639C37.9185 41.0236 37.4 41.2833 37.1408 41.8027C36.7519 42.1922 36.4927 42.7116 36.3631 43.3608C36.2334 44.0101 36.1038 44.5295 36.1038 45.3085C36.1038 45.9578 36.2334 46.607 36.3631 47.2562C36.6223 47.9055 36.8816 48.295 37.2704 48.8144C37.6593 49.2039 38.1778 49.5935 38.6963 49.8532C39.2148 50.1129 39.9925 50.2427 40.6406 50.2427C41.0295 50.2427 41.548 50.2427 41.9369 50.1129C42.3257 50.1129 42.7146 49.983 43.1035 49.8532C43.4923 49.7233 43.7516 49.5935 44.0108 49.4636L43.3627 47.7756C43.1035 47.9055 42.8442 48.0353 42.585 48.0353C42.3257 48.1652 42.0665 48.1652 41.6776 48.295C41.4184 48.295 41.0295 48.4249 40.7703 48.4249C40.3814 48.4249 39.8629 48.295 39.6036 48.1652C39.2148 48.0353 38.9555 47.7756 38.6963 47.5159C38.437 47.2562 38.3074 46.8667 38.3074 46.3473L44.2701 45.5682C44.2701 45.4384 44.2701 45.3085 44.2701 45.1787C44.2701 44.7892 44.2701 44.6593 44.2701 44.5295ZM42.0665 44.1399L38.1778 44.6593C38.1778 44.1399 38.3074 43.6205 38.437 43.231C38.5667 42.8415 38.8259 42.5818 39.2148 42.3221C39.474 42.0624 39.8629 42.0624 40.2518 42.0624C40.6406 42.0624 40.8999 42.1922 41.1591 42.3221C41.4184 42.4519 41.6776 42.7116 41.8072 42.9713C41.9369 43.231 42.0665 43.6205 42.0665 44.1399ZM47.6403 36.3491H45.3071V49.7233H47.6403V36.3491ZM51.3994 36.3491H49.0661V49.7233H51.3994V36.3491ZM60.473 44.5295C60.473 43.8802 60.3434 43.3608 60.2137 42.8415C60.0841 42.3221 59.8249 41.9325 59.436 41.543C59.0471 41.1534 58.6583 40.8938 58.1398 40.6341C57.6213 40.3744 57.1028 40.3744 56.4547 40.3744C55.8066 40.3744 55.1584 40.5042 54.6399 40.7639C54.1214 41.0236 53.603 41.2833 53.3437 41.8027C52.9548 42.1922 52.6956 42.7116 52.566 43.3608C52.4363 43.7504 52.3067 44.3996 52.3067 45.1787C52.3067 45.8279 52.4363 46.4772 52.566 47.1264C52.8252 47.7756 53.0845 48.1652 53.4733 48.6846C53.8622 49.0741 54.3807 49.4636 54.8992 49.7233C55.4177 49.983 56.1954 50.1129 56.8435 50.1129C57.2324 50.1129 57.7509 50.1129 58.1398 49.983C58.5286 49.983 58.9175 49.8532 59.3064 49.7233C59.6953 49.5935 59.9545 49.4636 60.2137 49.3338L59.5656 47.6458C59.3064 47.7756 59.0471 47.9055 58.7879 47.9055C58.5286 48.0353 58.2694 48.0353 57.8805 48.1652C57.6213 48.1652 57.2324 48.295 56.9732 48.295C56.5843 48.295 56.0658 48.1652 55.8066 48.0353C55.4177 47.9055 55.1584 47.6458 54.8992 47.3861C54.6399 47.1264 54.5103 46.7369 54.5103 46.2175L60.473 45.4384C60.473 45.3085 60.473 45.1787 60.473 45.0488C60.473 44.7892 60.473 44.6593 60.473 44.5295ZM58.2694 44.1399L54.3807 44.6593C54.3807 44.1399 54.5103 43.6205 54.6399 43.231C54.7696 42.8415 55.0288 42.5818 55.4177 42.3221C55.6769 42.0624 56.0658 42.0624 56.4547 42.0624C56.8435 42.0624 57.1028 42.1922 57.362 42.3221C57.6213 42.4519 57.8805 42.7116 58.0102 42.9713C58.1398 43.231 58.2694 43.6205 58.2694 44.1399ZM66.306 40.3744C66.1764 40.3744 65.9172 40.3744 65.7875 40.3744C65.5283 40.3744 65.3987 40.3744 65.1394 40.3744C64.3617 40.3744 63.7136 40.5042 63.0655 40.5042C62.4173 40.6341 61.8988 40.7639 61.3804 41.0236V49.7233H63.7136V42.3221C63.8432 42.3221 64.1024 42.1922 64.2321 42.1922C64.4913 42.1922 64.6209 42.1922 64.8802 42.1922C65.0098 42.1922 65.269 42.1922 65.3987 42.1922C65.5283 42.1922 65.7875 42.1922 65.9172 42.3221L66.306 40.3744Z" fill="#4A4A49"/>
    </g>
    <defs>
        <clipPath id="clip0_4301_901">
            <rect width="75.3111" height="49.082" fill="white" transform="translate(0.457031 0.900879)"/>
        </clipPath>
    </defs>
</svg>
