<svg width="56" height="24" viewBox="0 0 56 24" fill="none" xmlns="http://www.w3.org/2000/svg">
    <g clip-path="url(#clip0_2889_25864)">
        <rect width="56" height="24" rx="12" fill="white"/>
        <path fill-rule="evenodd" clip-rule="evenodd" d="M25.4908 7.77328V11.426H27.0766C27.5578 11.437 27.9734 11.3714 28.3234 11.2511C28.6624 11.1308 28.9358 10.9339 29.1108 10.6605C29.2858 10.3871 29.3842 10.0262 29.3842 9.57779C29.3842 8.96535 29.2092 8.51696 28.8483 8.22167C28.4984 7.92639 27.9297 7.77328 27.1751 7.77328H25.4908ZM25.4908 16.7084V13.0884H27.0657C28.0281 13.0884 28.8593 12.9681 29.5264 12.7384C30.1935 12.5088 30.7185 12.1369 31.0903 11.6229C31.4621 11.1089 31.6481 10.4308 31.6481 9.57779C31.6481 8.42947 31.2762 7.56549 30.5216 6.99679C29.767 6.41716 28.6187 6.13281 27.0766 6.13281H25.4908H24.3535H23.2708V16.7084H25.4908ZM40.1962 15.7662L40.1963 15.7679C40.2072 16.074 40.24 16.391 40.2728 16.7081L40.2729 16.7084H38.1402C38.1184 16.6318 38.0856 16.5115 38.0528 16.3694C38.009 16.2272 37.9871 16.085 37.9652 15.9429H37.8887C37.7028 16.085 37.5059 16.2272 37.2762 16.3584C37.0466 16.5006 36.7622 16.61 36.4232 16.6865C36.0842 16.774 35.6686 16.8178 35.1874 16.8178C34.3343 16.8178 33.6563 16.61 33.1423 16.1944C32.6283 15.7788 32.3767 15.1882 32.3767 14.4336C32.3767 13.8321 32.5517 13.3509 32.8908 12.9791C33.2298 12.6072 33.7657 12.3229 34.4765 12.1588C35.1874 11.9948 36.1279 11.8964 37.2653 11.8964H37.9652V11.5902C37.9652 11.3277 37.8996 11.1089 37.7575 10.934C37.6153 10.759 37.4184 10.6387 37.145 10.5731C36.8716 10.5074 36.5545 10.4746 36.1607 10.4746C35.7561 10.4746 35.3514 10.5074 34.9359 10.5731C34.5203 10.6387 34.1484 10.7262 33.8203 10.8355C33.4922 10.9449 33.2188 11.0543 33.011 11.1636V9.57785C33.3501 9.40286 33.8203 9.24975 34.4219 9.12945C35.0234 8.99821 35.7123 8.94353 36.4998 8.94353C37.3309 8.94353 38.0199 9.02009 38.5558 9.19507C39.0917 9.35912 39.4963 9.64346 39.7698 10.0372C40.0432 10.4309 40.1744 10.9558 40.1744 11.6011V14.8383C40.1744 15.1549 40.1853 15.4606 40.1962 15.7662ZM37.9762 13.1869H37.32C36.6638 13.1869 36.1389 13.2197 35.7452 13.2962C35.3514 13.3728 35.0671 13.4931 34.8921 13.6571C34.7171 13.8321 34.6296 14.0618 34.6296 14.3571C34.6296 14.5758 34.6843 14.7727 34.7827 14.9258C34.8812 15.0789 35.0452 15.1992 35.253 15.2867C35.4608 15.3742 35.7342 15.4288 36.0623 15.4288C36.4998 15.4288 36.8716 15.3523 37.1997 15.2101C37.5168 15.0679 37.7793 14.8711 37.9871 14.6195V13.1869H37.9762ZM42.1915 17.2772V18.8629C42.5962 19.0051 43.0227 19.0707 43.4711 19.0598C43.9304 19.0598 44.346 19.0051 44.685 18.9067C45.035 18.8083 45.3412 18.6442 45.6146 18.4145C45.888 18.1849 46.1286 17.9115 46.3583 17.5724C46.577 17.2334 46.7848 16.8397 46.9817 16.3694L50.0767 9.05295H47.9769L45.7384 14.7851L43.3508 9.05295H41.0541L44.5642 16.8823C44.5148 16.9619 44.4643 17.0352 44.4116 17.1022C44.2913 17.2553 44.1382 17.3756 43.9632 17.4521C43.7882 17.5287 43.5695 17.5615 43.307 17.5615C43.0555 17.5615 42.8477 17.5396 42.6727 17.4849C42.4868 17.4412 42.3337 17.3646 42.1915 17.2772Z" fill="black"/>
        <rect x="5.37012" y="4.60791" width="14.5856" height="14.5856" rx="7.29282" fill="#FC3F1D"/>
        <path d="M13.6908 16.2837H15.2144V7.53235H12.9983C10.7695 7.53235 9.59844 8.67821 9.59844 10.3655C9.59844 11.7129 10.2406 12.5062 11.3865 13.3246L9.39697 16.2837H11.0465L13.2627 12.9721L12.4946 12.4558C11.5628 11.8262 11.1095 11.3351 11.1095 10.2774C11.1095 9.34559 11.7643 8.71599 13.0109 8.71599H13.6908V16.2837Z" fill="white"/>
        <path fill-rule="evenodd" clip-rule="evenodd" d="M12 0L44 0C50.6274 0 56 5.37259 56 12C56 18.6274 50.6274 24 44 24H12C5.37257 24 0 18.6274 0 12C0 5.37258 5.37258 0 12 0ZM12 1.06077C5.95843 1.06077 1.06077 5.95843 1.06077 12C1.06077 18.0416 5.95842 22.9392 12 22.9392H44C50.0416 22.9392 54.9392 18.0416 54.9392 12C54.9392 5.95843 50.0416 1.06077 44 1.06077H12Z" fill="black"/>
    </g>
    <defs>
        <clipPath id="clip0_2889_25864">
            <rect width="56" height="24" rx="12" fill="white"/>
        </clipPath>
    </defs>
</svg>
